<svg xmlns="http://www.w3.org/2000/svg" width="24" height="24" viewBox="0 0 24 24">
    <g fill="none" fill-rule="evenodd">
        <path fill="#00AFF5" fill-rule="nonzero" d="M21.063 2.604c-.804-.805-2.207-.805-3.012 0l-7.143 7.143a.532.532 0 0 0-.14.247l-.752 3.01a.535.535 0 0 0 .516.663.518.518 0 0 0 .129-.016l3.012-.753a.527.527 0 0 0 .247-.14l7.143-7.143c.402-.402.624-.937.624-1.506a2.11 2.11 0 0 0-.624-1.505zM13.272 11.9l-2.008.502.502-2.008 5.909-5.91 1.506 1.507-5.91 5.909zm7.038-7.04l-.376.377-1.506-1.506.376-.376a1.091 1.091 0 0 1 1.506 0c.2.2.312.468.312.753s-.111.552-.312.753z"/>
        <path stroke="#00AFF5" stroke-linecap="round" d="M12.745 2.943H5a2 2 0 0 0-2 2v14a2 2 0 0 0 2 2h14a2 2 0 0 0 2-2v-8.14"/>
    </g>
</svg>
