<?xml version="1.0" encoding="UTF-8"?>
<svg width="17px" height="20px" viewBox="0 0 17 20" version="1.1" xmlns="http://www.w3.org/2000/svg" xmlns:xlink="http://www.w3.org/1999/xlink">
    <!-- Generator: Sketch 50.2 (55047) - http://www.bohemiancoding.com/sketch -->
    <title>ic_airline_seat_recline_normal_48px</title>
    <desc>Created with Sketch.</desc>
    <defs></defs>
    <g id="V0-DESKTOP-COMMANDER-OK" stroke="none" stroke-width="1" fill="none" fill-rule="evenodd">
        <g id="Create-Route-02-Copy-36" transform="translate(-361.000000, -326.000000)" fill="#708C91" fill-rule="nonzero">
            <g id="ic_airline_seat_recline_normal_48px" transform="translate(361.000000, 326.000000)">
                <path d="M3.67692308,3.5025641 C2.87692308,2.7025641 2.87692308,1.40512821 3.67692308,0.6 C4.47692308,-0.2 5.77435897,-0.2 6.57948718,0.6 C7.37948718,1.4 7.37948718,2.6974359 6.57948718,3.5025641 C5.77948718,4.3025641 4.47692308,4.3025641 3.67692308,3.5025641 Z M2.05128205,14.3589744 L2.05128205,5.12820513 L0,5.12820513 L0,14.3589744 C0,17.1897436 2.2974359,19.4871795 5.12820513,19.4871795 L11.2820513,19.4871795 L11.2820513,17.4358974 L5.12820513,17.4358974 C3.43076923,17.4358974 2.05128205,16.0564103 2.05128205,14.3589744 Z M16.4102564,18.5282051 L11.2153846,13.3333333 L7.69230769,13.3333333 L7.69230769,9.55897436 C9.12307692,10.7384615 11.3897436,11.7692308 13.3333333,11.774359 L13.3333333,9.55897436 C11.6307692,9.57948718 9.63076923,8.66666667 8.54358974,7.46666667 L7.10769231,5.87692308 C6.90769231,5.65641026 6.66666667,5.48717949 6.40512821,5.35897436 C6.1025641,5.21025641 5.76410256,5.12307692 5.41538462,5.12307692 L5.38974359,5.12307692 C4.11282051,5.12820513 3.07692308,6.15897436 3.07692308,7.43589744 L3.07692308,13.3333333 C3.07692308,15.0307692 4.45641026,16.4102564 6.15384615,16.4102564 L11.3487179,16.4102564 L14.9384615,20 L16.4102564,18.5282051 Z" id="Shape"></path>
            </g>
        </g>
    </g>
</svg>