<svg xmlns="http://www.w3.org/2000/svg" xmlns:xlink="http://www.w3.org/1999/xlink" width="260" height="200" viewBox="0 0 260 200">
    <defs>
        <filter id="prefix__b" width="100%" height="100%" x="0%" y="0%" filterUnits="objectBoundingBox">
            <feGaussianBlur in="SourceGraphic" stdDeviation="0 0"/>
        </filter>
        <circle id="prefix__a" cx="100" cy="100" r="100"/>
    </defs>
    <g fill="none" fill-rule="evenodd" transform="translate(30)">
        <mask id="prefix__c" fill="#fff">
            <use xlink:href="#prefix__a"/>
        </mask>
        <use fill="#5E48AF" fill-rule="nonzero" filter="url(#prefix__b)" xlink:href="#prefix__a"/>
        <g fill-rule="nonzero" mask="url(#prefix__c)">
            <g transform="translate(145 57)">
                <rect width="127.313" height="17" x="5.714" y="58" fill="#292659" rx="4.666"/>
                <ellipse cx="24.236" cy="72.474" fill="#292659" rx="7.763" ry="7.751"/>
                <ellipse cx="56.841" cy="72.474" fill="#292659" rx="7.763" ry="7.751"/>
                <path fill="#292659" d="M51.434 64.722H57.516V80.22399999999999H51.434z" transform="rotate(-180 54.475 72.474)"/>
                <ellipse cx="51.461" cy="72.474" fill="#292659" rx="7.763" ry="7.751"/>
                <path fill="#292659" d="M18.829 64.722H24.911V80.22399999999999H18.829z" transform="rotate(-180 21.87 72.474)"/>
                <path fill="#FFF" d="M60.75 9.108h36.944c1.068 0 2.089.44 2.821 1.217l30.043 31.826c.408.434.912.767 1.471.973 3.715 1.372 18.573 7.31 18.573 14.429V68.06c0 2.14-1.737 3.875-3.881 3.875h-40.558"/>
                <path fill="#EEE" d="M66.358 10.325L96.401 42.15c.408.434.912.767 1.471.973 3.715 1.372 18.573 7.31 18.573 14.429v10.502c0 2.14-1.738 3.876-3.881 3.876h-9.69c0-5.352-1.955-10.115-9.718-10.115-8.151 0-9.704 4.763-9.704 10.115l-54.729.072c0-5.352-1.552-10.575-9.704-10.575-8.539 0-9.703 5.223-9.703 10.575H3.882C1.738 72.003 0 70.268 0 68.127V12.983c0-2.14 1.738-3.875 3.882-3.875h59.654c1.069 0 2.09.44 2.822 1.217z"/>
                <path fill="#FFF" d="M72.2 5.62H83.845V10.155999999999999H72.2z" transform="rotate(-180 78.022 7.888)"/>
                <path fill="#E1E0E0" d="M67.93 5.62H72.46600000000001V10.155999999999999H67.93z" transform="rotate(-180 70.198 7.888)"/>
                <path fill="#FFF" d="M97.232 17.333h-94.9C1.045 17.333 0 16.288 0 15v-3.667C0 10.044 1.044 9 2.333 9h94.899c1.288 0 2.332 1.044 2.332 2.333V15c0 1.288-1.044 2.333-2.332 2.333z"/>
                <path fill="#65BFCF" d="M77.696 17.525h25.657c1.066 0 2.085.437 2.818 1.21l22.974 24.23c.191.202.26.49.179.755-.08.266-.296.469-.567.532-1.261.317-3.221.511-6.105.511-1.74 0-3.37-.02-4.891-.058l-8.889-9.825h-10.48l-2.565 3.705L77.125 18.82c-.204-.227-.257-.552-.134-.832.123-.28.4-.46.705-.463zM62.496 17.502h5.555c1.174.015 2.273.579 2.969 1.523l17.253 19.049c.876 1.167 1.014 2.728.357 4.03l-9.25-7.224H68.9l-6.598 8.914 1.102.175h-.908c-2.142 0-3.881-1.915-3.881-4.263V21.78c0-2.364 1.739-4.279 3.881-4.279z"/>
                <path fill="#40969F" d="M68.9 34.88h10.48l9.25 7.224c-.506 1.12-1.615 1.847-2.845 1.865h-22.38l-1.103-.175 6.599-8.914z"/>
                <rect width="12.033" height="4.651" x="67.348" y="29.455" fill="#40969F" rx="2.103" transform="rotate(180 73.364 31.78)"/>
                <rect width="6.987" height="12.402" x="82.567" y="35.268" fill="#FFF" rx="2.333"/>
                <path fill="#5E48AF" d="M28.684 32.88h-.132c-.055-.009-.11-.022-.163-.038-.27-.083-.499-.264-.64-.508l-5.046-8.615c-.151-.26-.192-.568-.113-.857.073-.29.263-.539.524-.686.173-.105.372-.159.575-.155.402.005.774.218.982.562l4.052 6.95 4.052-6.95c.203-.35.578-.564.982-.562.202.003.4.057.575.155.258.151.446.398.524.686.079.29.038.598-.113.857l-5.007 8.607c-.137.234-.355.41-.613.496l-.035.02-.144.03h-.26v.009zM33.754 51.933c-.403-.005-.774-.218-.982-.562l-4.064-6.945-4.037 6.945c-.205.348-.578.561-.982.562-.201-.004-.398-.056-.575-.151-.256-.153-.444-.399-.524-.686-.079-.29-.038-.6.113-.86l5.046-8.616c.138-.233.356-.41.613-.496h.035l.155-.027H28.894l.194.039c.269.082.497.262.64.503l5.023 8.616c.154.259.197.57.117.86-.078.289-.266.535-.524.686-.171.103-.368.156-.567.151l-.023-.019zM33.241 35.485c-.269-.004-.528-.102-.733-.275l-.028-.031c-.04-.033-.077-.07-.108-.113l-.027-.03c-.03-.036-.055-.074-.078-.113-.023-.032-.042-.067-.054-.105v-.038c-.028-.086-.047-.136-.059-.19-.065-.277-.023-.567.117-.814l4.91-8.67c.206-.35.58-.567.986-.574.198-.001.392.051.563.152.547.31.74 1.003.43 1.55l-3.966 6.976h8.046c.302-.001.592.118.805.331.214.214.333.503.332.805.003.3-.118.588-.334.798-.211.215-.5.337-.803.337l-9.999.004zM19.303 49.414c-.198.002-.393-.05-.563-.151-.26-.151-.453-.397-.536-.686-.077-.29-.04-.598.105-.86l3.963-6.977H14.23c-.302.001-.592-.118-.806-.331-.213-.213-.333-.503-.332-.804-.004-.302.117-.593.334-.803.213-.213.502-.332.804-.333h9.983c.271.001.533.1.737.28l.027.026c.04.033.075.07.105.113l.047.058c.021.031.04.063.058.097.024.032.044.067.058.104v.04c.027.06.046.124.059.19.061.274.021.562-.113.81l-4.922 8.673c-.2.342-.568.553-.966.554zM38.287 49.301c-.403-.006-.775-.22-.982-.565l-5.046-8.612c-.132-.235-.18-.509-.136-.775v-.039c.011-.049.027-.097.047-.143l.031-.066c.014-.033.032-.065.054-.093.017-.04.041-.077.07-.109l.027-.027.132-.143c.206-.192.476-.301.757-.306l9.983-.105c.63 0 1.146.5 1.165 1.128.003.301-.115.592-.327.806-.212.215-.5.336-.803.337l-8.046.085 4.045 6.945c.15.26.191.57.112.86-.075.29-.264.538-.524.687-.178.088-.375.135-.574.135h.015zM14.199 35.64c-.62-.014-1.12-.51-1.138-1.128-.003-.301.115-.592.327-.806.212-.215.5-.336.803-.337l8.046-.09-4.044-6.933c-.315-.541-.13-1.235.411-1.55.173-.105.372-.159.575-.155.402.005.774.218.982.562l5.045 8.615c.135.235.183.51.136.776v.038c-.01.048-.026.095-.046.14l-.027.07c-.017.032-.037.063-.059.093-.03.05-.038.077-.058.104l-.027.031c-.058.066-.097.105-.136.144-.204.192-.472.301-.753.306l-10.037.12z"/>
                <rect width="43.842" height="6.007" x="62.791" fill="#66BECF" rx="2.624" transform="rotate(180 84.712 3.004)"/>
                <rect width="16.916" height="6.007" x="53.309" fill="#40969F" rx="2.624" transform="rotate(180 61.766 3.004)"/>
                <path fill="#FFF" d="M9.54 72.003c0-5.137 4.171-9.371 9.316-9.371 5.145 0 9.316 4.234 9.316 9.37h4.724c0-7.705-6.256-14.021-13.974-14.021-7.717 0-13.973 6.316-13.973 14.022H9.54z"/>
                <rect width="150" height="2" x=".6" y="79" fill="#292659" rx="1" transform="rotate(-180 75.6 80)"/>
                <ellipse cx="18.856" cy="72.474" fill="#5E48AF" rx="7.763" ry="7.751"/>
                <ellipse cx="18.829" cy="72.474" fill="#292659" rx="3.882" ry="3.876"/>
                <path fill="#FFF" d="M83.912 71.933c0-5.137 4.17-9.301 9.315-9.301s9.316 4.164 9.316 9.301h4.724c0-7.705-6.257-13.952-13.974-13.952-7.717 0-13.973 6.247-13.973 13.952h4.592z"/>
            </g>
        </g>
        <rect width="44" height="4" x="91" y="111" fill="#FFF" mask="url(#prefix__c)" rx="2"/>
        <rect width="15" height="4" x="120" y="95" fill="#FFF" mask="url(#prefix__c)" rx="2"/>
        <rect width="27" height="4" x="108" y="80" fill="#FFF" mask="url(#prefix__c)" rx="2"/>
    </g>
</svg>
