<svg xmlns="http://www.w3.org/2000/svg" width="89" height="26" viewBox="0 0 89 26">
    <defs>
        <linearGradient id="a" x1="51.388%" x2="77.828%" y1="60.249%" y2="-96.496%">
            <stop offset="0%" stop-color="#584696"/>
            <stop offset="100%" stop-color="#547BBD"/>
        </linearGradient>
        <linearGradient id="b" x1="45.458%" x2="65.188%" y1="69.443%" y2="-14.204%">
            <stop offset="0%" stop-color="#584696"/>
            <stop offset="100%" stop-color="#547BBD"/>
        </linearGradient>
        <linearGradient id="c" x1="41.474%" x2="54.684%" y1="108.223%" y2="-2.624%">
            <stop offset="0%" stop-color="#584696"/>
            <stop offset="100%" stop-color="#547BBD"/>
        </linearGradient>
        <linearGradient id="d" x1="46.602%" x2="51.939%" y1="121.503%" y2="10.04%">
            <stop offset="0%" stop-color="#584696"/>
            <stop offset="100%" stop-color="#547BBD"/>
        </linearGradient>
        <linearGradient id="e" x1="34.638%" x2="59.521%" y1="144.16%" y2="-12.585%">
            <stop offset="0%" stop-color="#584696"/>
            <stop offset="100%" stop-color="#547BBD"/>
        </linearGradient>
        <linearGradient id="f" x1="32.069%" x2="50.489%" y1="163.191%" y2="5.832%">
            <stop offset="0%" stop-color="#584696"/>
            <stop offset="100%" stop-color="#547BBD"/>
        </linearGradient>
        <linearGradient id="g" x1="-58.032%" x2="60.277%" y1="184.326%" y2="2.899%">
            <stop offset="0%" stop-color="#584696"/>
            <stop offset="100%" stop-color="#547BBD"/>
        </linearGradient>
        <linearGradient id="h" x1="39.793%" x2="158.194%" y1="97.003%" y2="-84.705%">
            <stop offset="0%" stop-color="#584696"/>
            <stop offset="100%" stop-color="#547BBD"/>
        </linearGradient>
        <linearGradient id="i" x1="-39.22%" x2="79.998%" y1="220.129%" y2="34.447%">
            <stop offset="0%" stop-color="#584696"/>
            <stop offset="100%" stop-color="#547BBD"/>
        </linearGradient>
        <linearGradient id="j" x1="20.126%" x2="139.385%" y1="65.388%" y2="-120.421%">
            <stop offset="0%" stop-color="#584696"/>
            <stop offset="100%" stop-color="#547BBD"/>
        </linearGradient>
        <linearGradient id="k" x1="-19.82%" x2="99.16%" y1="127.661%" y2="-57.761%">
            <stop offset="0%" stop-color="#584696"/>
            <stop offset="100%" stop-color="#547BBD"/>
        </linearGradient>
        <linearGradient id="l" x1=".882%" x2="119.862%" y1="157.774%" y2="-27.969%">
            <stop offset="0%" stop-color="#584696"/>
            <stop offset="100%" stop-color="#547BBD"/>
        </linearGradient>
    </defs>
    <g fill="none" fill-rule="evenodd">
        <g fill-rule="nonzero">
            <path fill="url(#a)" d="M5.837 3.85a3.768 3.768 0 0 1 1.39 1.424c.342.6.51 1.27.51 2.01v3.164a.689.689 0 0 1-.206.515.683.683 0 0 1-.509.208.671.671 0 0 1-.51-.208.701.701 0 0 1-.204-.515v-.524a3.45 3.45 0 0 1-1.193.955 3.376 3.376 0 0 1-1.513.338c-.676 0-1.284-.169-1.831-.508A3.511 3.511 0 0 1 .479 9.293a4.3 4.3 0 0 1-.471-2.01c0-.739.167-1.409.501-2.01A3.68 3.68 0 0 1 1.908 3.85a3.84 3.84 0 0 1 1.968-.515c.73 0 1.375.177 1.96.515zm-.684 5.743a2.38 2.38 0 0 0 .889-.955c.212-.4.319-.854.319-1.355 0-.5-.107-.954-.32-1.362a2.452 2.452 0 0 0-.888-.963 2.383 2.383 0 0 0-1.27-.346c-.47 0-.889.115-1.269.346-.38.231-.676.554-.896.963-.22.408-.327.862-.327 1.362 0 .5.106.955.327 1.355.22.4.516.724.896.955.38.23.798.346 1.27.346.463 0 .889-.115 1.269-.346z" transform="translate(33.739 5.557)"/>
            <path fill="url(#b)" d="M20.603 4.127c.501.539.752 1.293.752 2.255v4.066a.713.713 0 0 1-.198.515.677.677 0 0 1-.516.208.671.671 0 0 1-.51-.208.701.701 0 0 1-.205-.515V6.39c0-.577-.144-1.016-.425-1.316-.29-.3-.67-.447-1.14-.447-.487 0-.89.17-1.201.508-.312.339-.471.778-.471 1.309v4.004a.713.713 0 0 1-.198.515.677.677 0 0 1-.517.208.671.671 0 0 1-.509-.208.701.701 0 0 1-.205-.515V6.39c0-.577-.144-1.016-.426-1.316-.288-.3-.668-.447-1.14-.447-.493 0-.896.17-1.215.508-.312.339-.472.778-.472 1.309v4.004a.713.713 0 0 1-.197.515.677.677 0 0 1-.517.208.671.671 0 0 1-.51-.208.701.701 0 0 1-.204-.515V4.127a.695.695 0 0 1 .714-.724c.205 0 .372.062.502.192.129.131.197.293.212.5.244-.246.532-.438.867-.577a2.83 2.83 0 0 1 1.094-.207c.479 0 .904.1 1.284.292.38.193.692.47.935.832.281-.347.631-.624 1.049-.824.418-.2.89-.3 1.406-.3.805.007 1.459.277 1.96.816z" transform="translate(33.739 5.557)"/>
            <path fill="url(#c)" d="M25.14.07a.695.695 0 0 1 .714.724v3.833a3.45 3.45 0 0 1 1.193-.955 3.376 3.376 0 0 1 1.512-.338c.677 0 1.285.169 1.832.508.547.339.98.808 1.292 1.416a4.3 4.3 0 0 1 .471 2.01 4.06 4.06 0 0 1-.502 2.01 3.68 3.68 0 0 1-1.398 1.424 3.84 3.84 0 0 1-1.968.515c-.722 0-1.376-.169-1.953-.515a3.768 3.768 0 0 1-1.391-1.425c-.342-.6-.51-1.27-.51-2.01V.794a.72.72 0 0 1 .198-.524c.122-.138.297-.2.51-.2zm3.138 9.87c.471 0 .89-.116 1.27-.347.38-.231.676-.554.896-.962.22-.408.327-.863.327-1.363s-.107-.955-.327-1.355c-.22-.4-.517-.716-.897-.955a2.383 2.383 0 0 0-1.269-.346c-.471 0-.889.115-1.269.346a2.38 2.38 0 0 0-.89.955c-.212.4-.318.854-.318 1.355 0 .5.106.955.319 1.363.213.408.51.723.89.962.379.23.805.346 1.268.346z" transform="translate(33.739 5.557)"/>
            <path fill="url(#d)" d="M34.897.27c.13-.131.297-.2.502-.2a.677.677 0 0 1 .7.708V8.53c0 .355.068.64.197.87.129.231.296.34.501.34h.35c.19 0 .342.068.456.2.114.13.175.3.175.508a.611.611 0 0 1-.266.508c-.175.13-.41.2-.684.2h-.03c-.403 0-.768-.108-1.087-.331a2.21 2.21 0 0 1-.753-.94 3.363 3.363 0 0 1-.266-1.355V.778c.015-.208.076-.378.205-.509z" transform="translate(33.739 5.557)"/>
            <path fill="url(#e)" d="M46.175 7.607a.645.645 0 0 1-.463.177h-5.328c.107.662.403 1.2.89 1.601.494.408 1.094.608 1.8.608.282 0 .57-.054.875-.154.304-.107.554-.23.752-.385a.69.69 0 0 1 .464-.154c.182 0 .319.047.418.139.167.139.25.3.25.485 0 .17-.076.316-.228.423a3.94 3.94 0 0 1-1.185.624c-.471.162-.92.239-1.353.239-.767 0-1.451-.17-2.06-.5a3.628 3.628 0 0 1-1.42-1.402c-.343-.593-.51-1.27-.51-2.032 0-.755.16-1.44.487-2.04.319-.601.775-1.07 1.345-1.41.577-.338 1.223-.5 1.953-.5.722 0 1.345.162 1.862.485.524.323.927.77 1.208 1.347.281.578.418 1.24.418 1.987a.586.586 0 0 1-.175.462zm-4.97-2.48c-.425.378-.691.886-.805 1.517h4.666c-.084-.631-.32-1.14-.7-1.516-.38-.378-.88-.57-1.497-.57-.683 0-1.238.185-1.664.57z" transform="translate(33.739 5.557)"/>
            <path fill="url(#f)" d="M53.805 3.534c.282.154.418.339.418.57 0 .069-.007.115-.015.138-.083.3-.273.454-.562.454a.976.976 0 0 1-.213-.03c-.372-.07-.676-.1-.912-.1-.676 0-1.216.153-1.626.47-.41.315-.616.73-.616 1.262v4.15c0 .23-.06.4-.175.523-.114.123-.288.185-.524.185-.228 0-.395-.062-.517-.177-.121-.116-.182-.293-.182-.531V4.096c0-.231.06-.4.182-.524.122-.123.297-.184.517-.184.464 0 .7.238.7.708v.27a2.865 2.865 0 0 1 1.04-.778c.41-.193.851-.285 1.315-.285.502 0 .89.077 1.17.23z" transform="translate(33.739 5.557)"/>
            <g>
                <path fill="url(#g)" d="M12.376 8.724h-.053l-.053-.008a.894.894 0 0 1-.635-.434l-3.974-6.88a.902.902 0 0 1-.09-.686.895.895 0 0 1 .868-.67c.318 0 .62.175.779.45l3.203 5.546L15.624.495a.893.893 0 0 1 .779-.45c.158 0 .31.046.453.123a.902.902 0 0 1 .325 1.234l-3.974 6.88a.904.904 0 0 1-.484.396l-.03.015c-.03.008-.076.016-.113.023l-.06.008h-.144z" transform="translate(1 1)"/>
                <path fill="url(#h)" d="M16.388 23.939a.909.909 0 0 1-.779-.45l-3.203-5.546-3.204 5.547a.909.909 0 0 1-.778.449.962.962 0 0 1-.453-.122.916.916 0 0 1-.416-.548.902.902 0 0 1 .091-.686l3.974-6.88a.904.904 0 0 1 .484-.396l.03-.016c.03-.007.075-.015.12-.022l.061-.008h.181l.03.008c.069.015.114.022.152.03.174.061.37.168.506.404l3.974 6.88c.121.206.151.45.09.686a.895.895 0 0 1-.415.548.818.818 0 0 1-.445.122z" transform="translate(1 1)"/>
                <path fill="url(#i)" d="M15.98 10.804a.914.914 0 0 1-.582-.221l-.023-.023c-.03-.023-.053-.053-.083-.091l-.023-.023c-.037-.046-.045-.069-.06-.092a.311.311 0 0 1-.045-.084l-.008-.03c-.023-.069-.038-.107-.045-.152a.89.89 0 0 1 .09-.648l3.884-6.926a.9.9 0 0 1 .778-.457.913.913 0 0 1 .786 1.356L17.513 8.99l6.362-.007a.9.9 0 0 1 .899.907c0 .243-.09.472-.264.64a.894.894 0 0 1-.635.266l-7.895.008z" transform="translate(1 1)"/>
                <path fill="url(#j)" d="M4.956 21.928a.855.855 0 0 1-.445-.122.906.906 0 0 1-.424-.549.936.936 0 0 1 .084-.686l3.135-5.584-6.362.007a.9.9 0 0 1-.899-.906c0-.244.091-.473.265-.64a.894.894 0 0 1 .634-.267H8.84a.88.88 0 0 1 .582.22l.022.024c.03.023.053.053.083.091l.038.046c.015.023.03.046.045.076.023.038.038.061.046.084l.007.03c.023.069.038.107.046.153.03.175.045.411-.091.647l-3.891 6.926a.888.888 0 0 1-.77.45z" transform="translate(1 1)"/>
                <path fill="url(#k)" d="M19.969 21.836a.909.909 0 0 1-.778-.45l-3.974-6.88a.93.93 0 0 1-.106-.616l.007-.031a.674.674 0 0 1 .038-.114l.023-.054c.015-.03.03-.053.045-.076.015-.03.03-.06.053-.084l.023-.022c.045-.054.075-.084.105-.115a.883.883 0 0 1 .597-.244l7.896-.083c.498 0 .899.403.906.899a.9.9 0 0 1-.891.914l-6.362.069 3.196 5.546c.12.206.151.45.09.686a.895.895 0 0 1-.415.549 1.018 1.018 0 0 1-.453.106z" transform="translate(1 1)"/>
                <path fill="url(#l)" d="M.922 10.926a.908.908 0 0 1-.9-.9.9.9 0 0 1 .892-.914l6.362-.068-3.196-5.54a.912.912 0 0 1 .325-1.241.862.862 0 0 1 .453-.122c.317 0 .62.175.778.45L9.61 9.47a.93.93 0 0 1 .106.617l-.007.03c-.008.038-.023.076-.038.114l-.023.054c-.015.03-.03.053-.045.076-.023.038-.03.06-.045.084l-.023.023a1.792 1.792 0 0 1-.106.114.883.883 0 0 1-.597.244l-7.91.099z" transform="translate(1 1)"/>
            </g>
        </g>
    </g>
</svg>
