<svg xmlns="http://www.w3.org/2000/svg" xmlns:xlink="http://www.w3.org/1999/xlink" width="260" height="200" viewBox="0 0 260 200">
    <defs>
        <circle id="a" cx="89" cy="85" r="85"/>
    </defs>
    <g fill="none" fill-rule="evenodd">
        <g transform="translate(41 15)">
            <path fill="#65BFCF" fill-rule="nonzero" d="M28.4 12.7V10h-1.8v2.7H24v1.7h2.6v2.7h1.8v-2.7h2.7v-1.7zM4.4 25.7V23H2.6v2.7H0v1.8h2.6v2.6h1.8v-2.6H7v-1.8zM162.4 155.6V153h-1.8v2.6H158v1.8h2.6v2.6h1.8v-2.6h2.6v-1.8z"/>
            <mask id="b" fill="#fff">
                <use xlink:href="#a"/>
            </mask>
            <use fill="#65BFCF" fill-rule="nonzero" opacity=".4" xlink:href="#a"/>
            <path fill="#FFF" fill-rule="nonzero" d="M34.7 52.9H144v122.6H34.7z" mask="url(#b)"/>
            <path fill="#5E48AF" fill-rule="nonzero" d="M145 54.5H33c-2.2 0-4-1.7-4-3.7V50c0-2.1 1.8-3.7 4-3.7h112c2.2 0 4 1.7 4 3.7v.8c-.1 2-1.8 3.7-4 3.7z" mask="url(#b)"/>
            <circle cx="89" cy="50.4" r="12.8" fill="#65BFCF" fill-rule="nonzero" mask="url(#b)"/>
            <path fill="#FFF" fill-rule="nonzero" d="M94.9 47.6h-3.2v-3.2c0-1.4-1.1-2.6-2.4-2.6h-.5c-1.3 0-2.4 1.2-2.4 2.6v3.2h-3.2c-1.4 0-2.6 1.1-2.6 2.4v.5c0 1.3 1.2 2.4 2.6 2.4h3.2v3.2c0 1.4 1.1 2.6 2.4 2.6h.5c1.3 0 2.4-1.2 2.4-2.6v-3.2h3.2c1.4 0 2.6-1.1 2.6-2.4V50c0-1.3-1.2-2.4-2.6-2.4z" mask="url(#b)"/>
            <path fill="#65BFCF" fill-rule="nonzero" d="M87.7 123.4H75c-2.8 0-5 2.2-5 5v40.8c0 2.8 2.2 5 5 5h12.7v-50.8zM103 123.4H90.3v50.8H103c2.8 0 5-2.2 5-5v-40.8c0-2.8-2.2-5-5-5zM53.4 82V69.4h-4.2c-2.3 0-4.2 1.9-4.2 4.2v8.3h8.4v.1zM55.1 82h8.4v-8.3c0-2.3-1.9-4.2-4.2-4.2h-4.2V82zM53.4 83.7H45V92c0 2.3 1.9 4.2 4.2 4.2h4.2V83.7zM55.1 83.7v12.6h4.2c2.3 0 4.2-1.9 4.2-4.2v-8.3h-8.4v-.1zM123.8 82V69.4h-4.2c-2.3 0-4.2 1.9-4.2 4.2v8.3h8.4v.1zM125.5 82h8.4v-8.3c0-2.3-1.9-4.2-4.2-4.2h-4.2V82zM123.8 83.7h-8.4V92c0 2.3 1.9 4.2 4.2 4.2h4.2V83.7zM125.5 83.7v12.6h4.2c2.3 0 4.2-1.9 4.2-4.2v-8.3h-8.4v-.1zM88.4 82V69.4h-4.2c-2.3 0-4.2 1.9-4.2 4.2v8.3h8.4v.1zM90.1 82h8.4v-8.3c0-2.3-1.9-4.2-4.2-4.2h-4.2V82zM88.4 83.7H80V92c0 2.3 1.9 4.2 4.2 4.2h4.2V83.7zM90.1 83.7v12.6h4.2c2.3 0 4.2-1.9 4.2-4.2v-8.3h-8.4v-.1z" mask="url(#b)"/>
        </g>
    </g>
</svg>
