<svg xmlns="http://www.w3.org/2000/svg" width="260" height="200" viewBox="0 0 260 200">
    <g fill="none" fill-rule="evenodd">
        <g transform="translate(41 15)">
            <path fill="#65BFCF" fill-rule="nonzero" d="M28.4 12.7V10h-1.8v2.7H24v1.7h2.6v2.7h1.8v-2.7h2.7v-1.7zM4.4 25.7V23H2.6v2.7H0v1.8h2.6v2.6h1.8v-2.6H7v-1.8zM162.4 155.6V153h-1.8v2.6H158v1.8h2.6v2.6h1.8v-2.6h2.6v-1.8z"/>
            <circle cx="89" cy="85" r="85" fill="#65BFCF" fill-rule="nonzero" opacity=".4"/>
            <path fill="#5E48AF" d="M151 131.8H26.4c-2.4 0-4.4-1.9-4.4-4.2V49.2c0-2.3 2-4.2 4.4-4.2H151c2.4 0 4.4 1.9 4.4 4.2v78.5c0 2.3-2 4.1-4.4 4.1z"/>
            <path fill="#FFF" fill-rule="nonzero" d="M149 128.2H28.4c-.7 0-1.2-.5-1.2-1.2V51.5c0-.6.6-1.2 1.2-1.2h120.5c.7 0 1.2.5 1.2 1.2V127c.1.7-.4 1.2-1.1 1.2z"/>
            <path fill="#5E48AF" d="M155.9 134.5H21.5c-1.8 0-3.6-.6-5-1.8l-6-4.9c-.8-.6-.4-2 .6-2h155.2c1 0 1.4 1.3.6 2l-6 4.9c-1.5 1.1-3.2 1.8-5 1.8z"/>
            <path fill="#65BFCF" fill-rule="nonzero" d="M115.8 100.7H61.6c-5.7 0-10.4-4.7-10.4-10.4s4.7-10.4 10.4-10.4h54.3c5.7 0 10.4 4.7 10.4 10.4-.1 5.7-4.7 10.4-10.5 10.4z"/>
            <path fill="#FFF" fill-rule="nonzero" d="M101.4 130.3H76c-1 0-1.9-.6-1.9-1.3v-3.4h29.2v3.4c0 .7-.8 1.3-1.9 1.3z" opacity=".2"/>
            <path fill="#FFF" fill-rule="nonzero" d="M2 124h173.5v2H2z"/>
            <circle cx="88.7" cy="47.7" r="1.1" fill="#FFF" fill-rule="nonzero"/>
            <path fill="#5E48AF" d="M122.9 105.9v-.2c0-.9-.7-1.7-1.7-1.7-.9 0-1.7.7-1.7 1.7v-1.8c0-.9-.7-1.7-1.7-1.7-.9 0-1.7.7-1.7 1.7v-1.7c0-.9-.8-1.7-1.7-1.7-.9 0-1.7.8-1.7 1.7v-5.4c0-.9-.7-1.7-1.7-1.7s-1.7.7-1.7 1.7v10.9s-1.7-5.1-4.1-3.9c-.8.4-1.2 1.4-.8 2.3l3.1 6.2s1.9 3.7 5.2 3.7h4.4c3 0 5.5-2.5 5.5-5.5l.3-4.6z"/>
        </g>
    </g>
</svg>
