<svg xmlns="http://www.w3.org/2000/svg" width="260" height="200" viewBox="0 0 260 200">
    <g fill="none" fill-rule="evenodd">
        <g transform="translate(41 15)">
            <circle cx="89" cy="85" r="85" fill="#65BFCF" fill-rule="nonzero" opacity=".4"/>
            <path fill="#65BFCF" fill-rule="nonzero" d="M28.4 12.7V10h-1.8v2.7H24v1.7h2.6v2.7h1.8v-2.7h2.7v-1.7zM4.4 25.7V23H2.6v2.7H0v1.8h2.6v2.6h1.8v-2.6H7v-1.8zM162.4 155.6V153h-1.8v2.6H158v1.8h2.6v2.6h1.8v-2.6h2.6v-1.8z"/>
            <path fill="#65BFCF" fill-rule="nonzero" d="M67.2 71.6h40.6V108H67.2z" opacity=".5"/>
            <path fill="#65BFCF" fill-rule="nonzero" d="M65.4 103.9h44.1v4.1H65.4z"/>
            <path fill="#65BFCF" fill-rule="nonzero" d="M63.6 133.9h48.1v7.1H63.6z" opacity=".5"/>
            <path fill="#FFF" fill-rule="nonzero" d="M100.9 65.1H74.1l-1.4 26.4h29.6z"/>
            <path fill="#65BFCF" fill-rule="nonzero" d="M81.3 105.3h12.4c4.9 0 8.9-4 8.9-8.9l-.3-5H72.7l-.3 5c.1 4.9 4 8.9 8.9 8.9z"/>
            <path fill="#5E48AF" d="M75.1 137.4V85c0-2.4 1.9-4.3 4.3-4.3h.9c2.4 0 4.3 1.9 4.3 4.3v52.4"/>
            <path fill="#65BFCF" fill-rule="nonzero" d="M73.7 139.7c0-3.5 2.8-6.3 6.3-6.3s6.3 2.8 6.3 6.3"/>
            <path fill="#FFF" fill-rule="nonzero" d="M86 141.2H73.9c-.5 0-.9-.4-.9-.9s.4-.9.9-.9H86c.5 0 .9.4.9.9s-.4.9-.9.9z"/>
            <path fill="#5E48AF" d="M90.3 137.4V85c0-2.4 1.9-4.3 4.3-4.3h.9c2.4 0 4.3 1.9 4.3 4.3v52.4"/>
            <path fill="#65BFCF" fill-rule="nonzero" d="M88.9 139.7c0-3.5 2.8-6.3 6.3-6.3s6.3 2.8 6.3 6.3"/>
            <path fill="#FFF" fill-rule="nonzero" d="M101.2 141.2H89.1c-.5 0-.9-.4-.9-.9s.4-.9.9-.9h12.1c.5 0 .9.4.9.9s-.4.9-.9.9z"/>
            <path fill="#65BFCF" fill-rule="nonzero" d="M59 124.7h6.2v2.5H59z"/>
            <path fill="#5E48AF" d="M56.3 152.9v-53c0-1.1.9-1.9 1.9-1.9 1.1 0 1.9.9 1.9 1.9v53c0 1.1-.9 1.9-1.9 1.9-1.1 0-1.9-.9-1.9-1.9z"/>
            <path fill="#65BFCF" fill-rule="nonzero" d="M62.3 99.8h1.4v40.7h-1.4z"/>
            <path fill="#65BFCF" fill-rule="nonzero" d="M61.6 129.3h2.7v11.2h-2.7z"/>
            <path fill="#FFF" fill-rule="nonzero" d="M61.1 152.9v-13.5c0-1.1.9-1.9 1.9-1.9 1.1 0 1.9.9 1.9 1.9v13.5c0 1.1-.9 1.9-1.9 1.9-1.1 0-1.9-.9-1.9-1.9zM56.3 123c-1.2.2-2.1 1.5-2.1 3.1s.9 2.9 2.1 3.1V123zM64.2 91.9v14.8c0 .7-.5 1.2-1.2 1.2s-1.2-.5-1.2-1.2V91.9"/>
            <path fill="#5E48AF" fill-rule="nonzero" d="M65.5 92.5h-5.1c-1.4 0-2.5-1.1-2.5-2.5s1.1-2.5 2.5-2.5h5.1c1.4 0 2.5 1.1 2.5 2.5s-1.1 2.5-2.5 2.5z"/>
            <path fill="#65BFCF" fill-rule="nonzero" d="M115.997 127.222h-6.2v-2.5h6.2z"/>
            <path fill="#5E48AF" d="M118.7 152.9v-53c0-1.1-.9-1.9-1.9-1.9-1.1 0-1.9.9-1.9 1.9v53c0 1.1.9 1.9 1.9 1.9 1.1 0 1.9-.9 1.9-1.9z"/>
            <path fill="#65BFCF" fill-rule="nonzero" d="M112.725 140.515h-1.4v-40.7h1.4z"/>
            <path fill="#65BFCF" fill-rule="nonzero" d="M113.325 140.475h-2.7v-11.2h2.7z"/>
            <path fill="#FFF" fill-rule="nonzero" d="M113.9 152.9v-13.5c0-1.1-.9-1.9-1.9-1.9-1.1 0-1.9.9-1.9 1.9v13.5c0 1.1.9 1.9 1.9 1.9 1 0 1.9-.9 1.9-1.9zM118.7 123c1.2.2 2.1 1.5 2.1 3.1s-.9 2.9-2.1 3.1V123zM110.8 91.9v14.8c0 .7.5 1.2 1.2 1.2s1.2-.5 1.2-1.2V91.9"/>
            <path fill="#5E48AF" d="M109.5 92.5h5.1c1.4 0 2.5-1.1 2.5-2.5s-1.1-2.5-2.5-2.5h-5.1c-1.4 0-2.5 1.1-2.5 2.5-.1 1.4 1.1 2.5 2.5 2.5z"/>
            <path fill="#FFF" fill-rule="nonzero" d="M87.5 46.4c-2.4-.7-19.3-4-25 36.6 2.9 0 4.9.5 4.9.5s3.8-16.4 7.3-18.2c2.9 1.9 9.8 5.3 12.3 6.6v.5s.2-.1.5-.2c.3.2.5.2.5.2v-.5c2.6-1.3 9.5-4.7 12.3-6.6 3.4 1.9 7.3 18.2 7.3 18.2s2.1-.5 4.9-.5c-5.7-40.6-22.5-37.3-25-36.6z"/>
            <ellipse cx="63.6" cy="85.3" fill="#65BFCF" fill-rule="nonzero" rx="4.5" ry="3.7"/>
            <ellipse cx="111.1" cy="85.3" fill="#65BFCF" fill-rule="nonzero" rx="4.5" ry="3.7"/>
            <ellipse cx="87.5" cy="26.5" fill="#65BFCF" fill-rule="nonzero" rx="10.8" ry="11.5"/>
            <path fill="#65BFCF" fill-rule="nonzero" d="M87.1 50.5c-1.9 0-3.5-1.6-3.5-3.5v-3.8c0-1.9 1.6-3.5 3.5-3.5s3.5 1.6 3.5 3.5V47c0 2-1.6 3.5-3.5 3.5z"/>
            <path fill="#FFF" fill-rule="nonzero" d="M78.8 25.3v12.4c0 4 3.2 7.2 7.2 7.2h2.2c4 0 7.2-3.2 7.2-7.2v-15s-8.5 5.3-16.6 2.6z"/>
        </g>
    </g>
</svg>
