<svg xmlns="http://www.w3.org/2000/svg" width="260" height="200" viewBox="0 0 260 200">
    <g fill="none" fill-rule="evenodd">
        <g transform="translate(45 15)">
            <circle cx="85" cy="85" r="85" fill="#65BFCF" fill-rule="nonzero" opacity=".4"/>
            <path stroke="#65BFCF" stroke-linecap="round" stroke-linejoin="round" d="M104.9 41.9l-1.2-2.7"/>
            <path fill="#FFF" fill-rule="nonzero" d="M114.6 48.3H36.3c-9.8 0-17.8 8-17.8 17.8v52.8h8.3v-.2c0-8.7 7.1-15.8 15.8-15.8 8.7 0 15.8 7.1 15.8 15.8v.2h47.8v-.2c0-8.7 7.1-15.8 15.8-15.8 8.7 0 15.8 7.1 15.8 15.8v.2h5.6c4.6 0 8.4-3.8 8.4-8.4V85.4c-.2-20.5-16.8-37.1-37.2-37.1z"/>
            <circle cx="42.6" cy="118.7" r="12.8" fill="#5E48AF"/>
            <circle cx="42.6" cy="118.7" r="9.1" fill="#65BFCF" fill-rule="nonzero"/>
            <circle cx="121.9" cy="118.7" r="12.8" fill="#5E48AF"/>
            <circle cx="121.9" cy="118.7" r="9.1" fill="#65BFCF" fill-rule="nonzero"/>
            <path fill="#5E48AF" d="M28.5 66v23.5H59V58.3H36.3c-4.3 0-7.8 3.5-7.8 7.7zM66.4 58.3h39.3v31.2H66.4zM114.6 58.3H113v31.2h28.6v-4.2c0-14.9-12.1-27-27-27zM145.3 96.5c-2.2 0-4 1.7-4 3.7v.8c0 2.1 1.8 3.7 4 3.7h6.4v-8.3h-6.4v.1zM25.3 104.9c2.2 0 4-1.7 4-3.7v-.8c0-2.1-1.8-3.7-4-3.7H19v8.3h6.3v-.1z"/>
            <path fill="#FFF" fill-rule="nonzero" d="M49.6 71.3h-3.2v-3.2c0-1.4-1.1-2.6-2.4-2.6h-.5c-1.3 0-2.4 1.2-2.4 2.6v3.2h-3.2c-1.4 0-2.6 1.1-2.6 2.4v.5c0 1.3 1.2 2.4 2.6 2.4h3.2v3.2c0 1.4 1.1 2.6 2.4 2.6h.5c1.3 0 2.4-1.2 2.4-2.6v-3.2h3.2c1.4 0 2.6-1.1 2.6-2.4v-.5c0-1.3-1.1-2.4-2.6-2.4z"/>
            <path fill="#65BFCF" fill-rule="nonzero" d="M101.3 48.2c0-2.1 1.8-3.7 4-3.7h4.1c2.2 0 4 1.7 4 3.7"/>
            <path stroke="#65BFCF" stroke-linecap="round" stroke-linejoin="round" d="M107.3 41.9v-3M109.6 41.9l1.1-2.7"/>
            <path fill="#65BFCF" fill-rule="nonzero" d="M159.4 25.7V23h-1.8v2.7H155v1.7h2.6v2.7h1.8v-2.7h2.7v-1.7zM143.4 4.7V2h-1.8v2.7H139v1.8h2.6v2.6h1.8V6.5h2.6V4.7zM10.4 145.6V143H8.6v2.6H6v1.8h2.6v2.6h1.8v-2.6H13v-1.8z"/>
        </g>
    </g>
</svg>
