<svg xmlns="http://www.w3.org/2000/svg" width="260" height="200" viewBox="0 0 260 200">
    <g fill="none" fill-rule="evenodd">
        <path fill="#FFF" d="M177.667 47.253l7.109-8.152"/>
        <path stroke="#FFF" stroke-linecap="round" stroke-linejoin="round" stroke-width="3" d="M177.667 47.253l7.109-8.152"/>
        <path fill="#FFF" d="M171.263 43.722l2.99-8.156"/>
        <path stroke="#FFF" stroke-linecap="round" stroke-linejoin="round" stroke-width="3" d="M171.263 43.722l2.99-8.156"/>
        <path fill="#FFF" d="M181.667 53.184l7.668-3.327"/>
        <path stroke="#FFF" stroke-linecap="round" stroke-linejoin="round" stroke-width="3" d="M181.667 53.184l7.668-3.327"/>
        <g>
            <path d="M41.195 105.465l3.369 56.576s23.736 6.951 106.167-12.017c2.303-.53 17.43 5.97 25.708 5.396a229.827 229.827 0 0 0 15.576-1.65l3.912-.84 8.864 2.407 4.187-.598 3.038-4.252.84-4.217-1.953-3.646-1.799-1.387 4.988-1.67 1.488-5.776-1.48-5-2.806-2.264 3.912-.838 2.937-3.985-1.32-5.391-1.766-3.658-2.687-.57 3.442-2.13.212-5.12-.678-4.3-2.72-3.78-4.471-1.77-7.941-.014-19.444 1.589-2.647-1.187-4.279-3.083-1.24-5.608 1.409-6.903 1.112-5.749-.684-7.137-2.021-4.586-1.728-3.094-5.1-2.67-2.66-.192-2.877.668-1.19 3.395-.293 6.638.847 6.747.58 8.006-1.708 7.032-3.127 5.003-8.374 7.683-3.305 2.782-7.56 1.375-27.74 3.443-16.723.124-23.44.023-19.514-1.95-7.313-1.855z"/>
            <path stroke="#FFF" stroke-linecap="round" stroke-width="3" d="M181.587 96.15l23.802-1.656s1.617.066 3.615.565c3.977.993 6.773 4.38 7.045 8.294l.272 3.916s.46 4.561-4.75 4.924L192 113.585s-4.292-.001-6.458-3.43c-1.743-2.76-.324-9.159 5.554-9.567l14.787-1.037"/>
            <path stroke="#FFF" stroke-width="3" d="M212.079 126.437l-19.65 1.366c-3.23.225-6.057-2.234-6.281-5.463l-.173-2.499c-.227-3.23 2.232-6.057 5.463-6.281l19.65-1.367c3.23-.225 6.057 2.235 6.281 5.463l.174 2.499c.224 3.23-2.234 6.057-5.464 6.282zM210.401 140.493l-17.005 1.184c-3.146.219-5.897-2.175-6.115-5.32l-.14-1.996c-.218-3.144 2.176-5.895 5.32-6.113l17.006-1.184c3.144-.22 5.896 2.175 6.114 5.32l.139 1.996c.22 3.143-2.175 5.895-5.319 6.113z"/>
            <path stroke="#FFF" stroke-width="3" d="M211.173 143.568s1.111.73 1.322 3.749c.117 1.71-.601 5.853-3.516 7.422-2.61 1.402-16.816-.752-17.728-6.248a63.9 63.9 0 0 1-.295-1.926 4.041 4.041 0 0 1 3.508-4.57 35.92 35.92 0 0 1 1.839-.173c4.7-.327 12.721-1.694 14.87 1.746z"/>
            <path stroke="#FFF" stroke-linecap="round" stroke-linejoin="round" stroke-width="3" d="M181.587 96.15c-2.958-.181-3.623.499-6.916-3.225-2.776-3.14-.876-12.212-.876-12.212 2.907-7.256-.377-16.56-.377-16.56-4.046-10.262-12.362-8.28-13.363-7.133-3.917 4.492.7 12.276-.282 24.901-.983 12.625-15.534 21.524-15.534 21.524-33.558 6.398-59.352 6.827-76.757 5.658M42.697 161.684c53.901 5.85 68.592-7.677 108.229-10.833"/>
            <path stroke="#FFF" stroke-width="3" d="M195.089 152.63c-17.578 5.975-44.164-1.778-44.164-1.778"/>
            <path stroke="#FFF" stroke-linecap="round" stroke-linejoin="round" stroke-width="3" d="M151.46 137.74s.102 12.602 9.44 15.363"/>
            <path stroke="#FFF" stroke-linecap="round" stroke-width="3" d="M144.24 103.445s-4.55 9.833 2.668 22.946"/>
        </g>
    </g>
</svg>
