<svg viewBox="0 0 24 24" fill="none" xmlns="http://www.w3.org/2000/svg">
    <path fill-rule="evenodd" clip-rule="evenodd" d="M12.0005 4.00043C7.58211 4.00019 4 7.5819 4 12.0002C4 14.0547 4.77452 15.9283 6.04749 17.345C6.36476 15.1702 8.23756 13.5001 10.5004 13.5002L13.5003 13.5004C15.7628 13.5005 17.6353 15.1704 17.9526 17.3449C19.2256 15.9282 20.0001 14.0546 20.0001 12.0002C20 7.58221 16.4184 4.00067 12.0005 4.00043ZM12 20C10.1082 20 8.36972 19.3433 7.00012 18.2455V18.0002C7.00012 16.0672 8.56725 14.5001 10.5003 14.5002L13.5002 14.5004C15.4331 14.5005 17 16.0675 17 18.0004V18.2454C15.6304 19.3433 13.8919 20 12 20ZM3 12.0002C3 7.02956 7.0299 3.00016 12.0005 3.00043C16.9707 3.00069 21 7.02991 21.0001 12.0002C21.0001 16.9706 16.9705 21 12 21C7.0296 21 3 16.9707 3 12.0002ZM12 6.5C10.3431 6.5 9 7.84315 9 9.50001C9 11.1569 10.3431 12.5 12 12.5C13.6569 12.5 15 11.1569 15 9.50001C15 7.84315 13.6569 6.5 12 6.5ZM10 9.50001C10 8.39544 10.8954 7.5 12 7.5C13.1046 7.5 14 8.39544 14 9.50001C14 10.6046 13.1046 11.5 12 11.5C10.8954 11.5 10 10.6046 10 9.50001Z" fill="currentcolor"/>
</svg>
