<svg xmlns="http://www.w3.org/2000/svg" width="40" height="40" viewBox="0 0 40 40">
    <g fill="none" fill-rule="evenodd" stroke="currentcolor" stroke-linecap="round" stroke-linejoin="round" stroke-width="2" transform="translate(4 4)">
        <path d="M0 16C0 7.164 7.163 0 16 0c0 0 0 0 0 0h0c8.837.001 16 7.165 16 16 0 8.837-7.163 16-16 16h0C7.163 32 0 24.837 0 16z"/>
        <path d="M5 27.519C5 23.367 8.366 20 12.519 20c0 0 0 0 0 0h6.963C23.634 20.002 27 23.368 27 27.52h0"/>
        <circle cx="16" cy="11" r="5"/>
    </g>
</svg>
