<svg viewBox="0 0 24 24" fill="none" xmlns="http://www.w3.org/2000/svg">
<path fill-rule="evenodd" clip-rule="evenodd" d="M7.20689 3.88848C6.81809 3.67788 6.3814 3.5 6 3.5C5.56649 3.5 5.18981 3.72083 4.89071 4.05981C4.59576 4.39408 4.34997 4.86897 4.15066 5.46689C3.75139 6.66469 3.5 8.47549 3.5 11V12V14C3.5 16.4853 5.51472 18.5 8 18.5H13.5V20.5H14.5V19.5V16C14.5 15.1821 14.8928 14.4559 15.5 13.9998V16H16.5V13.55C16.6616 13.5172 16.8288 13.5 17 13.5C17.1712 13.5 17.3384 13.5172 17.5 13.55V16H18.5V13.9998C19.1072 14.4559 19.5 15.1821 19.5 16V19.5V20.5H20.5V16C20.5 14.2368 19.1961 12.7781 17.5 12.5354V12V11C17.5 8.47549 17.2486 6.66469 16.8493 5.46689C16.65 4.86897 16.4042 4.39408 16.1093 4.05981C15.8102 3.72083 15.4335 3.5 15 3.5C14.6186 3.5 14.1819 3.67788 13.7931 3.88848C13.3843 4.10993 12.9508 4.41097 12.5549 4.74088C12.1599 5.0701 11.7873 5.44046 11.5085 5.80633C11.3509 6.01321 11.1981 6.25069 11.1019 6.5H9.89813C9.80187 6.25069 9.64908 6.01321 9.49146 5.80633C9.2127 5.44046 8.84015 5.0701 8.44509 4.74088C8.04919 4.41097 7.61572 4.10993 7.20689 3.88848ZM12.236 6.50497C13.9492 6.5773 15.4596 7.4333 16.4181 8.72373C16.3174 7.44041 16.1311 6.47432 15.9007 5.78311C15.725 5.25603 15.5333 4.91842 15.3595 4.72144C15.1898 4.52917 15.0665 4.5 15 4.5C14.8814 4.5 14.6306 4.57212 14.2694 4.76777C13.9282 4.95257 13.5492 5.21403 13.1951 5.50911C12.8401 5.80489 12.5252 6.12201 12.304 6.41238C12.2795 6.44445 12.2569 6.47532 12.236 6.50497ZM16.5 12C16.5 11.7896 16.4856 11.5825 16.4576 11.3798L15.8489 11.2276C15.2916 11.0883 14.7085 11.0883 14.1512 11.2276L13.1213 11.4851L12.8788 10.5149L13.9086 10.2575C14.6252 10.0783 15.3749 10.0783 16.0915 10.2575L16.157 10.2739C15.48 8.6452 13.8737 7.5 12 7.5H9C7.12625 7.5 5.51997 8.64522 4.84294 10.2739L4.90864 10.2575C5.62522 10.0783 6.37488 10.0783 7.09146 10.2575L8.12132 10.5149L7.87878 11.4851L6.84893 11.2276C6.29159 11.0883 5.70852 11.0883 5.15118 11.2276L4.54239 11.3798C4.51444 11.5825 4.5 11.7896 4.5 12V14C4.5 15.933 6.067 17.5 8 17.5H13.5V16C13.5 14.2368 14.8039 12.7781 16.5 12.5354V12ZM5.09934 5.78311C4.86894 6.47432 4.68261 7.44042 4.58187 8.72373C5.54037 7.4333 7.05082 6.5773 8.76399 6.50497C8.74308 6.47532 8.72047 6.44445 8.69604 6.41238C8.4748 6.12201 8.15985 5.80489 7.80491 5.50911C7.45081 5.21403 7.07178 4.95257 6.73061 4.76777C6.36941 4.57212 6.1186 4.5 6 4.5C5.93351 4.5 5.81019 4.52917 5.64054 4.72144C5.46674 4.91842 5.27503 5.25603 5.09934 5.78311ZM11 13.5L11.5 13V12H9.5V13L10 13.5V14.5H9.5C9.22386 14.5 9 14.2761 9 14H8C8 14.8284 8.67157 15.5 9.5 15.5H11.5C12.3284 15.5 13 14.8284 13 14H12C12 14.2761 11.7761 14.5 11.5 14.5H11V13.5Z" fill="currentcolor"/>
</svg>
