<svg viewBox="0 0 24 24" fill="none" xmlns="http://www.w3.org/2000/svg">
    <path d="M11.9532 8.99682C11.9398 8.99682 11.9197 8.99682 11.9063 8.99682L11.8595 8.98984C11.8194 8.98285 11.786 8.97587 11.7459 8.9619C11.5921 8.90603 11.4182 8.80825 11.2978 8.59174L7.78051 2.28508C7.67352 2.0965 7.64678 1.87301 7.70027 1.6565C7.75377 1.44 7.8875 1.26539 8.06805 1.15365C8.18842 1.07682 8.32884 1.0419 8.46927 1.0419C8.75012 1.0419 9.0176 1.20254 9.15802 1.45396L11.9933 6.53841L14.8285 1.45396C14.969 1.19555 15.2364 1.0419 15.5173 1.0419C15.6577 1.0419 15.7915 1.08381 15.9185 1.15365C16.0991 1.26539 16.2328 1.44698 16.2863 1.6565C16.3398 1.87301 16.313 2.0965 16.206 2.28508L12.6887 8.59174C12.5684 8.80825 12.3878 8.90603 12.2608 8.95492L12.234 8.96888C12.2073 8.97587 12.1671 8.98285 12.1337 8.98984L12.0802 8.99682C12.0668 8.99682 12.0468 8.99682 12.0334 8.99682C12.0133 8.99682 11.9532 8.99682 11.9532 8.99682Z" fill="currentcolor"/>
    <path d="M15.5039 22.9441C15.2231 22.9441 14.9556 22.7835 14.8152 22.5321L11.9799 17.4476L9.14465 22.5321C9.00423 22.7835 8.73675 22.9441 8.4559 22.9441C8.31548 22.9441 8.18174 22.9022 8.05469 22.8324C7.87414 22.7206 7.7404 22.539 7.6869 22.3295C7.63341 22.113 7.66016 21.8895 7.76715 21.7009L11.2845 15.3943C11.4048 15.1778 11.5854 15.08 11.7124 15.0311L11.7392 15.0171C11.7659 15.0101 11.8061 15.0032 11.8462 14.9962L11.8997 14.9892C11.913 14.9892 11.9331 14.9892 11.9465 14.9892C11.9532 14.9892 12 14.9892 12.0067 14.9892C12.0267 14.9892 12.0401 14.9892 12.0602 14.9892L12.0869 14.9962C12.1471 15.0101 12.1872 15.0171 12.2206 15.0241C12.3744 15.08 12.5483 15.1778 12.6687 15.3943L16.186 21.7009C16.293 21.8895 16.3197 22.113 16.2662 22.3295C16.2127 22.546 16.079 22.7206 15.8985 22.8324C15.7848 22.9092 15.6444 22.9441 15.5039 22.9441V22.9441Z" fill="currentcolor"/>
    <path d="M15.1428 10.9035C14.9088 10.9035 14.7349 10.7917 14.6279 10.7009L14.6079 10.68C14.5811 10.659 14.5611 10.6311 14.5343 10.5962L14.5143 10.5752C14.4808 10.5333 14.4741 10.5124 14.4608 10.4914C14.4407 10.4635 14.4273 10.4356 14.4206 10.4146L14.414 10.3867C14.3939 10.3238 14.3805 10.2889 14.3738 10.247C14.3404 10.0794 14.3337 9.86984 14.4541 9.65333L17.8912 3.30476C18.0316 3.04635 18.2991 2.88571 18.5799 2.88571C18.7136 2.88571 18.8541 2.92063 18.9744 2.99746C19.3556 3.22095 19.4893 3.73079 19.2753 4.12889L16.5003 9.24127L22.1307 9.23428C22.572 9.23428 22.9264 9.60444 22.9264 10.0654C22.9264 10.2889 22.8462 10.4984 22.6924 10.6521C22.5453 10.8057 22.3447 10.8965 22.1307 10.8965L15.1428 10.9035Z" fill="currentcolor"/>
    <path d="M5.3866 21.1003C5.25287 21.1003 5.11244 21.0654 4.99208 20.9886C4.80484 20.8768 4.67779 20.7022 4.61761 20.4857C4.56411 20.2692 4.59086 20.0457 4.69116 19.8572L7.46624 14.7378L1.83584 14.7448C1.39451 14.7448 1.0401 14.3746 1.0401 13.9137C1.0401 13.6902 1.12034 13.4806 1.27414 13.327C1.42126 13.1733 1.62186 13.0826 1.83584 13.0826L8.82369 13.0826C9.06442 13.0826 9.23828 13.1943 9.33858 13.2851L9.35864 13.306C9.38539 13.327 9.40545 13.3549 9.4322 13.3899L9.46563 13.4318C9.47901 13.4527 9.49238 13.4737 9.50575 13.5016C9.52581 13.5365 9.53919 13.5575 9.54588 13.5784L9.55256 13.6064C9.57262 13.6692 9.586 13.7041 9.59268 13.746C9.61943 13.9067 9.63281 14.1232 9.51244 14.3397L6.06867 20.6883C5.93493 20.9397 5.66746 21.1003 5.3866 21.1003Z" fill="currentcolor"/>
    <path d="M18.6735 21.0165C18.3927 21.0165 18.1252 20.8559 17.9848 20.6044L14.4675 14.2978C14.3471 14.0813 14.3538 13.8718 14.3739 13.7321L14.3805 13.7041C14.3872 13.6692 14.4006 13.6343 14.414 13.5994L14.434 13.5505C14.4474 13.5225 14.4608 13.5016 14.4742 13.4806C14.4875 13.4527 14.5009 13.4248 14.521 13.4038L14.541 13.3829C14.5811 13.334 14.6079 13.306 14.6346 13.2781C14.755 13.1664 14.9289 13.0546 15.1629 13.0546L22.1508 12.9778C22.5921 12.9778 22.9465 13.3479 22.9532 13.8019C22.9599 14.2629 22.6055 14.633 22.1641 14.64L16.5337 14.7029L19.3623 19.7873C19.4693 19.9759 19.496 20.1994 19.4425 20.4159C19.389 20.6324 19.2553 20.807 19.0748 20.9187C18.9544 20.9816 18.814 21.0165 18.6735 21.0165V21.0165Z" fill="currentcolor"/>
    <path d="M1.8158 11.0152C1.38115 11.0152 1.02674 10.6451 1.02005 10.1911C1.01336 9.73014 1.36777 9.35998 1.80911 9.353L7.4395 9.29014L4.61093 4.21268C4.39026 3.81459 4.51732 3.30475 4.89847 3.07427C5.01884 2.99745 5.15926 2.96252 5.29969 2.96252C5.58054 2.96252 5.84801 3.12316 5.98844 3.37459L9.50577 9.68125C9.62613 9.89776 9.61944 10.1073 9.59938 10.247L9.5927 10.2749C9.58601 10.3098 9.57264 10.3447 9.55926 10.3797L9.5392 10.4286C9.52583 10.4565 9.51245 10.4774 9.49908 10.4984C9.47902 10.5333 9.47233 10.5543 9.45896 10.5752L9.4389 10.5962C9.39877 10.6451 9.37203 10.673 9.34528 10.7009C9.22491 10.8127 9.05105 10.9244 8.81701 10.9244L1.8158 11.0152Z" fill="currentcolor"/>
</svg>
