<svg width="27" height="24" viewBox="0 0 27 24" fill="none" xmlns="http://www.w3.org/2000/svg">
    <path d="M13.4616 8.71684C13.4462 8.71684 13.423 8.71684 13.4075 8.71684L13.3535 8.70918C13.3071 8.70153 13.2685 8.69388 13.2222 8.67857C13.0445 8.61735 12.8437 8.5102 12.7047 8.27296L8.64213 1.36224C8.51855 1.15561 8.48766 0.910714 8.54945 0.673469C8.61124 0.436224 8.76571 0.244898 8.97424 0.122449C9.11327 0.0382653 9.27546 0 9.43765 0C9.76204 0 10.071 0.17602 10.2332 0.451531L13.5079 6.02296L16.7827 0.451531C16.9449 0.168367 17.2538 0 17.5782 0C17.7404 0 17.8949 0.0459184 18.0416 0.122449C18.2502 0.244898 18.4046 0.443878 18.4664 0.673469C18.5282 0.910714 18.4973 1.15561 18.3738 1.36224L14.3112 8.27296C14.1722 8.5102 13.9636 8.61735 13.8169 8.67092L13.786 8.68622C13.7551 8.69388 13.7088 8.70153 13.6701 8.70918L13.6083 8.71684C13.5929 8.71684 13.5697 8.71684 13.5543 8.71684C13.5311 8.71684 13.4616 8.71684 13.4616 8.71684Z" fill="#7056CE"/>
    <path d="M17.5626 24C17.2382 24 16.9293 23.824 16.7671 23.5485L13.4923 17.977L10.2175 23.5485C10.0554 23.824 9.74642 24 9.42203 24C9.25983 24 9.10536 23.9541 8.95862 23.8775C8.75008 23.7551 8.59561 23.5561 8.53382 23.3265C8.47204 23.0893 8.50293 22.8444 8.62651 22.6377L12.6891 15.727C12.8281 15.4898 13.0366 15.3826 13.1834 15.3291L13.2143 15.3138C13.2452 15.3061 13.2915 15.2985 13.3378 15.2908L13.3996 15.2832C13.4151 15.2832 13.4383 15.2832 13.4537 15.2832C13.4614 15.2832 13.5155 15.2832 13.5232 15.2832C13.5464 15.2832 13.5618 15.2832 13.585 15.2832L13.6159 15.2908C13.6854 15.3061 13.7317 15.3138 13.7704 15.3214C13.948 15.3826 14.1488 15.4898 14.2878 15.727L18.3504 22.6377C18.474 22.8444 18.5049 23.0893 18.4431 23.3265C18.3813 23.5638 18.2268 23.7551 18.0183 23.8775C17.887 23.9617 17.7248 24 17.5626 24Z" fill="#7056CE"/>
    <path d="M17.1459 10.8061C16.8756 10.8061 16.6748 10.6837 16.5512 10.5842L16.528 10.5612C16.4971 10.5383 16.474 10.5077 16.4431 10.4694L16.4199 10.4464C16.3813 10.4005 16.3736 10.3776 16.3581 10.3546C16.3349 10.324 16.3195 10.2934 16.3118 10.2704L16.304 10.2398C16.2809 10.1709 16.2654 10.1327 16.2577 10.0867C16.2191 9.90306 16.2114 9.67347 16.3504 9.43622L20.3203 2.47959C20.4825 2.19643 20.7914 2.02041 21.1158 2.02041C21.2703 2.02041 21.4325 2.05867 21.5715 2.14286C22.0117 2.38776 22.1662 2.94643 21.919 3.38265L18.7138 8.98469L25.217 8.97704C25.7267 8.97704 26.1361 9.38265 26.1361 9.88776C26.1361 10.1327 26.0434 10.3622 25.8658 10.5306C25.6958 10.699 25.4641 10.7985 25.217 10.7985L17.1459 10.8061Z" fill="#7056CE"/>
    <path d="M5.87673 21.9796C5.72226 21.9796 5.56006 21.9413 5.42104 21.8571C5.20478 21.7347 5.05804 21.5434 4.98852 21.3061C4.92674 21.0689 4.95763 20.824 5.07348 20.6173L8.27874 15.0076L1.77554 15.0153C1.26579 15.0153 0.856445 14.6097 0.856445 14.1046C0.856445 13.8597 0.949127 13.6301 1.12677 13.4617C1.29669 13.2934 1.52839 13.1939 1.77554 13.1939L9.84661 13.1939C10.1247 13.1939 10.3255 13.3163 10.4413 13.4158L10.4645 13.4388C10.4954 13.4617 10.5186 13.4923 10.5495 13.5306L10.5881 13.5765C10.6035 13.5995 10.619 13.6224 10.6344 13.6531C10.6576 13.6913 10.673 13.7143 10.6808 13.7372L10.6885 13.7678C10.7116 13.8367 10.7271 13.875 10.7348 13.9209C10.7657 14.0969 10.7812 14.3342 10.6421 14.5714L6.66453 21.5281C6.51006 21.8036 6.20112 21.9796 5.87673 21.9796Z" fill="#7056CE"/>
    <path d="M21.2236 21.8878C20.8992 21.8878 20.5902 21.7117 20.428 21.4362L16.3655 14.5255C16.2264 14.2883 16.2342 14.0587 16.2573 13.9056L16.2651 13.875C16.2728 13.8367 16.2882 13.7985 16.3037 13.7602L16.3268 13.7066C16.3423 13.676 16.3577 13.6531 16.3732 13.6301C16.3886 13.5995 16.4041 13.5689 16.4273 13.5459L16.4504 13.523C16.4968 13.4694 16.5277 13.4388 16.5586 13.4082C16.6976 13.2857 16.8984 13.1633 17.1687 13.1633L25.2398 13.0791C25.7495 13.0791 26.1589 13.4847 26.1666 13.9821C26.1743 14.4872 25.765 14.8929 25.2552 14.9005L18.752 14.9694L22.0191 20.5408C22.1427 20.7475 22.1735 20.9924 22.1118 21.2296C22.05 21.4668 21.8955 21.6582 21.687 21.7806C21.5479 21.8495 21.3857 21.8878 21.2236 21.8878Z" fill="#7056CE"/>
    <path d="M1.7527 10.9286C1.25067 10.9286 0.841327 10.523 0.833604 10.0255C0.82588 9.52041 1.23523 9.11479 1.74498 9.10714L8.24817 9.03826L4.98113 3.47449C4.72625 3.03826 4.873 2.47959 5.31324 2.22704C5.45226 2.14286 5.61446 2.10459 5.77665 2.10459C6.10104 2.10459 6.40998 2.28061 6.57217 2.55612L10.6347 9.46684C10.7738 9.70408 10.766 9.93367 10.7429 10.0867L10.7351 10.1173C10.7274 10.1556 10.712 10.1939 10.6965 10.2321L10.6734 10.2857C10.6579 10.3163 10.6425 10.3393 10.627 10.3622C10.6038 10.4005 10.5961 10.4235 10.5807 10.4464L10.5575 10.4694C10.5112 10.523 10.4803 10.5536 10.4494 10.5842C10.3104 10.7066 10.1095 10.8291 9.83922 10.8291L1.7527 10.9286Z" fill="#7056CE"/>
</svg>
