<svg viewBox="0 0 24 24" fill="none" xmlns="http://www.w3.org/2000/svg">
  <path d="M9.5 18.2364C9.5 18.2364 9.5 17.5681 9.5 18.7891C9.5 20.0102 10.6193 21 12 21C13.3807 21 14.5 20.0102 14.5 18.7891V18.2364" stroke="currentcolor" stroke-width="1.5"/>
  <path d="M13.4788 4.85663H12.7288V5.4371L13.2907 5.58267L13.4788 4.85663ZM17.8807 15.0458H17.1307V15.6297L17.6968 15.7729L17.8807 15.0458ZM18.9739 15.3224L18.79 16.0495H18.79L18.9739 15.3224ZM5.02573 15.3221L4.84146 14.5951H4.84146L5.02573 15.3221ZM6.11865 15.0451L6.30291 15.7721L6.86865 15.6287V15.0451H6.11865ZM10.5383 4.85208L10.7241 5.5787L11.2883 5.43442V4.85208H10.5383ZM12.0085 2.25C10.7823 2.25 9.78828 3.24405 9.78828 4.47026H11.2883C11.2883 4.07247 11.6107 3.75 12.0085 3.75V2.25ZM14.2288 4.47026C14.2288 3.24404 13.2347 2.25 12.0085 2.25V3.75C12.4063 3.75 12.7288 4.07247 12.7288 4.47026H14.2288ZM14.2288 4.85663V4.47026H12.7288V4.85663H14.2288ZM18.6307 10.5501C18.6307 7.46287 16.5216 4.87013 13.6669 4.1306L13.2907 5.58267C15.5 6.15499 17.1307 8.16306 17.1307 10.5501H18.6307ZM18.6307 15.0458V10.5501H17.1307V15.0458H18.6307ZM17.6968 15.7729L18.79 16.0495L19.1579 14.5953L18.0647 14.3188L17.6968 15.7729ZM18.79 16.0495C19.0605 16.118 19.25 16.3614 19.25 16.6405H20.75C20.75 15.6747 20.0942 14.8322 19.1579 14.5953L18.79 16.0495ZM19.25 16.6405C19.25 16.9771 18.9771 17.25 18.6404 17.25V18.75C19.8055 18.75 20.75 17.8055 20.75 16.6405H19.25ZM18.6404 17.25H5.35981V18.75H18.6404V17.25ZM5.35981 17.25C5.02302 17.25 4.75 16.977 4.75 16.6402H3.25C3.25 17.8054 4.19459 18.75 5.35981 18.75V17.25ZM4.75 16.6402C4.75 16.3611 4.93946 16.1176 5.20999 16.0491L4.84146 14.5951C3.90549 14.8323 3.25 15.6746 3.25 16.6402H4.75ZM5.20999 16.0491L6.30291 15.7721L5.93439 14.3181L4.84146 14.5951L5.20999 16.0491ZM5.36865 10.5501V15.0451H6.86865V10.5501H5.36865ZM10.3525 4.12546C7.48755 4.85806 5.36865 7.45569 5.36865 10.5501H6.86865C6.86865 8.15749 8.50697 6.14564 10.7241 5.5787L10.3525 4.12546ZM9.78828 4.47026V4.85208H11.2883V4.47026H9.78828Z" fill="currentcolor"/>
</svg>
