<svg xmlns="http://www.w3.org/2000/svg" viewBox="0 0 24 24">
    <g fill="currentcolor" fill-rule="evenodd">
        <path fill-rule="nonzero" d="M17 15.2c-1.024 1.237-2.058 2.145-3.1 2.725a6.707 6.707 0 0 1-3.306.868c-1.396 0-2.486-.395-3.268-1.188-.782-.792-1.173-1.856-1.173-3.192 0-1.514.422-3.004 1.262-4.468a10.262 10.262 0 0 1 3.394-3.57C12.232 5.46 13.626 5 14.993 5c1.071 0 1.874.226 2.405.674.53.45.797 1.002.797 1.655 0 .614-.187 1.138-.561 1.573-.276.337-.614.506-1.018.506a1.04 1.04 0 0 1-.76-.297 1.001 1.001 0 0 1-.302-.743c0-.188.038-.36.112-.518.073-.158.226-.35.457-.572.23-.222.37-.384.421-.483a.687.687 0 0 0 .074-.311c0-.208-.095-.38-.28-.52-.285-.197-.687-.295-1.21-.295-.966 0-1.92.342-2.864 1.024-.945.682-1.751 1.653-2.42 2.908-.806 1.524-1.21 3.048-1.21 4.572 0 1.009.285 1.809.855 2.398.57.589 1.349.883 2.331.883.757 0 1.507-.19 2.25-.572.744-.38 1.577-1.07 2.5-2.07l.43.387z"/>
    </g>
</svg>
