<svg width="24" height="24" viewBox="0 0 24 24" fill="none" xmlns="http://www.w3.org/2000/svg">
<path fill-rule="evenodd" clip-rule="evenodd" d="M12.5472 11.8381L12.6687 13.2278L11.6725 13.3149L11.551 11.9252C11.4679 10.9756 12.1704 10.1383 13.1201 10.0552C14.0698 9.97214 14.907 10.6747 14.9901 11.6244L15.1117 13.0141L14.1155 13.1012L13.9939 11.7115C13.959 11.312 13.6068 11.0165 13.2072 11.0514C12.8077 11.0864 12.5122 11.4386 12.5472 11.8381Z" fill="currentcolor"/>
<path fill-rule="evenodd" clip-rule="evenodd" d="M15.0615 12.4387L15.1831 13.8284L14.1869 13.9156L14.0653 12.5259C13.9822 11.5762 14.6847 10.739 15.6344 10.6559C16.5841 10.5728 17.4214 11.2753 17.5044 12.225L17.626 13.6147L16.6298 13.7019L16.5083 12.3122C16.4733 11.9127 16.1211 11.6171 15.7216 11.6521C15.3221 11.687 15.0265 12.0392 15.0615 12.4387Z" fill="currentcolor"/>
<path fill-rule="evenodd" clip-rule="evenodd" d="M17.5754 13.0393L17.6969 14.429L16.7007 14.5162L16.5792 13.1265C16.4961 12.1768 17.1986 11.3396 18.1483 11.2565C19.098 11.1734 19.9352 11.8759 20.0183 12.8256L20.1399 14.2153L19.1437 14.3024L19.0221 12.9127C18.9872 12.5132 18.635 12.2177 18.2354 12.2527C17.8359 12.2876 17.5404 12.6398 17.5754 13.0393Z" fill="currentcolor"/>
<path fill-rule="evenodd" clip-rule="evenodd" d="M6.35553 15.2372C6.01456 15.6436 6.07109 16.2501 6.48126 16.5865L10.132 19.5801C11.2433 20.4914 12.6671 20.9315 14.0988 20.8063L15.1849 20.7112C17.6608 20.4946 19.4922 18.312 19.2756 15.8362L19.1193 14.0501L20.1155 13.9629L20.2718 15.749C20.5365 18.775 18.2981 21.4427 15.2721 21.7074L14.186 21.8025C12.494 21.9505 10.8113 21.4304 9.49791 20.3534L5.84717 17.3598C5.00652 16.6704 4.89067 15.4273 5.58948 14.5944C6.27292 13.78 7.48236 13.6619 8.31041 14.3288L9.3728 15.1845L8.69409 7.4268C8.61096 6.47666 9.31381 5.63903 10.264 5.5559C11.2141 5.47278 12.0517 6.17563 12.1348 7.12577L12.6575 13.0998L11.6613 13.187L11.1387 7.21292C11.1037 6.81297 10.7511 6.5171 10.3511 6.5521C9.95115 6.58709 9.65529 6.93968 9.69028 7.33964L10.369 15.0974C10.4458 15.9753 9.43185 16.5161 8.74553 15.9633L7.68313 15.1076C7.27911 14.7822 6.68899 14.8398 6.35553 15.2372Z" fill="currentcolor"/>
<path fill-rule="evenodd" clip-rule="evenodd" d="M4.82841 3.27243C5.01319 3.06722 5.32933 3.05065 5.53455 3.23542L6.92654 4.48878C7.13176 4.67356 7.14833 4.98971 6.96355 5.19492C6.77878 5.40014 6.46263 5.4167 6.25741 5.23193L4.86542 3.97857C4.6602 3.79379 4.64363 3.47765 4.82841 3.27243Z" fill="currentcolor"/>
<path fill-rule="evenodd" clip-rule="evenodd" d="M14.2196 2.02521C13.9906 1.8708 13.6799 1.9312 13.5255 2.16014L12.478 3.71302C12.3236 3.94195 12.384 4.25272 12.6129 4.40714C12.8419 4.56155 13.1526 4.50115 13.3071 4.27221L14.3545 2.71933C14.5089 2.4904 14.4485 2.17963 14.2196 2.02521Z" fill="currentcolor"/>
<path fill-rule="evenodd" clip-rule="evenodd" d="M9.26422 1.06474C9.5383 1.03108 9.78777 1.22599 9.82143 1.50008L10.0513 3.37212C10.0849 3.64621 9.89003 3.89568 9.61595 3.92933C9.34186 3.96299 9.09239 3.76808 9.05874 3.49399L8.82888 1.62194C8.79523 1.34786 8.99013 1.09839 9.26422 1.06474Z" fill="currentcolor"/>
</svg>
