<svg viewBox="0 0 24 24" fill="none" xmlns="http://www.w3.org/2000/svg">
    <path fill-rule="evenodd" clip-rule="evenodd" d="M3.5 5C3.5 4.17157 4.17157 3.5 5 3.5H14C14.8284 3.5 15.5 4.17157 15.5 5V14C15.5 14.8284 14.8284 15.5 14 15.5H5C4.17157 15.5 3.5 14.8284 3.5 14V5ZM5 4.5C4.72386 4.5 4.5 4.72386 4.5 5V14C4.5 14.2761 4.72386 14.5 5 14.5H14C14.2761 14.5 14.5 14.2761 14.5 14V5C14.5 4.72386 14.2761 4.5 14 4.5H5Z" fill="currentColor"/>
    <path fill-rule="evenodd" clip-rule="evenodd" d="M19 9.5L16.511 9.5V8.5H19C19.8284 8.5 20.5 9.17157 20.5 10V19C20.5 19.8284 19.8284 20.5 19 20.5H10C9.17157 20.5 8.5 19.8284 8.5 19V16.3094H9.5V19C9.5 19.2761 9.72386 19.5 10 19.5H19C19.2761 19.5 19.5 19.2761 19.5 19V10C19.5 9.72386 19.2761 9.5 19 9.5Z" fill="currentColor"/>
</svg>
