<svg width="24" height="24" viewBox="0 0 24 24" fill="none" xmlns="http://www.w3.org/2000/svg">
<path fill-rule="evenodd" clip-rule="evenodd" d="M12.3628 2.9502C16.5651 2.57125 20.186 5.68284 20.4519 9.89839C20.4693 10.174 20.2604 10.4175 19.9854 10.4423C19.7103 10.4671 19.4733 10.2638 19.4559 9.9882C19.2247 6.3224 16.0766 3.619 12.4258 3.94822C12.1507 3.97302 11.9137 3.76971 11.8963 3.49412C11.8789 3.21852 12.0878 2.975 12.3628 2.9502Z" fill="currentcolor"/>
<path fill-rule="evenodd" clip-rule="evenodd" d="M21.8778 8.23069C22.0668 8.42367 22.0614 8.73868 21.8658 8.93428L20.2827 10.5175C20.124 10.6761 19.8829 10.7113 19.6923 10.6037L17.7754 9.52045C17.5405 9.38771 17.4612 9.08506 17.5982 8.84448C17.7353 8.60389 18.0368 8.51647 18.2717 8.64921L19.8666 9.55039L21.1815 8.23544C21.3771 8.03983 21.6889 8.03771 21.8778 8.23069Z" fill="currentcolor"/>
<path fill-rule="evenodd" clip-rule="evenodd" d="M2.02368 14.085C2.02368 9.66668 5.6054 6.08496 10.0237 6.08496C10.5358 6.08496 11.037 6.13314 11.5231 6.22534C15.2247 6.9275 18.0237 10.1788 18.0237 14.085C18.0237 18.5032 14.442 22.085 10.0237 22.085C5.6054 22.085 2.02368 18.5032 2.02368 14.085ZM10.0237 7.08496C6.15769 7.08496 3.02368 10.219 3.02368 14.085C3.02368 17.951 6.15769 21.085 10.0237 21.085C13.8897 21.085 17.0237 17.951 17.0237 14.085C17.0237 10.6681 14.5751 7.82211 11.3367 7.20782C10.9118 7.12721 10.4729 7.08496 10.0237 7.08496Z" fill="currentcolor"/>
<path fill-rule="evenodd" clip-rule="evenodd" d="M9.52368 8.58496C9.79982 8.58496 10.0237 8.80882 10.0237 9.08496L10.0237 14.585C10.0237 14.8611 9.79982 15.085 9.52368 15.085C9.24754 15.085 9.02368 14.8611 9.02368 14.585L9.02368 9.08496C9.02368 8.80882 9.24754 8.58496 9.52368 8.58496Z" fill="currentcolor"/>
<path fill-rule="evenodd" clip-rule="evenodd" d="M15.2614 16.3392C15.1807 16.6033 14.9012 16.7519 14.6371 16.6712L14.0735 16.4989C13.8095 16.4182 13.6608 16.1386 13.7416 15.8746C13.8223 15.6105 14.1018 15.4619 14.3659 15.5426L14.9295 15.7149C15.1935 15.7956 15.3422 16.0752 15.2614 16.3392ZM13.1951 15.7075C13.1144 15.9716 12.8349 16.1202 12.5708 16.0395L11.4437 15.6949C11.1796 15.6141 11.031 15.3346 11.1117 15.0705C11.1925 14.8065 11.472 14.6578 11.7361 14.7386L12.8632 15.0832C13.1272 15.1639 13.2759 15.4434 13.1951 15.7075ZM10.5653 14.9035C10.4845 15.1676 10.205 15.3162 9.94094 15.2354L9.37741 15.0632C9.11333 14.9824 8.9647 14.7029 9.04544 14.4388C9.12618 14.1747 9.4057 14.0261 9.66978 14.1068L10.2333 14.2791C10.4974 14.3599 10.646 14.6394 10.5653 14.9035Z" fill="currentcolor"/>
</svg>
