<svg viewBox="0 0 24 24" fill="none" xmlns="http://www.w3.org/2000/svg">
    <path fill-rule="evenodd" clip-rule="evenodd" d="M3.5 12C3.5 11.1716 4.17157 10.5 5 10.5H7C7.82843 10.5 8.5 11.1716 8.5 12V20C8.5 20.8284 7.82843 21.5 7 21.5H5C4.17157 21.5 3.5 20.8284 3.5 20V12ZM5 11.5C4.72386 11.5 4.5 11.7239 4.5 12V20C4.5 20.2761 4.72386 20.5 5 20.5H7C7.27614 20.5 7.5 20.2761 7.5 20V12C7.5 11.7239 7.27614 11.5 7 11.5H5Z" fill="currentcolor"/>
    <path fill-rule="evenodd" clip-rule="evenodd" d="M9.5 16C9.5 15.1716 10.1716 14.5 11 14.5H13C13.8284 14.5 14.5 15.1716 14.5 16V20C14.5 20.8284 13.8284 21.5 13 21.5H11C10.1716 21.5 9.5 20.8284 9.5 20V16ZM11 15.5C10.7239 15.5 10.5 15.7239 10.5 16V20C10.5 20.2761 10.7239 20.5 11 20.5H13C13.2761 20.5 13.5 20.2761 13.5 20V16C13.5 15.7239 13.2761 15.5 13 15.5H11Z" fill="currentcolor"/>
    <path fill-rule="evenodd" clip-rule="evenodd" d="M15.5 5C15.5 4.17157 16.1716 3.5 17 3.5H19C19.8284 3.5 20.5 4.17157 20.5 5V20C20.5 20.8284 19.8284 21.5 19 21.5H17C16.1716 21.5 15.5 20.8284 15.5 20V5ZM17 4.5C16.7239 4.5 16.5 4.72386 16.5 5V20C16.5 20.2761 16.7239 20.5 17 20.5H19C19.2761 20.5 19.5 20.2761 19.5 20V5C19.5 4.72386 19.2761 4.5 19 4.5H17Z" fill="currentcolor"/>
    <path fill-rule="evenodd" clip-rule="evenodd" d="M9.59998 8.3C8.29998 6.56667 5.69998 6.56667 4.39998 8.3L3.59998 7.7C5.29998 5.43333 8.69998 5.43333 10.4 7.7L11.2366 8.81556C12.2911 10.2215 14.2603 10.5589 15.7226 9.58397L16.2773 10.416C14.3734 11.6853 11.8096 11.2461 10.4366 9.41556L9.59998 8.3Z" fill="currentcolor"/>
</svg>
