<svg viewBox="0 0 24 24" fill="none" xmlns="http://www.w3.org/2000/svg">
    <path fill-rule="evenodd" clip-rule="evenodd" d="M7.5 4.5625C7.5 3.9757 7.9757 3.5 8.5625 3.5H15.4375C16.0243 3.5 16.5 3.9757 16.5 4.5625V5V6.4375V8.06248C16.5 10.5234 14.4405 12.5 12 12.5C9.55952 12.5 7.5 10.5234 7.5 8.06249V6.4375V5V4.5625ZM15.5 4.5625V5V6.4375C15.5 6.47202 15.472 6.5 15.4375 6.5H8.5625C8.52798 6.5 8.5 6.47202 8.5 6.4375V5V4.5625C8.5 4.52798 8.52798 4.5 8.5625 4.5H15.4375C15.472 4.5 15.5 4.52798 15.5 4.5625ZM15.4375 7.5C15.4585 7.5 15.4793 7.49939 15.5 7.49819V8.06248C15.5 9.9508 13.9088 11.5 12 11.5C10.0912 11.5 8.5 9.95081 8.5 8.06249V7.49819C8.52068 7.49939 8.54152 7.5 8.5625 7.5H15.4375ZM9.24988 18C9.24988 17.7239 9.47374 17.5 9.74988 17.5H11.5V16C11.5 15.7239 11.7239 15.5 12 15.5C12.2761 15.5 12.5 15.7239 12.5 16V17.5H14.2499C14.526 17.5 14.7499 17.7239 14.7499 18C14.7499 18.2761 14.526 18.5 14.2499 18.5H12.5V20C12.5 20.2761 12.2761 20.5 12 20.5C11.7239 20.5 11.5 20.2761 11.5 20V18.5H9.74988C9.47374 18.5 9.24988 18.2761 9.24988 18ZM4.5 18.8558C4.5 16.4501 6.45014 14.5 8.85577 14.5H15.1442C17.5499 14.5 19.5 16.4501 19.5 18.8558V20C19.5 20.2761 19.7239 20.5 20 20.5C20.2761 20.5 20.5 20.2761 20.5 20V18.8558C20.5 15.8979 18.1021 13.5 15.1442 13.5H8.85577C5.89786 13.5 3.5 15.8979 3.5 18.8558V20C3.5 20.2761 3.72386 20.5 4 20.5C4.27614 20.5 4.5 20.2761 4.5 20V18.8558Z" fill="currentcolor"/>
</svg>
