<svg xmlns="http://www.w3.org/2000/svg" viewBox="0 0 40 40">
    <g fill="none" fill-rule="evenodd" stroke="currentcolor" stroke-linecap="round" stroke-linejoin="round" stroke-width="2">
        <path d="M27 8V12C27 15.866 23.866 19 20 19C16.134 19 13 15.866 13 12V8" stroke="currentcolor" stroke-width="2" stroke-linecap="round" stroke-linejoin="round"/>
        <path d="M16 32L24 32" stroke="currentcolor" stroke-width="2" stroke-linecap="round" stroke-linejoin="round"/>
        <path d="M20 28L20 36" stroke="currentcolor" stroke-width="2" stroke-linecap="round" stroke-linejoin="round"/>
        <rect x="13" y="4" width="14" height="6" rx="1" stroke="currentcolor" stroke-width="2"/>
        <path stroke="currentcolor" d="M33 36C33 36.5523 33.4477 37 34 37C34.5523 37 35 36.5523 35 36H33ZM5 36C5 36.5523 5.44772 37 6 37C6.55228 37 7 36.5523 7 36H5ZM33 33V36H35V33H33ZM7 36V33H5V36H7ZM16 24H20V22H16V24ZM20 24H24V22H20V24ZM35 33C35 26.9249 30.0751 22 24 22V24C28.9706 24 33 28.0294 33 33H35ZM7 33C7 28.0294 11.0294 24 16 24V22C9.92487 22 5 26.9249 5 33H7Z"/>
    </g>
</svg>
