<svg width="32" height="32" viewBox="0 0 32 32" fill="none" xmlns="http://www.w3.org/2000/svg">
<path fill-rule="evenodd" clip-rule="evenodd" d="M22.6897 13.7407C22.9501 13.4803 23.3722 13.4803 23.6325 13.7407L26.2816 16.3897C26.5419 16.6501 26.5419 17.0722 26.2816 17.3325C26.0212 17.5929 25.5991 17.5929 25.3387 17.3325L22.6897 14.6835C22.4294 14.4232 22.4294 14.001 22.6897 13.7407Z" fill="currentcolor"/>
<path fill-rule="evenodd" clip-rule="evenodd" d="M23.5664 12.8639C24.5263 11.904 26.1141 11.7983 27.169 12.8532C28.2307 13.9149 28.0797 15.5343 27.1582 16.4557L19.1056 24.5084C19.0324 24.5815 18.9433 24.6366 18.8452 24.6694L14.8688 25.9968C14.6292 26.0768 14.3649 26.0145 14.1863 25.8358C14.0077 25.6572 13.9453 25.393 14.0253 25.1533L15.3528 21.1769C15.3855 21.0788 15.4406 20.9897 15.5137 20.9166L23.5664 12.8639ZM26.2262 13.796C25.7285 13.2983 24.9857 13.3302 24.5092 13.8067L16.5677 21.7482L15.7127 24.3094L18.2739 23.4544L26.2154 15.5129C26.6679 15.0604 26.7169 14.2867 26.2262 13.796Z" fill="currentcolor"/>
<rect x="4" y="8" width="20" height="1.33333" rx="0.666667" fill="currentcolor"/>
<rect x="4" y="12" width="12" height="1.33333" rx="0.666667" fill="currentcolor"/>
<rect x="4" y="4" width="20" height="1.33333" rx="0.666667" fill="currentcolor"/>
<path fill-rule="evenodd" clip-rule="evenodd" d="M11.9617 25.8911C11.5004 27.0443 9.85162 26.9959 9.45884 25.8175L9.33348 25.4415L9.26506 25.6467C8.85986 26.8623 7.14043 26.8623 6.73524 25.6467L6.54332 25.071L5.92977 26.2981C5.76511 26.6274 5.36466 26.7609 5.03534 26.5962C4.70602 26.4316 4.57254 26.0311 4.7372 25.7018L5.35075 24.4747C5.88198 23.4122 7.43259 23.5224 7.80823 24.6493L8.00015 25.2251L8.06857 25.0198C8.47377 23.8042 10.1932 23.8042 10.5984 25.0198L10.7237 25.3959L11.3812 23.7524C11.5179 23.4105 11.9059 23.2442 12.2477 23.381C12.5896 23.5177 12.7559 23.9057 12.6191 24.2475L11.9617 25.8911Z" fill="currentcolor"/>
</svg>
