<svg viewBox="0 0 24 24" fill="none" xmlns="http://www.w3.org/2000/svg">
    <path fill="currentcolor" d="M20.8233 11.334L21.1667 10.9706L20.8233 11.334ZM20.8233 12.666L21.1667 13.0294L20.8233 12.666ZM3.52016 11.6974C4.28356 10.9759 5.62785 9.79044 7.18545 8.7884C8.75806 7.77671 10.4754 7 12 7V6C10.1795 6 8.25986 6.90816 6.64442 7.9474C5.01399 8.99629 3.61918 10.2278 2.83329 10.9706L3.52016 11.6974ZM12 7C13.5246 7 15.2419 7.77671 16.8145 8.7884C18.3722 9.79044 19.7164 10.9759 20.4798 11.6974L21.1667 10.9706C20.3808 10.2278 18.986 8.99629 17.3556 7.9474C15.7401 6.90816 13.8205 6 12 6V7ZM2.83329 13.0294C3.61918 13.7722 5.01399 15.0037 6.64442 16.0526C8.25986 17.0918 10.1795 18 12 18V17C10.4754 17 8.75806 16.2233 7.18545 15.2116C5.62785 14.2096 4.28356 13.0241 3.52016 12.3026L2.83329 13.0294ZM12 18C13.8205 18 15.7401 17.0918 17.3556 16.0526C18.986 15.0037 20.3808 13.7722 21.1667 13.0294L20.4798 12.3026C19.7164 13.0241 18.3722 14.2096 16.8145 15.2116C15.2419 16.2233 13.5246 17 12 17V18ZM20.4798 11.6974C20.6581 11.8658 20.6581 12.1342 20.4798 12.3026L21.1667 13.0294C21.7624 12.4664 21.7624 11.5336 21.1667 10.9706L20.4798 11.6974ZM2.83329 10.9706C2.23755 11.5336 2.23755 12.4664 2.83329 13.0294L3.52016 12.3026C3.34193 12.1342 3.34193 11.8658 3.52016 11.6974L2.83329 10.9706Z"/>
    <circle stroke="currentcolor" cx="12" cy="12" r="2.5"/>
</svg>
