<svg width="24" height="24" viewBox="0 0 24 24" fill="none" xmlns="http://www.w3.org/2000/svg">
<path d="M19 8.5H12M5 8.5H8" stroke="currentcolor" stroke-width="1.5" stroke-linecap="round" stroke-linejoin="round"/>
<path d="M19 15.5H16M5 15.5H12.5" stroke="currentcolor" stroke-width="1.5" stroke-linecap="round" stroke-linejoin="round"/>
<path d="M11.5 8.5C11.5 9.4665 10.7165 10.25 9.75 10.25C8.7835 10.25 8 9.4665 8 8.5C8 7.5335 8.7835 6.75 9.75 6.75C10.7165 6.75 11.5 7.5335 11.5 8.5Z" stroke="currentcolor" stroke-width="1.5"/>
<path d="M16 15.5C16 16.4665 15.2165 17.25 14.25 17.25C13.2835 17.25 12.5 16.4665 12.5 15.5C12.5 14.5335 13.2835 13.75 14.25 13.75C15.2165 13.75 16 14.5335 16 15.5Z" stroke="currentcolor" stroke-width="1.5"/>
</svg>
