<svg viewBox="0 0 24 24" fill="none" xmlns="http://www.w3.org/2000/svg">
    <path fill-rule="evenodd" clip-rule="evenodd" d="M5 4.5C4.72386 4.5 4.5 4.72386 4.5 5V8.5C4.5 8.77614 4.72386 9 5 9H5.06301C5.28503 8.13739 6.06808 7.5 7 7.5C7.93192 7.5 8.71497 8.13739 8.93699 9H11C11.021 9 11.0417 9.0013 11.062 9.00381C11.2827 8.13926 12.0667 7.5 13 7.5C13.9319 7.5 14.715 8.13739 14.937 9H15C15.2761 9 15.5 8.77614 15.5 8.5V7H13C12.1716 7 11.5 6.32843 11.5 5.5V4.5H5ZM7 11.5C7.93192 11.5 8.71497 10.8626 8.93699 10H11C11.021 10 11.0417 9.9987 11.062 9.99619C11.2827 10.8607 12.0667 11.5 13 11.5C13.9319 11.5 14.715 10.8626 14.937 10H15C15.8284 10 16.5 9.32843 16.5 8.5V6.44751C16.5 6.1099 16.3861 5.78215 16.1767 5.5173L15.3328 4.44965C14.8586 3.84986 14.1361 3.5 13.3715 3.5H5C4.17157 3.5 3.5 4.17157 3.5 5V8.5C3.5 9.32843 4.17157 10 5 10H5.06301C5.28503 10.8626 6.06808 11.5 7 11.5ZM7 8.5C7.55228 8.5 8 8.94772 8 9.5C8 10.0523 7.55228 10.5 7 10.5C6.44772 10.5 6 10.0523 6 9.5C6 8.94772 6.44772 8.5 7 8.5ZM12.5 5.5C12.5 5.77614 12.7239 6 13 6H15.2836L14.5483 5.06979C14.2638 4.70991 13.8303 4.5 13.3715 4.5H12.5V5.5ZM12 9.5C12 8.94772 12.4477 8.5 13 8.5C13.5523 8.5 14 8.94772 14 9.5C14 10.0523 13.5523 10.5 13 10.5C12.4477 10.5 12 10.0523 12 9.5ZM9.06301 19H9C8.17157 19 7.5 18.3284 7.5 17.5V14C7.5 13.1716 8.17157 12.5 9 12.5H17.3715C18.1361 12.5 18.8586 12.8499 19.3328 13.4496L20.1767 14.5173C20.3861 14.7822 20.5 15.1099 20.5 15.4475V17.5C20.5 18.3284 19.8284 19 19 19H18.937C18.715 19.8626 17.9319 20.5 17 20.5C16.0667 20.5 15.2827 19.8607 15.062 18.9962C15.0417 18.9987 15.021 19 15 19H12.937C12.715 19.8626 11.9319 20.5 11 20.5C10.0681 20.5 9.28503 19.8626 9.06301 19ZM12.937 18C12.715 17.1374 11.9319 16.5 11 16.5C10.0681 16.5 9.28503 17.1374 9.06301 18H9C8.72386 18 8.5 17.7761 8.5 17.5V14C8.5 13.7239 8.72386 13.5 9 13.5H15.5V14.5C15.5 15.3284 16.1716 16 17 16H19.5V17.5C19.5 17.7761 19.2761 18 19 18H18.937C18.715 17.1374 17.9319 16.5 17 16.5C16.0667 16.5 15.2827 17.1393 15.062 18.0038C15.0417 18.0013 15.021 18 15 18H12.937ZM12 18.5C12 17.9477 11.5523 17.5 11 17.5C10.4477 17.5 10 17.9477 10 18.5C10 19.0523 10.4477 19.5 11 19.5C11.5523 19.5 12 19.0523 12 18.5ZM18.5483 14.0698L19.2836 15H17C16.7239 15 16.5 14.7761 16.5 14.5V13.5H17.3715C17.8303 13.5 18.2638 13.7099 18.5483 14.0698ZM17 17.5C16.4477 17.5 16 17.9477 16 18.5C16 19.0523 16.4477 19.5 17 19.5C17.5523 19.5 18 19.0523 18 18.5C18 17.9477 17.5523 17.5 17 17.5Z" fill="currentcolor"/>
</svg>
