<svg viewBox="0 0 24 24" fill="none" xmlns="http://www.w3.org/2000/svg">
    <path fill-rule="evenodd" clip-rule="evenodd" d="M2.5 12C2.5 6.75329 6.75329 2.5 12 2.5C17.2467 2.5 21.5 6.75329 21.5 12C21.5 17.2467 17.2467 21.5 12 21.5C6.75329 21.5 2.5 17.2467 2.5 12ZM12 3.5C7.30558 3.5 3.5 7.30558 3.5 12C3.5 16.6944 7.30558 20.5 12 20.5C16.6944 20.5 20.5 16.6944 20.5 12C20.5 7.30558 16.6944 3.5 12 3.5Z" fill="currentcolor"/>
    <path fill-rule="evenodd" clip-rule="evenodd" d="M12 9.5C12.5523 9.5 13 9.05228 13 8.5C13 7.94772 12.5523 7.5 12 7.5C11.4477 7.5 11 7.94772 11 8.5C11 9.05228 11.4477 9.5 12 9.5Z" fill="currentcolor"/>
    <path fill-rule="evenodd" clip-rule="evenodd" d="M12 11C12.2761 11 12.5 11.2239 12.5 11.5V16.5C12.5 16.7761 12.2761 17 12 17C11.7239 17 11.5 16.7761 11.5 16.5V11.5C11.5 11.2239 11.7239 11 12 11Z" fill="currentcolor"/>
</svg>
