<svg width="24" height="24" viewBox="0 0 24 24" fill="none" xmlns="http://www.w3.org/2000/svg">
    <path fill-rule="evenodd" clip-rule="evenodd" d="M7 9C8.65685 9 10 7.65685 10 6C10 4.34315 8.65685 3 7 3C5.34315 3 4 4.34315 4 6C4 7.65685 5.34315 9 7 9Z" stroke="currentcolor" stroke-linecap="round" stroke-linejoin="round"/>
    <path d="M3 18L3 13.3333C3 12.0447 4.02335 11 5.28571 11H8.5" stroke="currentcolor" stroke-linecap="round" stroke-linejoin="round"/>
    <path d="M18.5139 16L13.5139 16" stroke="currentcolor" stroke-linecap="round"/>
    <path d="M17 18.5H13.5139" stroke="currentcolor" stroke-linecap="round"/>
    <path d="M18.5139 13.5L13.5139 13.5" stroke="currentcolor" stroke-linecap="round"/>
    <path d="M12 21L20 21C20.5523 21 21 20.5523 21 20L21 12C21 11.4477 20.5523 11 20 11L12 11C11.4477 11 11 11.4477 11 12L11 20C11 20.5523 11.4477 21 12 21Z" stroke="currentcolor" stroke-miterlimit="4.2899" stroke-linecap="round"/>
</svg>
