<svg xmlns="http://www.w3.org/2000/svg" viewBox="0 0 40 40">
    <g fill="none" fill-rule="evenodd" stroke="currentcolor" stroke-width="2">
        <path stroke-linecap="round" stroke-linejoin="round" d="M0 29V3c0-1.657 1.343-3 3-3h20.57c.266 0 .52.106.708.294L32 8.046h0V29c0 1.657-1.343 3-3 3H3c-1.657 0-3-1.343-3-3z" transform="translate(4 4)"/>
        <path d="M24 .417v6.592c0 .552.448 1 1 1h7" transform="translate(4 4)"/>
        <path stroke-linecap="round" stroke-linejoin="round" d="M7.29 17h8-8zM7.29 21h8-8z" transform="translate(4 4)"/>
        <path stroke-linecap="round" d="M21.255 14.066C19.987 12.79 18.23 12 16.289 12c-3.866 0-7 3.134-7 7s3.134 7 7 7c.945 0 1.846-.187 2.669-.527.8-.33 1.527-.805 2.146-1.392" transform="translate(4 4)"/>
    </g>
</svg>
