<svg viewBox="0 0 24 24" fill="none" xmlns="http://www.w3.org/2000/svg">
    <path fill-rule="evenodd" clip-rule="evenodd" d="M15.5 5.20713L18.7929 8.5H17C16.1716 8.5 15.5 7.82842 15.5 6.99999L15.5 5.20713ZM15 3.5H14.9999H6C4.61929 3.5 3.5 4.61929 3.5 6V18C3.5 19.3807 4.61929 20.5 6 20.5H18C19.3807 20.5 20.5 19.3807 20.5 18V9C20.5 8.93221 20.4865 8.86756 20.4621 8.80861C20.4377 8.74964 20.4015 8.69439 20.3536 8.64645L15.3567 3.64964L15.3536 3.64645L14.9999 3.5L15.3282 3.62281C15.2361 3.54249 15.1216 3.50157 15.0067 3.50004L15 3.5ZM4.5 6C4.5 5.17157 5.17157 4.5 6 4.5H14.5L14.5 6.99999C14.5 8.3807 15.6193 9.5 17 9.5H19.5V18C19.5 18.8284 18.8284 19.5 18 19.5H6C5.17157 19.5 4.5 18.8284 4.5 18V6ZM6.5 12.5C6.5 12.2239 6.72386 12 7 12H7.79076C8.38415 10.5341 9.82131 9.5 11.5 9.5C12.6191 9.5 13.6317 9.96027 14.3571 10.7006C14.5504 10.8978 14.5472 11.2144 14.3499 11.4076C14.1527 11.6009 13.8362 11.5977 13.6429 11.4005C13.0978 10.8442 12.3395 10.5 11.5 10.5C10.3896 10.5 9.42006 11.1033 8.90135 12H11C11.2761 12 11.5 12.2239 11.5 12.5C11.5 12.7761 11.2761 13 11 13H8.54148C8.5142 13.1626 8.5 13.3296 8.5 13.5C8.5 13.6704 8.5142 13.8374 8.54148 14H11C11.2761 14 11.5 14.2239 11.5 14.5C11.5 14.7761 11.2761 15 11 15H8.90135C9.42006 15.8967 10.3896 16.5 11.5 16.5C12.3395 16.5 13.0978 16.1558 13.6429 15.5995C13.8362 15.4023 14.1527 15.3991 14.3499 15.5924C14.5472 15.7856 14.5504 16.1022 14.3571 16.2994C13.6317 17.0397 12.6191 17.5 11.5 17.5C9.82131 17.5 8.38415 16.4659 7.79076 15H7C6.72386 15 6.5 14.7761 6.5 14.5C6.5 14.2239 6.72386 14 7 14H7.53095C7.51052 13.8362 7.5 13.6693 7.5 13.5C7.5 13.3307 7.51052 13.1638 7.53095 13H7C6.72386 13 6.5 12.7761 6.5 12.5Z" fill="currentcolor"/>
</svg>
