<svg width="24" height="24" viewBox="0 0 24 24" fill="none" xmlns="http://www.w3.org/2000/svg">
<path d="M6.81216 13.889L14.5463 1.57716C14.6911 1.34662 15.0479 1.48086 15.0049 1.74969L13.5975 10.5354C13.5414 10.8858 13.8579 11.1815 14.2037 11.1017L16.885 10.4826C17.1041 10.432 17.2734 10.6738 17.1509 10.8624L9.65958 22.3958C9.50995 22.6262 9.15222 22.4818 9.20449 22.2121L10.7658 14.1577C10.8344 13.8038 10.5175 13.4959 10.1657 13.5746L7.07848 14.266C6.86164 14.3145 6.69395 14.0772 6.81216 13.889Z" fill="currentcolor"/>
<path fill-rule="evenodd" clip-rule="evenodd" d="M14.3176 2.88208L7.55522 13.647L10.057 13.0868C10.7604 12.9293 11.3944 13.5452 11.2572 14.2529L9.94025 21.0467L16.395 11.1091L14.3167 11.589C13.6252 11.7486 12.9921 11.1572 13.1043 10.4564L14.3176 2.88208ZM16.998 10.9699C16.9979 10.9699 16.9978 10.97 16.9976 10.97L16.998 10.9699ZM14.1234 1.31129C14.5579 0.619665 15.6283 1.02237 15.4991 1.82887L14.0917 10.6146L16.7731 9.99555C17.4303 9.8438 17.9382 10.5692 17.5707 11.1349L10.0794 22.6683C9.63052 23.3594 8.55731 22.9261 8.71415 22.117L10.2755 14.0626L7.18826 14.754C6.53772 14.8997 6.03466 14.1877 6.38928 13.6232L6.80986 13.8874L6.38928 13.6232L14.1234 1.31129Z" fill="currentcolor"/>
</svg>
