<svg viewBox="0 0 24 24" fill="none" xmlns="http://www.w3.org/2000/svg">
    <path fill-rule="evenodd" clip-rule="evenodd" d="M8.00015 4.50012C7.72399 4.5001 7.5001 4.72396 7.5001 5.00012V19.4999H8.99998V18.0001C8.99998 17.1716 9.67158 16.5 10.5 16.5001L13.5 16.5002C14.3284 16.5002 14.9999 17.1717 14.9999 18.0001L14.9999 19.4999H16.5V13L16.5 12.9944L16.5 5.00083C16.5 4.72471 16.2761 4.50086 16 4.50084L8.00015 4.50012ZM9.99998 19.4999H13.9999L13.9999 18.0002C13.9999 17.724 13.7761 17.5002 13.4999 17.5002L10.5 17.5001C10.2238 17.5001 9.99998 17.7239 9.99998 18.0001V19.4999ZM7.00736 20.4999H9.489L9.49998 20.5H14.4999L14.5108 20.4999H16.9926L17 20.4999H19C19.8284 20.4999 20.5 19.8284 20.5 18.9999L20.4999 15.0001C20.4999 13.6195 19.3809 12.5003 18.0003 12.5001L17.5 12.5001L17.5 5.00083C17.5 4.17246 16.8285 3.50091 16.0001 3.50084L8.00023 3.50012C7.17176 3.50005 6.5001 4.17164 6.5001 5.00012V12.5001L5.99969 12.5001C4.6191 12.5003 3.50001 13.6195 3.50001 15.0001L3.5 18.9999C3.5 19.8284 4.17157 20.4999 5 20.4999H6.99998L7.00736 20.4999ZM19 19.4999H17.5L17.5 13.5001L18.0001 13.5001C18.8285 13.5002 19.4999 14.1718 19.4999 15.0001L19.5 18.9999C19.5 19.2761 19.2761 19.4999 19 19.4999ZM6.49998 19.4999V13.5001L5.99982 13.5001C5.17147 13.5002 4.50001 14.1718 4.50001 15.0001L4.5 18.9999C4.5 19.2761 4.72386 19.4999 5 19.4999H6.49998ZM8.99998 14C8.72384 14 8.49998 14.2239 8.49998 14.5C8.49998 14.7761 8.72384 15 8.99998 15H9.49998C9.77612 15 9.99998 14.7761 9.99998 14.5C9.99998 14.2239 9.77612 14 9.49998 14H8.99998ZM8.49998 12.5001C8.49998 12.2239 8.72384 12.0001 8.99998 12.0001H9.49998C9.77612 12.0001 9.99998 12.2239 9.99998 12.5001C9.99998 12.7762 9.77612 13.0001 9.49998 13.0001H8.99998C8.72384 13.0001 8.49998 12.7762 8.49998 12.5001ZM8.99998 10.0001C8.72384 10.0001 8.49998 10.2239 8.49998 10.5001C8.49998 10.7762 8.72384 11.0001 8.99998 11.0001H9.49998C9.77612 11.0001 9.99998 10.7762 9.99998 10.5001C9.99998 10.2239 9.77612 10.0001 9.49998 10.0001H8.99998ZM8.49998 8.5C8.49998 8.22386 8.72384 8 8.99998 8H9.49998C9.77612 8 9.99998 8.22386 9.99998 8.5C9.99998 8.77614 9.77612 9 9.49998 9H8.99998C8.72384 9 8.49998 8.77614 8.49998 8.5ZM8.99998 6.00006C8.72384 6.00006 8.49998 6.22392 8.49998 6.50006C8.49998 6.7762 8.72384 7.00006 8.99998 7.00006H9.49998C9.77612 7.00006 9.99998 6.7762 9.99998 6.50006C9.99998 6.22392 9.77612 6.00006 9.49998 6.00006H8.99998ZM14 14.5C14 14.2239 14.2238 14 14.5 14H15C15.2761 14 15.5 14.2239 15.5 14.5C15.5 14.7761 15.2761 15 15 15H14.5C14.2238 15 14 14.7761 14 14.5ZM14.5 12.0001C14.2238 12.0001 14 12.2239 14 12.5001C14 12.7762 14.2238 13.0001 14.5 13.0001H15C15.2761 13.0001 15.5 12.7762 15.5 12.5001C15.5 12.2239 15.2761 12.0001 15 12.0001H14.5ZM14 8.5C14 8.22386 14.2238 8 14.5 8H15C15.2761 8 15.5 8.22386 15.5 8.5C15.5 8.77614 15.2761 9 15 9H14.5C14.2238 9 14 8.77614 14 8.5ZM14.5 6.00006C14.2238 6.00006 14 6.22392 14 6.50006C14 6.7762 14.2238 7.00006 14.5 7.00006H15C15.2761 7.00006 15.5 6.7762 15.5 6.50006C15.5 6.22392 15.2761 6.00006 15 6.00006H14.5ZM11.25 14.5C11.25 14.2239 11.4738 14 11.75 14H12.25C12.5261 14 12.75 14.2239 12.75 14.5C12.75 14.7761 12.5261 15 12.25 15H11.75C11.4738 15 11.25 14.7761 11.25 14.5ZM11.75 12.0001C11.4738 12.0001 11.25 12.2239 11.25 12.5001C11.25 12.7762 11.4738 13.0001 11.75 13.0001H12.25C12.5261 13.0001 12.75 12.7762 12.75 12.5001C12.75 12.2239 12.5261 12.0001 12.25 12.0001H11.75ZM11.25 10.5001C11.25 10.2239 11.4738 10.0001 11.75 10.0001H12.25C12.5261 10.0001 12.75 10.2239 12.75 10.5001C12.75 10.7762 12.5261 11.0001 12.25 11.0001H11.75C11.4738 11.0001 11.25 10.7762 11.25 10.5001ZM11.75 8C11.4738 8 11.25 8.22386 11.25 8.5C11.25 8.77614 11.4738 9 11.75 9H12.25C12.5261 9 12.75 8.77614 12.75 8.5C12.75 8.22386 12.5261 8 12.25 8H11.75ZM11.25 6.50006C11.25 6.22392 11.4738 6.00006 11.75 6.00006H12.25C12.5261 6.00006 12.75 6.22392 12.75 6.50006C12.75 6.7762 12.5261 7.00006 12.25 7.00006H11.75C11.4738 7.00006 11.25 6.7762 11.25 6.50006ZM14.5 10.0001C14.2238 10.0001 14 10.2239 14 10.5001C14 10.7762 14.2238 11.0001 14.5 11.0001H15C15.2761 11.0001 15.5 10.7762 15.5 10.5001C15.5 10.2239 15.2761 10.0001 15 10.0001H14.5Z" fill="currentcolor"/>
</svg>
