<svg viewBox="0 0 24 24" fill="none" xmlns="http://www.w3.org/2000/svg">
    <path fill-rule="evenodd" clip-rule="evenodd" d="M5.5 5C5.5 3.61929 6.61929 2.5 8 2.5C9.38071 2.5 10.5 3.61929 10.5 5C10.5 6.38071 9.38071 7.5 8 7.5C6.61929 7.5 5.5 6.38071 5.5 5ZM8 3.5C7.17157 3.5 6.5 4.17157 6.5 5C6.5 5.82843 7.17157 6.5 8 6.5C8.82843 6.5 9.5 5.82843 9.5 5C9.5 4.17157 8.82843 3.5 8 3.5ZM15 6.50006C14.7239 6.50005 14.5 6.72391 14.5 7.00006V10.9999C14.5 11.2761 14.7239 11.4999 15 11.4999H19C19.2761 11.4999 19.5 11.2761 19.5 10.9999L19.4999 7.00028C19.4999 6.72415 19.2761 6.5003 19 6.50028L15 6.50006ZM13.5 7.00006C13.5 6.1716 14.1716 5.50001 15.0001 5.50006L19 5.50028C19.8284 5.50033 20.4999 6.17188 20.4999 7.00027L20.5 10.9999C20.5 11.8284 19.8284 12.4999 19 12.4999H17.5V14.5357C19.1961 14.7783 20.4999 16.237 20.5 18.0002L20.5 20C20.5 20.2761 20.2762 20.5 20 20.5C19.7239 20.5 19.5 20.2761 19.5 20L19.5 18.0002C19.5 16.6195 18.3807 15.5003 17 15.5002L7.00017 15.5001C5.61944 15.5 4.50012 16.6193 4.50012 18.0001V20C4.50012 20.2761 4.27626 20.5 4.00012 20.5C3.72398 20.5 3.50012 20.2761 3.50012 20V19.0112L3.5 19V12.2264C3.5 10.1683 5.16835 8.5 7.22636 8.5H9.28323C9.77181 8.5 10.1985 8.83056 10.3206 9.30364L10.4844 9.9385C10.7216 10.8577 11.5507 11.5 12.5 11.5V12.5C11.0946 12.5 9.86728 11.5492 9.51612 10.1884L9.35229 9.55351C9.34416 9.52201 9.31576 9.5 9.28323 9.5H7.22636C5.72063 9.5 4.5 10.7206 4.5 12.2264V15.5507C5.13528 14.9023 6.02075 14.5 7.00018 14.5001L16.5 14.5002V12.4999H15C14.1716 12.4999 13.5 11.8284 13.5 10.9999V7.00006Z" fill="currentcolor"/>
</svg>
