<svg viewBox="0 0 24 24" fill="none" xmlns="http://www.w3.org/2000/svg">
    <path fill-rule="evenodd" clip-rule="evenodd" d="M12.0001 2.5C12.2763 2.5 12.5001 2.72386 12.5001 3V4.5C12.5001 4.77614 12.2763 5 12.0001 5C11.724 5 11.5001 4.77614 11.5001 4.5V3C11.5001 2.72386 11.724 2.5 12.0001 2.5ZM8.64647 3.64645C8.84174 3.45118 9.15832 3.45118 9.35358 3.64645L10.3536 4.64645C10.5488 4.84171 10.5488 5.15829 10.3536 5.35355C10.1583 5.54882 9.84174 5.54882 9.64647 5.35355L8.64647 4.35355C8.45121 4.15829 8.45121 3.84171 8.64647 3.64645ZM8.35214 7.49976C7.5683 7.49974 6.91661 8.10322 6.85651 8.88474L6.57478 12.5483C6.55372 12.8223 6.75199 13.0372 7.00641 13.0453C7.87208 13.073 9.41324 13.1035 12 13.1035C14.5868 13.1035 16.128 13.073 16.9937 13.0453C17.2481 13.0372 17.4464 12.8222 17.4253 12.5483L17.1435 8.8849C17.0834 8.10342 16.4318 7.49997 15.648 7.49994L8.35214 7.49976ZM5.85946 8.80807C5.95962 7.50553 7.04578 6.49972 8.35216 6.49976L10.6775 6.49982C10.7474 6.36152 10.8359 6.23545 10.9395 6.1254C11.2109 5.83704 11.5859 5.65869 12.0002 5.65869C12.5725 5.65869 13.0699 5.99919 13.3228 6.49988L15.648 6.49994C16.9543 6.49998 18.0404 7.50574 18.1406 8.8082L18.4224 12.4716C18.424 12.4932 18.4252 12.5147 18.426 12.5361C19.6037 12.7383 20.4999 13.7644 20.4999 14.9999V16.75C20.4999 17.4481 20.0912 18.0507 19.5 18.3315L19.5 18.9997C19.5 19.8281 18.8284 20.4997 18 20.4997H17C16.1716 20.4997 15.5 19.8281 15.5 18.9997V18.5H8.5L8.50001 18.9997C8.50002 19.8281 7.82844 20.4997 7.00001 20.4997H6.00003C5.1716 20.4997 4.50003 19.8281 4.50003 18.9997V18.3316C3.90881 18.0507 3.50005 17.4481 3.50004 16.75L3.5 15.0001C3.49997 13.7645 4.39627 12.7383 5.57415 12.5361C5.57488 12.5147 5.57607 12.4932 5.57773 12.4716L5.85946 8.80807ZM5.89204 13.5038C5.11399 13.5592 4.49998 14.2079 4.5 15.0001L4.50004 16.75C4.50004 17.1588 4.82714 17.4912 5.23389 17.4998L8.00003 17.5L8.00418 17.5H16H16.0001H18.7499C19.1641 17.5 19.4999 17.1642 19.4999 16.75V14.9999C19.4999 14.2078 18.886 13.5592 18.1081 13.5038C17.856 13.8204 17.4729 14.0305 17.0257 14.0448C16.1463 14.0729 14.594 14.1035 12 14.1035C9.40604 14.1035 7.85373 14.0729 6.97444 14.0448C6.52721 14.0305 6.14406 13.8204 5.89204 13.5038ZM5.50003 18.5V18.9997C5.50003 19.2758 5.72388 19.4997 6.00003 19.4997H7.00001C7.27615 19.4997 7.50001 19.2758 7.50001 18.9997L7.5 18.5H5.50003ZM16.5 18.9997V18.5L18.5 18.5001L18.5 18.9997C18.5 19.2758 18.2762 19.4997 18 19.4997H17C16.7239 19.4997 16.5 19.2758 16.5 18.9997ZM14.6465 3.64645C14.8417 3.45118 15.1583 3.45118 15.3536 3.64645C15.5488 3.84171 15.5488 4.15829 15.3536 4.35355L14.3536 5.35355C14.1583 5.54882 13.8417 5.54882 13.6465 5.35355C13.4512 5.15829 13.4512 4.84171 13.6465 4.64645L14.6465 3.64645ZM16.5 15C16.2239 15 16 15.2239 16 15.5C16 15.7761 16.2239 16 16.5 16H17.5C17.7762 16 18 15.7761 18 15.5C18 15.2239 17.7762 15 17.5 15H16.5ZM6.50003 15C6.22388 15 6.00003 15.2239 6.00003 15.5C6.00003 15.7761 6.22388 16 6.50003 16H7.50003C7.77617 16 8.00003 15.7761 8.00003 15.5C8.00003 15.2239 7.77617 15 7.50003 15H6.50003Z" fill="currentcolor"/>
</svg>
