<svg width="25" height="24" viewBox="0 0 25 24" fill="none" xmlns="http://www.w3.org/2000/svg">
<path fill-rule="evenodd" clip-rule="evenodd" d="M4.51172 8C4.51172 6.61929 5.63101 5.5 7.01172 5.5H13.0117C13.2879 5.5 13.5117 5.72386 13.5117 6C13.5117 6.27614 13.2879 6.5 13.0117 6.5H7.01172C6.18329 6.5 5.51172 7.17157 5.51172 8V17C5.51172 17.8284 6.18329 18.5 7.01172 18.5H16.0117C16.8401 18.5 17.5117 17.8284 17.5117 17V11C17.5117 10.7239 17.7356 10.5 18.0117 10.5C18.2879 10.5 18.5117 10.7239 18.5117 11V17C18.5117 18.3807 17.3924 19.5 16.0117 19.5H7.01172C5.63101 19.5 4.51172 18.3807 4.51172 17V8Z" fill="currentcolor"/>
<path fill-rule="evenodd" clip-rule="evenodd" d="M19.7813 4.21928C19.9765 4.41454 19.9765 4.73112 19.7813 4.92638L13.1659 11.5418C12.9706 11.737 12.6541 11.737 12.4588 11.5418C12.2635 11.3465 12.2635 11.0299 12.4588 10.8347L19.0742 4.21928C19.2694 4.02401 19.586 4.02401 19.7813 4.21928Z" fill="currentcolor"/>
<path fill-rule="evenodd" clip-rule="evenodd" d="M15.4202 3.85303C15.4202 3.57688 15.6441 3.35303 15.9202 3.35303L20.1476 3.35303C20.4237 3.35303 20.6476 3.57689 20.6476 3.85303L20.6476 8.08035C20.6476 8.35649 20.4237 8.58035 20.1476 8.58035C19.8714 8.58035 19.6476 8.35649 19.6476 8.08035L19.6476 4.35303L15.9202 4.35303C15.6441 4.35303 15.4202 4.12917 15.4202 3.85303Z" fill="currentcolor"/>
</svg>
