<svg viewBox="0 0 24 24" fill="none" xmlns="http://www.w3.org/2000/svg">
    <path fill-rule="evenodd" clip-rule="evenodd" d="M4.50012 6C4.50012 5.17157 5.1717 4.5 6.00012 4.5H18C18.8284 4.5 19.5 5.17157 19.5 5.99999L19.5 17.9999C19.5001 18.8283 18.8285 19.4999 18 19.4999H6.00012C5.17169 19.4999 4.50012 18.8283 4.50012 17.9999V6ZM6.00012 3.5C4.61941 3.5 3.50012 4.61929 3.50012 6V17.9999C3.50012 19.3806 4.61941 20.4999 6.00012 20.4999H18C19.3808 20.4999 20.5001 19.3806 20.5 17.9999L20.5 5.99998C20.5 4.61928 19.3807 3.5 18 3.5H6.00012ZM12.0001 8.00006C12.2763 8.00006 12.5001 8.22392 12.5001 8.50006V11.5H15.5C15.7762 11.5 16 11.7239 16 12C16 12.2761 15.7762 12.5 15.5 12.5H12.5001V15.5001C12.5001 15.7762 12.2763 16.0001 12.0001 16.0001C11.724 16.0001 11.5001 15.7762 11.5001 15.5001V12.5H8.5C8.22386 12.5 8 12.2761 8 12C8 11.7239 8.22386 11.5 8.5 11.5H11.5001V8.50006C11.5001 8.22392 11.724 8.00006 12.0001 8.00006Z" fill="currentcolor"/>
</svg>
