<svg xmlns="http://www.w3.org/2000/svg" width="24" height="25" viewBox="0 0 24 25">
    <path fill="none" fill-rule="evenodd" stroke="currentcolor" stroke-linecap="round" stroke-linejoin="round" d="M6.686 3.382L4.777 4.984c-1.474 1.237-1.666 3.434-.43 4.908l9.021 10.75c1.237 1.473 3.434 1.666 4.908.429l1.907-1.6c.421-.354.478-.98.128-1.404l-2.855-3.45c-.352-.426-.982-.485-1.407-.133l-.006.004-2.267 1.902h0l-5.271-6.297 2.266-1.9c.423-.356.478-.987.123-1.41l-.005-.006-2.8-3.278c-.356-.417-.982-.47-1.403-.117z"/>
</svg>
