<svg width="24" height="24" viewBox="0 0 24 24" fill="none" xmlns="http://www.w3.org/2000/svg">
<path fill-rule="evenodd" clip-rule="evenodd" d="M16.7502 16.5119C15.9167 16.5191 15.2372 15.8455 15.2372 15.012V12.5534L8.02519 12.5448V15.0039C8.02519 15.8364 7.34725 16.5096 6.51477 16.5038L2.03695 16.4728C1.21261 16.467 0.547363 15.7972 0.547363 14.9728V12.9992C0.547363 10.5139 2.56208 8.49922 5.04736 8.49922L18.0474 8.49922C20.5326 8.49922 22.5474 10.5139 22.5474 12.9992V14.9745C22.5474 15.7979 21.8837 16.4673 21.0604 16.4745L16.7502 16.5119ZM16.2372 15.012C16.2372 15.2898 16.4637 15.5144 16.7415 15.5119L21.0517 15.4745C21.3261 15.4721 21.5474 15.249 21.5474 14.9745V12.9992C21.5474 11.0662 19.9804 9.49922 18.0474 9.49922H5.04736C3.11437 9.49922 1.54736 11.0662 1.54736 12.9992V14.9728C1.54736 15.2476 1.76911 15.4709 2.04389 15.4728L6.52172 15.5039C6.79921 15.5058 7.02519 15.2814 7.02519 15.0039V12.0442C7.02519 11.9115 7.07795 11.7842 7.17185 11.6904C7.26575 11.5967 7.39308 11.544 7.52579 11.5442L15.7377 11.554C16.0137 11.5544 16.2372 11.7781 16.2372 12.054V15.012Z" fill="currentcolor"/>
</svg>
