<svg viewBox="0 0 24 24" fill="none" xmlns="http://www.w3.org/2000/svg">
  <path d="M11 10L11 8.29341C11 7.46499 11.6716 6.79341 12.5 6.79341V6.79341C13.3284 6.79341 14 7.46499 14 8.29341L14 10" stroke="currentcolor"/>
  <path d="M14 9L14 12.5C14 13.3284 13.3284 14 12.5 14V14C11.6716 14 11 13.3284 11 12.5L11 9" stroke="currentcolor"/>
  <path d="M17 9L17 12.5C17 13.3284 16.3284 14 15.5 14V14C14.6716 14 14 13.3284 14 12.5L14 9" stroke="currentcolor"/>
  <path d="M20 12L20 12.5C20 13.3284 19.3284 14 18.5 14V14C17.6716 14 17 13.3284 17 12.5L17 11" stroke="currentcolor"/>
  <path d="M14 11.2065L14 9.49996C14 8.67153 14.6716 7.99996 15.5 7.99996V7.99996C16.3284 7.99996 17 8.67153 17 9.49996L17 11.2065" stroke="currentcolor"/>
  <path d="M17 12.2065L17 10.5C17 9.67153 17.6716 8.99996 18.5 8.99996V8.99996C19.3284 8.99996 20 9.67153 20 10.5L20 12.2065" stroke="currentcolor"/>
  <path d="M5 14V14C5 13.0629 5.46835 12.1878 6.24808 11.6679L8 10.5L11 10.5L11 11C11 12.6569 9.65685 14 8 14V14" stroke="currentcolor"/>
  <path d="M19.9971 12.6899L19.9971 16C19.9971 18.7614 17.7585 21 14.9971 21L14.7759 21L11.5799 21C10.2662 21 8.9887 20.5688 7.94368 19.7726L7.27732 19.2649V19.2649C5.84229 18.1716 5 16.4709 5 14.6668L5 14M7.99802 10.5L7.99802 3.50652C7.99802 2.67755 8.67003 2.00553 9.49901 2.00553V2.00553C10.328 2.00553 11 2.67755 11 3.50652L11 10.8428" stroke="currentcolor"/>
</svg>
