<svg width="24" height="24" viewBox="0 0 24 24" fill="none" xmlns="http://www.w3.org/2000/svg">
    <path fill-rule="evenodd" clip-rule="evenodd" d="M15.666 2.83341H8.33268C6.8139 2.83341 5.58268 4.06463 5.58268 5.58341V7.87508H18.416V5.58341C18.416 4.06463 17.1848 2.83341 15.666 2.83341ZM8.33268 1.91675C6.30764 1.91675 4.66602 3.55837 4.66602 5.58341V8.79175H19.3327V5.58341C19.3327 3.55837 17.6911 1.91675 15.666 1.91675H8.33268Z" fill="currentcolor" />
    <path fill-rule="evenodd" clip-rule="evenodd" d="M15.666 21.1666H8.33268C6.8139 21.1666 5.58268 19.9354 5.58268 18.4166V14.7499H18.416V18.4166C18.416 19.9354 17.1848 21.1666 15.666 21.1666ZM8.33268 22.0833C6.30764 22.0833 4.66602 20.4416 4.66602 18.4166V14.7499C4.66602 14.2437 5.07642 13.8333 5.58268 13.8333H18.416C18.9223 13.8333 19.3327 14.2437 19.3327 14.7499V18.4166C19.3327 20.4416 17.6911 22.0833 15.666 22.0833H8.33268Z" fill="currentcolor" />
    <path fill-rule="evenodd" clip-rule="evenodd" d="M1.45898 10.1667C1.45898 8.90101 2.485 7.875 3.75065 7.875H20.2507C21.5163 7.875 22.5423 8.90101 22.5423 10.1667V14.75C22.5423 16.0157 21.5163 17.0417 20.2507 17.0417H18.4173V16.125H20.2507C21.01 16.125 21.6257 15.5094 21.6257 14.75V10.1667C21.6257 9.40728 21.01 8.79167 20.2507 8.79167H3.75065C2.99126 8.79167 2.37565 9.40728 2.37565 10.1667V14.75C2.37565 15.5094 2.99126 16.125 3.75065 16.125H5.58398V17.0417H3.75065C2.485 17.0417 1.45898 16.0157 1.45898 14.75V10.1667Z" fill="currentcolor" />
    <path d="M3.75 14.2916C3.75 14.0385 3.9552 13.8333 4.20833 13.8333H19.7917C20.0448 13.8333 20.25 14.0385 20.25 14.2916C20.25 14.5447 20.0448 14.7499 19.7917 14.7499H4.20833C3.9552 14.7499 3.75 14.5447 3.75 14.2916Z" fill="currentcolor" />
    <path d="M11.084 18.8751C11.084 18.622 11.2892 18.4167 11.5423 18.4167H16.1257C16.3788 18.4167 16.584 18.622 16.584 18.8751C16.584 19.1282 16.3788 19.3334 16.1257 19.3334H11.5423C11.2892 19.3334 11.084 19.1282 11.084 18.8751Z" fill="currentcolor" />
    <path d="M17.5 10.6251C17.5 10.372 17.7052 10.1667 17.9583 10.1667H18.875C19.1281 10.1667 19.3333 10.372 19.3333 10.6251C19.3333 10.8782 19.1281 11.0834 18.875 11.0834H17.9583C17.7052 11.0834 17.5 10.8782 17.5 10.6251Z" fill="currentcolor" />
    <path d="M7.41602 17.0416C7.41602 16.7885 7.62122 16.5833 7.87435 16.5833H16.1243C16.3775 16.5833 16.5827 16.7885 16.5827 17.0416C16.5827 17.2947 16.3775 17.4999 16.1243 17.4999H7.87435C7.62122 17.4999 7.41602 17.2947 7.41602 17.0416Z" fill="currentcolor" />
</svg>