<svg width="24" height="24" viewBox="0 0 24 24" fill="none" xmlns="http://www.w3.org/2000/svg">
  <path d="M18.1874 9.62498C18.1874 6.51839 15.4172 4 12 4C8.58273 4 5.8125 6.51839 5.8125 9.62498" stroke="currentColor"/>
  <path d="M9.74977 14.6874C9.74977 15.93 10.7571 16.9374 11.9998 16.9374C13.2424 16.9374 14.2498 15.93 14.2498 14.6874" stroke="currentColor"/>
  <path d="M18.1875 15.2956C18.1875 15.2956 18.1875 14.9593 18.1875 17.0997C18.1875 19.1307 15.6317 20.3124 12 20.3124" stroke="currentColor"/>
  <path fill-rule="evenodd" clip-rule="evenodd" d="M5.81249 9.62497C4.25919 9.62497 3 11.0101 3 12.7187C3 14.4273 4.25919 15.8124 5.81249 15.8124V9.62497Z" stroke="currentColor" stroke-linejoin="round"/>
  <path fill-rule="evenodd" clip-rule="evenodd" d="M18.1875 15.8124C19.7408 15.8124 21 14.4273 21 12.7187C21 11.0101 19.7408 9.62494 18.1875 9.62494V15.8124Z" stroke="currentColor" stroke-linejoin="round"/>
  <path fill-rule="evenodd" clip-rule="evenodd" d="M12 22C12.8284 22 13.5 21.3284 13.5 20.5C13.5 19.6716 12.8284 19 12 19C11.1716 19 10.5 19.6716 10.5 20.5C10.5 21.3284 11.1716 22 12 22Z" fill="currentColor"/>
</svg>
