<svg viewBox="0 0 24 24" fill="none" xmlns="http://www.w3.org/2000/svg">
    <path fill-rule="evenodd" clip-rule="evenodd" d="M7.17869 3.50006L16.8213 3.5003C17.3632 3.50031 17.8003 3.50031 18.1542 3.52924C18.5186 3.55902 18.8387 3.62193 19.1348 3.77282C19.6052 4.01251 19.9877 4.39495 20.2273 4.86534C20.3782 5.16148 20.4411 5.48156 20.4709 5.84598C20.4998 6.1999 20.4998 6.63695 20.4998 7.1788L20.4999 7.82136C20.4999 8.36322 20.4999 8.80027 20.471 9.15419C20.4412 9.51862 20.3783 9.83872 20.2274 10.1349C19.9877 10.6053 19.6053 10.9877 19.1349 11.2274C18.8387 11.3783 18.5186 11.4412 18.1542 11.471C17.8002 11.4999 17.3631 11.4999 16.8212 11.4999H7.17861C6.63671 11.4999 6.19963 11.4999 5.84569 11.471C5.48126 11.4412 5.16117 11.3783 4.86502 11.2274C4.39462 10.9878 4.01217 10.6053 3.77248 10.1349C3.62159 9.83875 3.55868 9.51865 3.52891 9.15423C3.49999 8.80029 3.5 8.36321 3.5 7.82132V7.17866C3.5 6.63675 3.49999 6.19967 3.52891 5.84572C3.55869 5.48129 3.62159 5.16119 3.77249 4.86504C4.01218 4.39463 4.39465 4.01218 4.86506 3.7725C5.16122 3.62161 5.48132 3.55871 5.84575 3.52894C6.1997 3.50003 6.63678 3.50004 7.17869 3.50006ZM5.92716 4.52562C5.62457 4.55034 5.45072 4.59642 5.31904 4.66351C5.03679 4.80732 4.80731 5.03679 4.6635 5.31904C4.5964 5.45072 4.55031 5.62456 4.52559 5.92715C4.50039 6.23558 4.5 6.63175 4.5 7.20006V7.79992C4.5 8.36822 4.50039 8.76438 4.52559 9.0728C4.55031 9.37538 4.5964 9.54923 4.66349 9.6809C4.8073 9.96315 5.03677 10.1926 5.31901 10.3364C5.45069 10.4035 5.62454 10.4496 5.92712 10.4743C6.23554 10.4995 6.6317 10.4999 7.2 10.4999H16.7999C17.3682 10.4999 17.7643 10.4995 18.0727 10.4743C18.3753 10.4496 18.5492 10.4035 18.6809 10.3364C18.9631 10.1926 19.1926 9.96314 19.3364 9.68089C19.4035 9.54921 19.4496 9.37536 19.4743 9.07278C19.4995 8.76435 19.4999 8.36819 19.4999 7.79988L19.4998 7.20026C19.4998 6.63197 19.4994 6.23583 19.4742 5.92742C19.4495 5.62485 19.4034 5.45101 19.3363 5.31934C19.1925 5.0371 18.9631 4.80763 18.6808 4.66382C18.5492 4.59673 18.3753 4.55064 18.0727 4.52591C17.7643 4.50071 17.3682 4.50031 16.7999 4.5003L7.20007 4.50006C6.63175 4.50005 6.23559 4.50043 5.92716 4.52562Z" fill="currentcolor"/>
    <path fill-rule="evenodd" clip-rule="evenodd" d="M16.8213 20.4999L7.17867 20.4996C6.63679 20.4996 6.19973 20.4996 5.8458 20.4707C5.48139 20.4409 5.16131 20.378 4.86517 20.2271C4.39478 19.9874 4.01234 19.605 3.77266 19.1346C3.62177 18.8385 3.55886 18.5184 3.52909 18.154C3.50016 17.8 3.50016 17.363 3.50016 16.8211L3.50015 16.1786C3.50014 15.6367 3.50013 15.1997 3.52904 14.8457C3.55881 14.4813 3.62171 14.1612 3.7726 13.8651C4.01228 13.3947 4.39474 13.0122 4.86515 12.7725C5.16129 12.6216 5.48139 12.5587 5.84582 12.5289C6.19977 12.5 6.63685 12.5 7.17876 12.5L16.8214 12.5C17.3633 12.5 17.8004 12.5 18.1543 12.5289C18.5187 12.5587 18.8388 12.6216 19.135 12.7725C19.6054 13.0122 19.9878 13.3946 20.2275 13.865C20.3784 14.1612 20.4413 14.4813 20.4711 14.8457C20.5 15.1996 20.5 15.6367 20.5 16.1786L20.5 16.8213C20.5 17.3632 20.5 17.8003 20.4711 18.1542C20.4413 18.5186 20.3784 18.8387 20.2275 19.1349C19.9878 19.6053 19.6054 19.9878 19.1349 20.2274C18.8388 20.3783 18.5187 20.4412 18.1543 20.471C17.8003 20.4999 17.3632 20.4999 16.8213 20.4999ZM18.0728 19.4743C18.3754 19.4496 18.5493 19.4035 18.681 19.3364C18.9632 19.1926 19.1927 18.9631 19.3365 18.6809C19.4036 18.5492 19.4497 18.3754 19.4744 18.0728C19.4996 17.7644 19.5 17.3682 19.5 16.7999L19.5 16.2C19.5 15.6317 19.4996 15.2356 19.4744 14.9271C19.4497 14.6246 19.4036 14.4507 19.3365 14.319C19.1927 14.0368 18.9632 13.8073 18.681 13.6635C18.5493 13.5964 18.3755 13.5503 18.0729 13.5256C17.7645 13.5004 17.3683 13.5 16.8 13.5L7.20015 13.5C6.63184 13.5 6.23568 13.5004 5.92725 13.5256C5.62466 13.5503 5.45082 13.5964 5.31914 13.6635C5.0369 13.8073 4.80742 14.0368 4.66361 14.319C4.59652 14.4507 4.55044 14.6246 4.52572 14.9272C4.50052 15.2356 4.50014 15.6317 4.50015 16.2001L4.50016 16.7997C4.50017 17.368 4.50056 17.7641 4.52576 18.0725C4.55049 18.3751 4.59657 18.5489 4.66367 18.6806C4.80747 18.9628 5.03694 19.1923 5.31917 19.3361C5.45085 19.4032 5.62468 19.4493 5.92726 19.474C6.23567 19.4992 6.63181 19.4996 7.20009 19.4996L16.7999 19.4999C17.3682 19.4999 17.7644 19.4995 18.0728 19.4743Z" fill="currentcolor"/>
    <path fill-rule="evenodd" clip-rule="evenodd" d="M15.6464 5.64645C15.8417 5.45118 16.1583 5.45118 16.3536 5.64645L17.8536 7.14645C18.0488 7.34171 18.0488 7.65829 17.8536 7.85355L16.3536 9.35355C16.1583 9.54882 15.8417 9.54882 15.6464 9.35355C15.4512 9.15829 15.4512 8.84171 15.6464 8.64645L16.7929 7.5L15.6464 6.35355C15.4512 6.15829 15.4512 5.84171 15.6464 5.64645Z" fill="currentcolor"/>
    <path fill-rule="evenodd" clip-rule="evenodd" d="M8.35355 18.3535C8.15829 18.5488 7.84171 18.5488 7.64645 18.3535L6.14645 16.8535C5.95118 16.6582 5.95118 16.3416 6.14645 16.1464L7.64645 14.6464C7.84171 14.4511 8.15829 14.4511 8.35355 14.6464C8.54882 14.8416 8.54882 15.1582 8.35355 15.3535L7.20711 16.4999L8.35355 17.6464C8.54882 17.8416 8.54882 18.1582 8.35355 18.3535Z" fill="currentcolor"/>
    <path fill-rule="evenodd" clip-rule="evenodd" d="M12.5 7.5C12.5 7.22386 12.7239 7 13 7H16.9792C17.2553 7 17.4792 7.22386 17.4792 7.5C17.4792 7.77614 17.2553 8 16.9792 8H13C12.7239 8 12.5 7.77614 12.5 7.5Z" fill="currentcolor"/>
    <path fill-rule="evenodd" clip-rule="evenodd" d="M7.02083 15.9999L11 15.9999C11.2761 15.9999 11.5 16.2238 11.5 16.4999C11.5 16.7761 11.2761 16.9999 11 16.9999L7.02083 16.9999C6.74469 16.9999 6.52083 16.7761 6.52083 16.4999C6.52083 16.2238 6.74469 15.9999 7.02083 15.9999Z" fill="currentcolor"/>
    <path fill-rule="evenodd" clip-rule="evenodd" d="M6 7.5C6 7.22386 6.22386 7 6.5 7H7.5C7.77614 7 8 7.22386 8 7.5C8 7.77614 7.77614 8 7.5 8H6.5C6.22386 8 6 7.77614 6 7.5Z" fill="currentcolor"/>
    <path fill-rule="evenodd" clip-rule="evenodd" d="M16.5 15.9999L17.5 15.9999C17.7761 15.9999 18 16.2238 18 16.4999C18 16.7761 17.7761 16.9999 17.5 16.9999L16.5 16.9999C16.2239 16.9999 16 16.7761 16 16.4999C16 16.2238 16.2239 15.9999 16.5 15.9999Z" fill="currentcolor"/>
    <path fill-rule="evenodd" clip-rule="evenodd" d="M9 7.5C9 7.22386 9.22386 7 9.5 7H11C11.2761 7 11.5 7.22386 11.5 7.5C11.5 7.77614 11.2761 8 11 8H9.5C9.22386 8 9 7.77614 9 7.5Z" fill="currentcolor"/>
    <path fill-rule="evenodd" clip-rule="evenodd" d="M15 16.4999C15 16.7761 14.7761 16.9999 14.5 16.9999L13 16.9999C12.7239 16.9999 12.5 16.7761 12.5 16.4999C12.5 16.2238 12.7239 15.9999 13 15.9999L14.5 15.9999C14.7761 15.9999 15 16.2238 15 16.4999Z" fill="currentcolor"/>
</svg>
