<svg viewBox="0 0 24 24" fill="none" xmlns="http://www.w3.org/2000/svg">
  <path fill-rule="evenodd" clip-rule="evenodd" d="M5.3125 9.62498C5.3125 6.19847 8.3525 3.5 12 3.5C15.6475 3.5 18.6874 6.19847 18.6874 9.62498H17.6874C17.6874 6.83831 15.187 4.5 12 4.5C8.81296 4.5 6.3125 6.83831 6.3125 9.62498H5.3125Z" fill="currentColor"/>
  <path fill-rule="evenodd" clip-rule="evenodd" d="M9.24976 17.4375C9.24976 15.9187 10.481 14.6875 11.9997 14.6875C13.5185 14.6875 14.7497 15.9187 14.7497 17.4375H13.7497C13.7497 16.471 12.9662 15.6875 11.9997 15.6875C11.0333 15.6875 10.2498 16.471 10.2498 17.4375H9.24976Z" fill="currentColor"/>
  <path fill-rule="evenodd" clip-rule="evenodd" d="M16.6802 19.9145C17.8749 19.314 18.6875 18.3692 18.6875 17.0998V15.2767L17.6875 15.2765V17.0998C17.6875 17.8614 17.2222 18.5229 16.2311 19.021C15.2328 19.5227 13.7717 19.8125 12 19.8125V20.8125C13.8599 20.8125 15.4926 20.5114 16.6802 19.9145Z" fill="currentColor"/>
  <path fill-rule="evenodd" clip-rule="evenodd" d="M5.81249 16.3125C3.93927 16.3125 2.5 14.6576 2.5 12.7188C2.5 10.7799 3.93927 9.12503 5.81249 9.12503C6.08863 9.12503 6.31249 9.34888 6.31249 9.62503V15.8125C6.31249 16.0886 6.08863 16.3125 5.81249 16.3125ZM5.31249 15.2506V10.1869C4.3015 10.4402 3.5 11.4447 3.5 12.7188C3.5 13.9929 4.3015 14.9973 5.31249 15.2506Z" fill="currentColor"/>
  <path fill-rule="evenodd" clip-rule="evenodd" d="M18.1875 9.125C20.0607 9.125 21.5 10.7799 21.5 12.7187C21.5 14.6576 20.0607 16.3125 18.1875 16.3125C17.9114 16.3125 17.6875 16.0886 17.6875 15.8125V9.625C17.6875 9.34886 17.9114 9.125 18.1875 9.125ZM18.6875 10.1869V15.2506C19.6985 14.9973 20.5 13.9928 20.5 12.7187C20.5 11.4446 19.6985 10.4402 18.6875 10.1869Z" fill="currentColor"/>
  <path fill-rule="evenodd" clip-rule="evenodd" d="M12 22C12.8284 22 13.5 21.3284 13.5 20.5C13.5 19.6716 12.8284 19 12 19C11.1716 19 10.5 19.6716 10.5 20.5C10.5 21.3284 11.1716 22 12 22Z" fill="currentColor"/>
</svg>
