<svg viewBox="0 0 24 24" fill="none" xmlns="http://www.w3.org/2000/svg">
  <path fill-rule="evenodd" clip-rule="evenodd" d="M18.9201 5.16506C19.055 5.3022 19.1047 5.50365 19.0495 5.68929L15.0423 19.166C14.6368 20.5299 12.8018 20.6923 12.1707 19.4201L9.73294 14.5063L4.90016 12.0276C3.64898 11.3859 3.80864 9.52019 5.15003 9.10786L18.4045 5.03349C18.5871 4.97737 18.7852 5.02793 18.9201 5.16506ZM10.7487 14.2175L13.0946 18.9462C13.305 19.3703 13.9166 19.3162 14.0518 18.8616L17.4624 7.39115L10.7487 14.2175ZM16.7307 6.64718L10.017 13.4735L5.3662 11.0882C4.94913 10.8743 5.00236 10.2524 5.44949 10.115L16.7307 6.64718Z" fill="currentcolor"/>
  <path fill-rule="evenodd" clip-rule="evenodd" d="M8.31049 16.6968C8.51255 16.4913 8.51255 16.1582 8.31049 15.9528C8.10844 15.7474 7.78084 15.7474 7.57879 15.9528L5.38368 18.1847C5.18163 18.3902 5.18163 18.7232 5.38368 18.9287C5.58573 19.1341 5.91333 19.1341 6.11538 18.9287L8.31049 16.6968Z" fill="currentcolor"/>
  <path fill-rule="evenodd" clip-rule="evenodd" d="M9.77399 19.6726C9.97605 19.4672 9.97605 19.1341 9.77399 18.9286C9.57194 18.7232 9.24434 18.7232 9.04229 18.9286L8.31059 19.6726C8.10853 19.878 8.10853 20.2111 8.31059 20.4166C8.51264 20.622 8.84024 20.622 9.04229 20.4166L9.77399 19.6726Z" fill="currentcolor"/>
  <path fill-rule="evenodd" clip-rule="evenodd" d="M5.38367 15.2087C5.58573 15.0033 5.58573 14.6702 5.38367 14.4648C5.18162 14.2593 4.85402 14.2593 4.65197 14.4648L3.92027 15.2087C3.71821 15.4142 3.71821 15.7473 3.92027 15.9527C4.12232 16.1582 4.44992 16.1582 4.65197 15.9527L5.38367 15.2087Z" fill="currentcolor"/>
</svg>
