<svg xmlns="http://www.w3.org/2000/svg" width="24" height="24" viewBox="0 0 24 24">
    <g fill="none" fill-rule="evenodd" stroke="#FFF" stroke-width="1.2">
        <path d="M13 11h1.707a1.5 1.5 0 1 1 0 3H13M12 14h1.707a1.5 1.5 0 1 1 0 3H12M11 17h1.707a1.5 1.5 0 1 1 0 3H11"/>
        <path d="M11.31 19.997H8a5 5 0 0 1-5-5V12a6 6 0 0 1 1.71-4.194l4.439-4.54a1.75 1.75 0 0 1 2.488-.015c.695.696.707 1.82.026 2.528l-1.319 1.373a.5.5 0 0 0 .36.846h9.79a1.501 1.501 0 1 1 0 3.002h-7.337"/>
    </g>
</svg>
