<svg width="24" height="24" viewBox="0 0 24 24" fill="none" xmlns="http://www.w3.org/2000/svg">
<path fill-rule="evenodd" clip-rule="evenodd" d="M5.29341 11.3073H7V12.3073H5.29341C4.18884 12.3073 3.29341 11.4119 3.29341 10.3073C3.29341 9.20274 4.18885 8.30731 5.29341 8.30731H7L7 9.30731H5.29341C4.74113 9.30731 4.29341 9.75503 4.29341 10.3073C4.29341 10.8596 4.74113 11.3073 5.29341 11.3073Z" fill="currentcolor"/>
<path fill-rule="evenodd" clip-rule="evenodd" d="M6.29341 8.30731H8V9.30731H6.29341C5.18884 9.30731 4.29341 8.41188 4.29341 7.30731C4.29341 6.20274 5.18885 5.30731 6.29341 5.30731H8V6.30731H6.29341C5.74113 6.30731 5.29341 6.75503 5.29341 7.30731C5.29341 7.8596 5.74113 8.30731 6.29341 8.30731Z" fill="currentcolor"/>
<path fill-rule="evenodd" clip-rule="evenodd" d="M7.29341 5.30731H9V6.30731H7.29341C6.18884 6.30731 5.29341 5.41188 5.29341 4.30731C5.29341 3.20274 6.18885 2.30731 7.29341 2.30731H9V3.30731H7.29341C6.74113 3.30731 6.29341 3.75503 6.29341 4.30731C6.29341 4.8596 6.74113 5.30731 7.29341 5.30731Z" fill="currentcolor"/>
<path fill-rule="evenodd" clip-rule="evenodd" d="M11.877 20.7319C12.4239 21.1751 13.2458 20.8754 13.3793 20.1843L13.7972 18.0202C14.3877 14.9621 17.0646 12.7527 20.1793 12.7527H20.4368L20.4368 6.00003H18.7754C18.0249 6.00003 17.2942 5.75877 16.6913 5.31185L15.1845 4.19506C14.4093 3.62045 13.4699 3.31026 12.5049 3.31026H8.68987V2.31026H12.5049C13.6843 2.31026 14.8325 2.68938 15.78 3.39168L17.2867 4.50847C17.7174 4.8277 18.2393 5.00003 18.7754 5.00003H21.4368L21.4368 13.7527H20.1793C17.5438 13.7527 15.2787 15.6222 14.779 18.2098L14.3611 20.3739C14.0845 21.8064 12.381 22.4273 11.2474 21.5089C10.2625 20.711 9.80968 19.4272 10.0759 18.1879L10.6943 15.3093L4.38602 15.3093C3.2809 15.3093 2.38503 14.4134 2.38503 13.3083C2.38503 12.2032 3.2809 11.3073 4.38602 11.3073H6.84279V12.3073H4.38602C3.83319 12.3073 3.38503 12.7555 3.38503 13.3083C3.38503 13.8611 3.83319 14.3093 4.38602 14.3093L10.6943 14.3093C11.3312 14.3093 11.8058 14.8967 11.672 15.5193L11.0536 18.398C10.8665 19.2689 11.1848 20.1711 11.877 20.7319Z" fill="currentcolor"/>
</svg>
