<svg width="24" height="24" viewBox="0 0 24 24" fill="none" xmlns="http://www.w3.org/2000/svg">
<path fill-rule="evenodd" clip-rule="evenodd" d="M18.7066 12.6914H17V11.6914H18.7066C19.8112 11.6914 20.7066 12.5868 20.7066 13.6914C20.7066 14.796 19.8112 15.6914 18.7066 15.6914H17V14.6914H18.7066C19.2589 14.6914 19.7066 14.2437 19.7066 13.6914C19.7066 13.1391 19.2589 12.6914 18.7066 12.6914Z" fill="currentcolor"/>
<path fill-rule="evenodd" clip-rule="evenodd" d="M17.7066 15.6914H16V14.6914H17.7066C18.8112 14.6914 19.7066 15.5868 19.7066 16.6914C19.7066 17.796 18.8112 18.6914 17.7066 18.6914H16V17.6914H17.7066C18.2589 17.6914 18.7066 17.2437 18.7066 16.6914C18.7066 16.1391 18.2589 15.6914 17.7066 15.6914Z" fill="currentcolor"/>
<path fill-rule="evenodd" clip-rule="evenodd" d="M16.7066 18.6914H15V17.6914H16.7066C17.8112 17.6914 18.7066 18.5868 18.7066 19.6914C18.7066 20.796 17.8112 21.6914 16.7066 21.6914H15V20.6914H16.7066C17.2589 20.6914 17.7066 20.2437 17.7066 19.6914C17.7066 19.1391 17.2589 18.6914 16.7066 18.6914Z" fill="currentcolor"/>
<path fill-rule="evenodd" clip-rule="evenodd" d="M12.1228 3.26825C11.5759 2.82512 10.7539 3.12474 10.6205 3.81589L10.2026 5.97994C9.61203 9.0381 6.93514 11.2475 3.82049 11.2475H3.56299V18.0002H5.22436C5.97489 18.0002 6.70555 18.2414 7.30851 18.6883L8.81522 19.8051C9.59046 20.3797 10.5299 20.6899 11.4948 20.6899H15.3099V21.6899H11.4948C10.3154 21.6899 9.16726 21.3108 8.21975 20.6085L6.71304 19.4917C6.28235 19.1725 5.76045 19.0002 5.22436 19.0002H2.56299V10.2475H3.82049C6.45596 10.2475 8.72102 8.37801 9.22072 5.79034L9.63861 3.62628C9.91523 2.19382 11.6187 1.57285 12.7523 2.49125C13.7372 3.2892 14.1901 4.57295 13.9238 5.81226L13.3055 8.69088L19.6137 8.69088C20.7189 8.69088 21.6147 9.58675 21.6147 10.6919C21.6147 11.797 20.7189 12.6929 19.6137 12.6929H17.157V11.6929H19.6137C20.1666 11.6929 20.6147 11.2447 20.6147 10.6919C20.6147 10.139 20.1666 9.69088 19.6137 9.69088H13.3055C12.6686 9.69088 12.194 9.1035 12.3278 8.48085L12.9462 5.60223C13.1333 4.73125 12.815 3.82904 12.1228 3.26825Z" fill="currentcolor"/>
</svg>
