<svg width="24" height="24" viewBox="0 0 24 24" fill="none" xmlns="http://www.w3.org/2000/svg">
  <path fill-rule="evenodd" clip-rule="evenodd" d="M7 8C8.10457 8 9 7.10457 9 6C9 4.89543 8.10457 4 7 4C5.89543 4 5 4.89543 5 6C5 7.10457 5.89543 8 7 8Z" stroke="currentColor" stroke-linecap="round" stroke-linejoin="round"/>
  <path fill-rule="evenodd" clip-rule="evenodd" d="M17 8C18.1046 8 19 7.10457 19 6C19 4.89543 18.1046 4 17 4C15.8954 4 15 4.89543 15 6C15 7.10457 15.8954 8 17 8Z" stroke="currentColor" stroke-linecap="round" stroke-linejoin="round"/>
  <path d="M4 15L4 11.6667C4 10.7462 4.76751 10 5.71429 10L8.28561 10C9.23238 10 9.99988 10.7462 9.9999 11.6667V12.5" stroke="currentColor" stroke-linecap="round" stroke-linejoin="round"/>
  <path d="M14 12.5L14 11.6667C14 10.7462 14.7675 10 15.7143 10L18.2856 10C19.2324 10 19.9999 10.7462 19.9999 11.6667L20 15" stroke="currentColor" stroke-linecap="round" stroke-linejoin="round"/>
  <path d="M16.0342 17.9892L7.5 17.9892" stroke="currentColor" stroke-linecap="round"/>
  <path d="M14 15L16.9892 17.9892L14 20.9783" stroke="currentColor" stroke-linecap="round" stroke-linejoin="round"/>
  <path d="M9.98926 20.9783L7.00009 17.9892L9.98926 15" stroke="currentColor" stroke-linecap="round" stroke-linejoin="round"/>
</svg>
