<svg width="24" height="24" viewBox="0 0 24 24" fill="none" xmlns="http://www.w3.org/2000/svg">
<path fill-rule="evenodd" clip-rule="evenodd" d="M11.5 8.29341L11.5 10L10.5 10L10.5 8.29341C10.5 7.18884 11.3954 6.29341 12.5 6.29341C13.6046 6.29341 14.5 7.18884 14.5 8.29341L14.5 10L13.5 10L13.5 8.29341C13.5 7.74113 13.0523 7.29341 12.5 7.29341C11.9477 7.29341 11.5 7.74113 11.5 8.29341Z" fill="#054752"/>
<path fill-rule="evenodd" clip-rule="evenodd" d="M13.5 12.5L13.5 9L14.5 9L14.5 12.5C14.5 13.6046 13.6046 14.5 12.5 14.5C11.3954 14.5 10.5 13.6046 10.5 12.5L10.5 9L11.5 9L11.5 12.5C11.5 13.0523 11.9477 13.5 12.5 13.5C13.0523 13.5 13.5 13.0523 13.5 12.5Z" fill="#054752"/>
<path fill-rule="evenodd" clip-rule="evenodd" d="M16.5 12.5L16.5 9L17.5 9L17.5 12.5C17.5 13.6046 16.6046 14.5 15.5 14.5C14.3954 14.5 13.5 13.6046 13.5 12.5L13.5 9L14.5 9L14.5 12.5C14.5 13.0523 14.9477 13.5 15.5 13.5C16.0523 13.5 16.5 13.0523 16.5 12.5Z" fill="#054752"/>
<path fill-rule="evenodd" clip-rule="evenodd" d="M19.5 12.5L19.5 12L20.5 12L20.5 12.5C20.5 13.6046 19.6046 14.5 18.5 14.5C17.3954 14.5 16.5 13.6046 16.5 12.5L16.5 11L17.5 11L17.5 12.5C17.5 13.0523 17.9477 13.5 18.5 13.5C19.0523 13.5 19.5 13.0523 19.5 12.5Z" fill="#054752"/>
<path fill-rule="evenodd" clip-rule="evenodd" d="M14.5 9.50002L14.5 11.2066L13.5 11.2066L13.5 9.50002C13.5 8.39545 14.3954 7.50002 15.5 7.50002C16.6046 7.50002 17.5 8.39545 17.5 9.50002L17.5 11.2066L16.5 11.2066L16.5 9.50002C16.5 8.94773 16.0523 8.50002 15.5 8.50002C14.9477 8.50002 14.5 8.94773 14.5 9.50002Z" fill="#054752"/>
<path fill-rule="evenodd" clip-rule="evenodd" d="M17.5 10.5L17.5 12.2066L16.5 12.2066L16.5 10.5C16.5 9.39545 17.3954 8.50002 18.5 8.50002C19.6046 8.50002 20.5 9.39545 20.5 10.5L20.5 12.2066L19.5 12.2066L19.5 10.5C19.5 9.94773 19.0523 9.50002 18.5 9.50002C17.9477 9.50002 17.5 9.94773 17.5 10.5Z" fill="#054752"/>
<path fill-rule="evenodd" clip-rule="evenodd" d="M6.52543 12.084C5.8848 12.5111 5.5 13.2301 5.5 14L4.5 14C4.5 12.8957 5.0519 11.8645 5.97073 11.2519L7.84861 10L11.5 10L11.5 11C11.5 12.933 9.933 14.5 8 14.5L8 13.5C9.38071 13.5 10.5 12.3807 10.5 11L8.15139 11L6.52543 12.084Z" fill="#054752"/>
<path fill-rule="evenodd" clip-rule="evenodd" d="M6.9743 19.6626C5.41514 18.4747 4.5 16.627 4.5 14.6668L4.5 14L5.5 14L5.5 14.6668C5.5 16.3149 6.26943 17.8684 7.58035 18.8672L8.2467 19.3749C9.20463 20.1047 10.3756 20.5 11.5799 20.5L14.9971 20.5C17.4823 20.5 19.4971 18.4853 19.4971 16L19.4971 12.6899L20.4971 12.6899L20.4971 16C20.4971 19.0376 18.0346 21.5 14.9971 21.5L11.5799 21.5C10.1567 21.5 8.77276 21.0329 7.64066 20.1703L6.9743 19.6626ZM8.49802 3.50652L8.49802 10.5L7.49802 10.5L7.49802 3.50652C7.49802 2.4014 8.39389 1.50553 9.49901 1.50553C10.6041 1.50553 11.5 2.40141 11.5 3.50652L11.5 10.8428L10.5 10.8428L10.5 3.50652C10.5 2.95369 10.0518 2.50553 9.49901 2.50553C8.94617 2.50553 8.49802 2.95369 8.49802 3.50652Z" fill="#054752"/>
<path d="M4.35355 20.6436C4.15829 20.4483 4.15829 20.1317 4.35355 19.9365L20.9364 3.35366C21.1316 3.1584 21.4482 3.1584 21.6435 3.35366V3.35366C21.8387 3.54892 21.8387 3.8655 21.6435 4.06077L5.06066 20.6436C4.8654 20.8389 4.54882 20.8389 4.35355 20.6436V20.6436Z" fill="#054752"/>
<path fill-rule="evenodd" clip-rule="evenodd" d="M3.64648 19.2294L20.2293 2.64655C20.8151 2.06077 21.7648 2.06077 22.3506 2.64655C22.9364 3.23234 22.9364 4.18209 22.3506 4.76787L5.7678 21.3507C5.18201 21.9365 4.23226 21.9365 3.64648 21.3507C3.06069 20.7649 3.06069 19.8152 3.64648 19.2294ZM4.35358 19.9365C4.15832 20.1317 4.15832 20.4483 4.35358 20.6436C4.54884 20.8389 4.86543 20.8389 5.06069 20.6436L21.6435 4.06077C21.8388 3.8655 21.8388 3.54892 21.6435 3.35366C21.4483 3.1584 21.1317 3.1584 20.9364 3.35366L4.35358 19.9365Z" fill="white"/>
</svg>
