<svg viewBox="0 0 24 24" fill="none" xmlns="http://www.w3.org/2000/svg">
<path d="M3.5 6C3.5 4.61929 4.61929 3.5 6 3.5V4.5C5.17157 4.5 4.5 5.17157 4.5 6H3.5Z" fill="currentcolor"/>
<path d="M20.5 18C20.5 19.3807 19.3807 20.5 18 20.5V19.5C18.8284 19.5 19.5 18.8284 19.5 18H20.5Z" fill="currentcolor"/>
<path d="M6 20.5C4.61929 20.5 3.5 19.3807 3.5 18H4.5C4.5 18.8284 5.17157 19.5 6 19.5V20.5Z" fill="currentcolor"/>
<path d="M18 3.5C19.3807 3.5 20.5 4.61929 20.5 6L19.5 6C19.5 5.17157 18.8284 4.5 18 4.5L18 3.5Z" fill="currentcolor"/>
<path d="M8 13.5H12" stroke="currentcolor" stroke-linecap="round" stroke-linejoin="round"/>
<path d="M8 11.5C8 11.5 11.5577 11.5 12 11.5" stroke="currentcolor" stroke-linecap="round" stroke-linejoin="round"/>
<path d="M15 10.0505C14.3647 9.40223 13.4793 9 12.5 9C10.567 9 9 10.567 9 12.5C9 14.433 10.567 16 12.5 16C13.4793 16 14.3647 15.5978 15 14.9495" stroke="currentcolor" stroke-linecap="round"/>
<path d="M7.5 3.5H9.5V4.5H7.5V3.5Z" fill="currentcolor"/>
<path d="M7.5 19.5H9.5V20.5H7.5V19.5Z" fill="currentcolor"/>
<path d="M11 19.5H13V20.5H11V19.5Z" fill="currentcolor"/>
<path d="M14.5 19.5H16.5V20.5H14.5V19.5Z" fill="currentcolor"/>
<path d="M4.5 7.5L4.5 9.5L3.5 9.5L3.5 7.5L4.5 7.5Z" fill="currentcolor"/>
<path d="M4.5 11L4.5 13L3.5 13L3.5 11L4.5 11Z" fill="currentcolor"/>
<path d="M4.5 14.5L4.5 16.5L3.5 16.5L3.5 14.5L4.5 14.5Z" fill="currentcolor"/>
<path d="M20.5 11L20.5 13L19.5 13L19.5 11L20.5 11Z" fill="currentcolor"/>
<path d="M20.5 7.5L20.5 9.5L19.5 9.5L19.5 7.5L20.5 7.5Z" fill="currentcolor"/>
<path d="M20.5 14.5L20.5 16.5L19.5 16.5L19.5 14.5L20.5 14.5Z" fill="currentcolor"/>
<path d="M11 3.5H13V4.5H11V3.5Z" fill="currentcolor"/>
<path d="M14.5 3.5H16.5V4.5H14.5V3.5Z" fill="currentcolor"/>
</svg>
