<svg viewBox="0 0 24 24" fill="none" xmlns="http://www.w3.org/2000/svg">
  <path fill-rule="evenodd" clip-rule="evenodd" d="M12.0122 15.995C11.7388 15.995 11.5172 15.7734 11.5172 15.5L11.5172 3.05739C11.5172 2.784 11.7388 2.56239 12.0122 2.56239C12.2856 2.56239 12.5072 2.784 12.5072 3.05739L12.5072 15.5C12.5072 15.7734 12.2856 15.995 12.0122 15.995Z" fill="currentcolor"/>
  <path fill-rule="evenodd" clip-rule="evenodd" d="M6.6349 8.22074C6.44395 8.0251 6.44775 7.71171 6.64339 7.52076L11.6381 2.64576C11.83 2.45845 12.1362 2.45802 12.3286 2.64478L17.3517 7.51978C17.5479 7.71017 17.5526 8.02356 17.3622 8.21974C17.1718 8.41592 16.8584 8.42061 16.6622 8.23021L11.9848 3.69074L7.33489 8.22923C7.13925 8.42018 6.82585 8.41638 6.6349 8.22074Z" fill="currentcolor"/>
  <path fill-rule="evenodd" clip-rule="evenodd" d="M3.00415 13.5333C3.28029 13.5333 3.50415 13.7572 3.50415 14.0333V19C3.50415 19.8284 4.17572 20.5 5.00415 20.5H18.9799C19.8083 20.5 20.4798 19.8284 20.4798 19V14.0333C20.4798 13.7572 20.7037 13.5333 20.9798 13.5333C21.256 13.5333 21.4798 13.7572 21.4798 14.0333V19C21.4798 20.3807 20.3606 21.5 18.9799 21.5H5.00415C3.62344 21.5 2.50415 20.3807 2.50415 19V14.0333C2.50415 13.7572 2.72801 13.5333 3.00415 13.5333Z" fill="currentcolor"/>
</svg>
