<svg width="24" height="24" viewBox="0 0 24 24" fill="none" xmlns="http://www.w3.org/2000/svg">
<path d="M13 16H4.4C4.17909 16 4 16.1791 4 16.4V16.4C4 17.2837 4.71634 18 5.6 18H12.6809" stroke="currentcolor"/>
<path fill-rule="evenodd" clip-rule="evenodd" d="M9.00329 3.12984C9.46936 2.42995 10.1992 2 11 2C11.786 2 12.5032 2.41403 12.9704 3.09098C13.2762 3.53423 13.3448 4.06119 13.2451 4.65816C13.1442 5.26261 12.8761 5.90014 12.5573 6.50773C11.8629 7.83079 11.5035 9.37765 11.9927 10.894C12.0585 11.0983 12.1304 11.3052 12.2059 11.5H9.73053C9.79574 11.2849 9.85567 11.0544 9.90905 10.8287C10.2611 9.34048 9.93459 7.84939 9.32938 6.53142C9.04739 5.91733 8.80805 5.28526 8.72271 4.68627C8.63836 4.09422 8.70906 3.57168 9.00329 3.12984ZM8.67739 11.5C8.75772 11.2818 8.84837 10.9686 8.93591 10.5985C9.21993 9.39789 8.96845 8.14175 8.42062 6.94873C8.12609 6.30733 7.83862 5.57067 7.73271 4.82732C7.62582 4.07704 7.69944 3.28365 8.17095 2.57558C8.79787 1.63414 9.82262 1 11 1C12.1552 1 13.1639 1.61068 13.7934 2.52304C14.2904 3.24319 14.3593 4.05696 14.2315 4.82277C14.1049 5.58111 13.7807 6.32841 13.4427 6.97242C12.8234 8.15255 12.5656 9.41297 12.9444 10.587C13.0667 10.9664 13.1894 11.2852 13.2919 11.5H17.5C19.1569 11.5 20.5 12.8431 20.5 14.5H19.5C19.5 13.3954 18.6046 12.5 17.5 12.5H4.85714C3.55533 12.5 2.5 13.5553 2.5 14.8571C2.5 15.2122 2.78782 15.5 3.14286 15.5H13.5V16.5H3.14286C2.23553 16.5 1.5 15.7645 1.5 14.8571C1.5 13.003 3.00304 11.5 4.85714 11.5H8.67739Z" fill="currentcolor"/>
<path fill-rule="evenodd" clip-rule="evenodd" d="M12.5 18C12.5 15.2386 14.7386 13 17.5 13C20.2614 13 22.5 15.2386 22.5 18C22.5 20.7614 20.2614 23 17.5 23C14.7386 23 12.5 20.7614 12.5 18ZM17.5 14C15.2909 14 13.5 15.7909 13.5 18C13.5 20.2091 15.2909 22 17.5 22C19.7091 22 21.5 20.2091 21.5 18C21.5 15.7909 19.7091 14 17.5 14Z" stroke="currentcolor"/>
<path d="M16.8258 20.1669L14.6805 18.3846C14.4681 18.2081 14.4389 17.8929 14.6154 17.6805C14.7919 17.4681 15.1071 17.4389 15.3195 17.6154L16.7853 18.8331L19.6577 16.1355C19.859 15.9465 20.1754 15.9564 20.3645 16.1577C20.5535 16.359 20.5436 16.6754 20.3423 16.8645L16.8258 20.1669Z" stroke="currentcolor" stroke-linecap="round"/>
</svg>
