<svg width="24" height="24" viewBox="0 0 24 24" fill="none" xmlns="http://www.w3.org/2000/svg">
  <path d="M4.5 16.1C4.5 17.1493 5.35066 18 6.4 18H15.6C16.6493 18 17.5 17.1493 17.5 16.1C17.5 16.0448 17.4552 16 17.4 16H4.6C4.54477 16 4.5 16.0448 4.5 16.1Z" stroke="currentcolor"/>
  <path fill-rule="evenodd" clip-rule="evenodd" d="M9.00329 3.12984C9.46936 2.42995 10.1992 2 11 2C11.786 2 12.5032 2.41403 12.9704 3.09098C13.2762 3.53423 13.3448 4.06119 13.2451 4.65816C13.1442 5.26261 12.8761 5.90014 12.5573 6.50773C11.8629 7.83079 11.5035 9.37765 11.9927 10.894C12.0585 11.0983 12.1304 11.3052 12.2059 11.5H9.73053C9.79574 11.2849 9.85567 11.0544 9.90905 10.8287C10.2611 9.34048 9.93459 7.84939 9.32938 6.53142C9.04739 5.91733 8.80805 5.28526 8.72271 4.68627C8.63836 4.09422 8.70906 3.57168 9.00329 3.12984ZM8.67739 11.5C8.75772 11.2818 8.84837 10.9686 8.93591 10.5985C9.21993 9.39789 8.96845 8.14175 8.42062 6.94873C8.12609 6.30733 7.83862 5.57067 7.73271 4.82732C7.62582 4.07704 7.69944 3.28365 8.17095 2.57558C8.79787 1.63414 9.82262 1 11 1C12.1552 1 13.1639 1.61068 13.7934 2.52304C14.2904 3.24319 14.3593 4.05696 14.2315 4.82277C14.1049 5.58111 13.7807 6.32841 13.4427 6.97242C12.8234 8.15255 12.5656 9.41297 12.9444 10.587C13.0667 10.9664 13.1894 11.2852 13.2919 11.5H16.4286C18.401 11.5 20 13.099 20 15.0714C20 15.8604 19.3604 16.5 18.5714 16.5H3.42857C2.63959 16.5 2 15.8604 2 15.0714C2 13.099 3.59898 11.5 5.57143 11.5H8.67739ZM3 15.0714C3 13.6513 4.15127 12.5 5.57143 12.5H16.4286C17.8487 12.5 19 13.6513 19 15.0714C19 15.3081 18.8081 15.5 18.5714 15.5H3.42857C3.19188 15.5 3 15.3081 3 15.0714Z" fill="currentcolor"/>
  <path fill-rule="evenodd" clip-rule="evenodd" d="M17.5 22C19.9853 22 22 19.9853 22 17.5C22 15.0147 19.9853 13 17.5 13C15.0147 13 13 15.0147 13 17.5C13 19.9853 15.0147 22 17.5 22Z" fill="#ECE7FF" stroke="currentcolor"/>
  <path d="M20 16L16.8056 19L15 17.5" stroke="currentcolor" stroke-linecap="round"/>
</svg>
