<svg width="260" height="200" viewBox="0 0 260 200" fill="none" xmlns="http://www.w3.org/2000/svg">
<mask id="illustration-check-mask0" mask-type="alpha" maskUnits="userSpaceOnUse" x="30" y="0" width="200" height="200">
<path d="M130 200C185.228 200 230 155.228 230 100C230 44.7715 185.228 0 130 0C74.7715 0 30 44.7715 30 100C30 155.228 74.7715 200 130 200Z" fill="white"/>
</mask>
<g mask="url(#illustration-check-mask0)">
<mask id="illustration-check-mask1" mask-type="alpha" maskUnits="userSpaceOnUse" x="30" y="0" width="200" height="200">
<path d="M130 200C185.228 200 230 155.228 230 100C230 44.7715 185.228 0 130 0C74.7715 0 30 44.7715 30 100C30 155.228 74.7715 200 130 200Z" fill="white"/>
</mask>
<g mask="url(#illustration-check-mask1)">
<path d="M130 200C185.228 200 230 155.228 230 100C230 44.7715 185.228 0 130 0C74.7715 0 30 44.7715 30 100C30 155.228 74.7715 200 130 200Z" fill="#5E48AF"/>
</g>
<circle cx="130" cy="100" r="57" fill="#5DD167"/>
<path d="M105.885 97.886L123.423 115.346L154.116 84.6538" stroke="white" stroke-width="7"/>
</g>
</svg>
