<svg width="104" height="81" viewBox="0 0 104 81" fill="none" xmlns="http://www.w3.org/2000/svg">
    <path d="M52 81C74.0914 81 92 62.8675 92 40.5C92 18.1325 74.0914 0 52 0C29.9086 0 12 18.1325 12 40.5C12 62.8675 29.9086 81 52 81Z" fill="#5E48AF"/>
    <mask id="mask0_710_5836" style="mask-type:alpha" maskUnits="userSpaceOnUse" x="12" y="0" width="80" height="81">
        <path d="M52 81C74.0914 81 92 62.8675 92 40.5C92 18.1325 74.0914 0 52 0C29.9086 0 12 18.1325 12 40.5C12 62.8675 29.9086 81 52 81Z" fill="white"/>
    </mask>
    <g mask="url(#mask0_710_5836)">
        <rect x="28" y="17" width="37.7395" height="31.8989" rx="3" fill="#DDDDDD"/>
        <rect x="29.7974" y="17" width="38.6381" height="31.8989" rx="3" fill="white"/>
        <rect x="32.4927" y="19.2464" width="34.1453" height="26.9568" rx="1" fill="#7056CE"/>
        <rect x="32.0435" y="19.2464" width="33.696" height="26.9568" rx="1" fill="#054752"/>
        <path d="M57.9559 39.359C57.7627 39.6936 57.2793 39.6921 57.0883 39.3563L54.8335 35.3935C54.6446 35.0614 54.8829 34.6486 55.2649 34.6462L59.8242 34.6175C60.2105 34.6151 60.4535 35.0329 60.2604 35.3675L59.1081 37.3633L57.9559 39.359Z" fill="white"/>
        <rect x="58.2695" y="37.9167" width="1.79712" height="3.59424" rx="0.89856" transform="rotate(-60 58.2695 37.9167)" fill="white"/>
        <rect x="36.0869" y="27.7827" width="3.14496" height="14.377" fill="#ECC525"/>
        <rect x="40.1304" y="33.174" width="3.14496" height="8.9856" fill="#DAB593"/>
        <rect x="44.1738" y="30.9277" width="3.14496" height="11.232" fill="#FBD4B1"/>
        <rect x="48.2178" y="23.7392" width="3.14496" height="18.4205" fill="#ECC525"/>
        <rect x="44.1738" y="48.8988" width="8.9856" height="2.69568" fill="#292659"/>
        <path d="M77.4209 61.7033H78.7687V63.5005H77.4209V61.7033Z" fill="#DDDDDD"/>
        <path d="M29.3477 52.7177H29.7969V54.5149H29.3477V52.7177Z" fill="#DDDDDD"/>
        <path d="M29.7523 55.5815C29.5024 55.2691 29.3434 54.9035 29.3477 54.5615C29.3558 53.9373 29.8255 53.3917 30.6961 53.3917H70.4835C70.8929 53.3917 71.2802 53.5778 71.536 53.8976L78.365 62.4339C78.6064 62.7356 78.7648 63.0871 78.769 63.4189C78.7771 64.0576 78.3081 64.6237 77.4212 64.6237H37.6338C37.2244 64.6237 36.8371 64.4376 36.5813 64.1179L29.7523 55.5815Z" fill="#DDDDDD"/>
        <path d="M29.798 53.841C29.5386 53.5167 29.3409 53.1275 29.3478 52.7648C29.3598 52.1404 29.8444 51.5946 30.6969 51.5946H70.4834C70.8928 51.5946 71.2801 51.7807 71.5358 52.1004L78.3649 60.6367C78.6397 60.9802 78.7689 61.2541 78.7689 61.6454C78.7563 62.3103 78.1825 62.8266 77.421 62.8266H37.6337C37.2243 62.8266 36.837 62.6404 36.5812 62.3207L29.798 53.841Z" fill="white"/>
        <path d="M33.8041 54.5698C33.2769 53.9156 33.7426 52.9424 34.5827 52.9424H35.5954C35.898 52.9424 36.1842 53.0793 36.3741 53.3149L36.5726 53.5613C37.0998 54.2155 36.6341 55.1888 35.794 55.1888H34.7813C34.4787 55.1888 34.1925 55.0518 34.0026 54.8162L33.8041 54.5698Z" fill="#DDDDDD"/>
        <path d="M36.0507 57.7147C35.5235 57.0606 35.9892 56.0873 36.8293 56.0873H40.0884C40.3909 56.0873 40.6772 56.2243 40.8671 56.4598L41.0656 56.7062C41.5928 57.3604 41.1271 58.3337 40.2869 58.3337H37.0279C36.7253 58.3337 36.4391 58.1967 36.2492 57.9611L36.0507 57.7147Z" fill="#DDDDDD"/>
        <path d="M38.2968 60.8598C37.7696 60.2056 38.2353 59.2324 39.0754 59.2324H40.0881C40.3906 59.2324 40.6769 59.3693 40.8667 59.6049L41.0653 59.8513C41.5925 60.5055 41.1268 61.4788 40.2866 61.4788H39.274C38.9714 61.4788 38.6851 61.3418 38.4953 61.1062L38.2968 60.8598Z" fill="#DDDDDD"/>
        <path d="M38.2968 54.5698C37.7696 53.9156 38.2353 52.9424 39.0754 52.9424H40.0881C40.3906 52.9424 40.6769 53.0793 40.8667 53.3149L41.0653 53.5613C41.5925 54.2155 41.1268 55.1888 40.2866 55.1888H39.274C38.9714 55.1888 38.6851 55.0518 38.4953 54.8162L38.2968 54.5698Z" fill="#DDDDDD"/>
        <path d="M42.7899 60.8598C42.2628 60.2056 42.7284 59.2324 43.5686 59.2324H44.5813C44.8838 59.2324 45.1701 59.3693 45.3599 59.6049L45.5585 59.8513C46.0856 60.5055 45.62 61.4788 44.7798 61.4788H43.7671C43.4646 61.4788 43.1783 61.3418 42.9885 61.1062L42.7899 60.8598Z" fill="#DDDDDD"/>
        <path d="M42.7899 54.5698C42.2628 53.9156 42.7284 52.9424 43.5686 52.9424H44.5813C44.8838 52.9424 45.1701 53.0793 45.3599 53.3149L45.5585 53.5613C46.0856 54.2155 45.62 55.1888 44.7798 55.1888H43.7671C43.4646 55.1888 43.1783 55.0518 42.9885 54.8162L42.7899 54.5698Z" fill="#DDDDDD"/>
        <path d="M42.7899 57.7147C42.2628 57.0606 42.7284 56.0873 43.5686 56.0873H44.5813C44.8838 56.0873 45.1701 56.2243 45.3599 56.4598L45.5585 56.7062C46.0856 57.3604 45.62 58.3337 44.7798 58.3337H43.7671C43.4646 58.3337 43.1783 58.1967 42.9885 57.9611L42.7899 57.7147Z" fill="#DDDDDD"/>
        <path d="M47.2826 57.7147C46.7555 57.0606 47.2211 56.0873 48.0613 56.0873H49.0739C49.3765 56.0873 49.6628 56.2243 49.8526 56.4598L50.0511 56.7062C50.5783 57.3604 50.1126 58.3337 49.2725 58.3337H48.2598C47.9573 58.3337 47.671 58.1967 47.4812 57.9611L47.2826 57.7147Z" fill="#DDDDDD"/>
        <path d="M51.7753 57.7147C51.2481 57.0606 51.7138 56.0873 52.5539 56.0873H53.5666C53.8692 56.0873 54.1554 56.2243 54.3453 56.4598L54.5438 56.7062C55.071 57.3604 54.6053 58.3337 53.7652 58.3337H52.7525C52.4499 58.3337 52.1637 58.1967 51.9738 57.9611L51.7753 57.7147Z" fill="#DDDDDD"/>
        <path d="M56.268 57.7147C55.7408 57.0606 56.2065 56.0873 57.0466 56.0873H58.0593C58.3618 56.0873 58.6481 56.2243 58.8379 56.4598L59.0365 56.7062C59.5636 57.3604 59.098 58.3337 58.2578 58.3337H57.2452C56.9426 58.3337 56.6563 58.1967 56.4665 57.9611L56.268 57.7147Z" fill="#DDDDDD"/>
        <path d="M60.7611 57.7147C60.234 57.0606 60.6996 56.0873 61.5398 56.0873H62.5524C62.855 56.0873 63.1413 56.2243 63.3311 56.4598L63.5297 56.7062C64.0568 57.3604 63.5911 58.3337 62.751 58.3337H61.7383C61.4358 58.3337 61.1495 58.1967 60.9597 57.9611L60.7611 57.7147Z" fill="#DDDDDD"/>
        <path d="M65.2538 57.7147C64.7266 57.0606 65.1923 56.0873 66.0325 56.0873H67.0451C67.3477 56.0873 67.6339 56.2243 67.8238 56.4598L68.0223 56.7062C68.5495 57.3604 68.0838 58.3337 67.2437 58.3337H66.231C65.9285 58.3337 65.6422 58.1967 65.4523 57.9611L65.2538 57.7147Z" fill="#DDDDDD"/>
        <path d="M69.7181 57.708C69.1991 57.0524 69.666 56.0873 70.5022 56.0873H71.5325C71.8381 56.0873 72.1269 56.227 72.3165 56.4666L75.0014 59.8579C75.5203 60.5135 75.0534 61.4787 74.2173 61.4787H73.187C72.8814 61.4787 72.5926 61.3389 72.4029 61.0994L69.7181 57.708Z" fill="#DDDDDD"/>
        <path d="M47.2826 60.8598C46.7555 60.2056 47.2211 59.2324 48.0613 59.2324H62.103C62.4056 59.2324 62.6919 59.3693 62.8817 59.6049L63.0803 59.8513C63.6074 60.5055 63.1417 61.4788 62.3016 61.4788H48.2598C47.9573 61.4788 47.671 61.3418 47.4812 61.1062L47.2826 60.8598Z" fill="#DDDDDD"/>
        <path d="M47.2826 54.5698C46.7555 53.9156 47.2211 52.9424 48.0613 52.9424H49.0739C49.3765 52.9424 49.6628 53.0793 49.8526 53.3149L50.0511 53.5613C50.5783 54.2155 50.1126 55.1888 49.2725 55.1888H48.2598C47.9573 55.1888 47.671 55.0518 47.4812 54.8162L47.2826 54.5698Z" fill="#DDDDDD"/>
        <path d="M51.7753 54.5698C51.2481 53.9156 51.7138 52.9424 52.5539 52.9424H53.5666C53.8692 52.9424 54.1554 53.0793 54.3453 53.3149L54.5438 53.5613C55.071 54.2155 54.6053 55.1888 53.7652 55.1888H52.7525C52.4499 55.1888 52.1637 55.0518 51.9738 54.8162L51.7753 54.5698Z" fill="#DDDDDD"/>
        <path d="M56.268 54.5698C55.7408 53.9156 56.2065 52.9424 57.0466 52.9424H58.0593C58.3618 52.9424 58.6481 53.0793 58.8379 53.3149L59.0365 53.5613C59.5636 54.2155 59.098 55.1888 58.2578 55.1888H57.2452C56.9426 55.1888 56.6563 55.0518 56.4665 54.8162L56.268 54.5698Z" fill="#DDDDDD"/>
        <path d="M60.7611 54.5698C60.234 53.9156 60.6996 52.9424 61.5398 52.9424H62.5524C62.855 52.9424 63.1413 53.0793 63.3311 53.3149L63.5297 53.5613C64.0568 54.2155 63.5911 55.1888 62.751 55.1888H61.7383C61.4358 55.1888 61.1495 55.0518 60.9597 54.8162L60.7611 54.5698Z" fill="#DDDDDD"/>
        <path d="M65.2538 60.8598C64.7266 60.2056 65.1923 59.2324 66.0325 59.2324H69.2915C69.5941 59.2324 69.8803 59.3693 70.0702 59.6049L70.2687 59.8513C70.7959 60.5055 70.3302 61.4788 69.4901 61.4788H66.231C65.9285 61.4788 65.6422 61.3418 65.4523 61.1062L65.2538 60.8598Z" fill="#DDDDDD"/>
        <path d="M65.2538 54.5698C64.7266 53.9156 65.1923 52.9424 66.0325 52.9424H69.7408C70.0433 52.9424 70.3296 53.0793 70.5195 53.3149L70.718 53.5613C71.2452 54.2155 70.7795 55.1888 69.9394 55.1888H66.231C65.9285 55.1888 65.6422 55.0518 65.4523 54.8162L65.2538 54.5698Z" fill="#DDDDDD"/>
    </g>
</svg>
