<svg width="260" height="200" viewBox="0 0 260 200" fill="none" xmlns="http://www.w3.org/2000/svg">
<path d="M130 200C185.228 200 230 155.228 230 100C230 44.7715 185.228 0 130 0C74.7715 0 30 44.7715 30 100C30 155.228 74.7715 200 130 200Z" fill="#5E48AF"/>
<mask id="mask0" mask-type="alpha" maskUnits="userSpaceOnUse" x="30" y="0" width="200" height="200">
<path d="M130 200C185.228 200 230 155.228 230 100C230 44.7715 185.228 0 130 0C74.7715 0 30 44.7715 30 100C30 155.228 74.7715 200 130 200Z" fill="white"/>
</mask>
<g mask="url(#mask0)">
<circle cx="111.5" cy="102.5" r="8.5" fill="#292659"/>
<path d="M174.705 182.203C176.155 179.864 176.455 176.991 175.519 174.403L161.998 136.988L145.99 147.736L155 214L174.705 182.203Z" fill="#DDDDDD"/>
<path d="M85.9764 182.203C84.527 179.864 84.2271 176.991 85.1623 174.403L98.6838 136.988L114.692 147.736L105.682 214L85.9764 182.203Z" fill="#DDDDDD"/>
<path d="M159 223L102 223L99 137L122 130L141 130L162 137L159 223Z" fill="white"/>
<rect x="122" y="110" width="19" height="9" fill="#DAB593"/>
<circle cx="103" cy="92" r="10" fill="#292659"/>
<circle cx="108" cy="95" r="8" fill="#FBD4B1"/>
<path d="M141 130H122L127 160V223H136V160L141 130Z" fill="#40969F"/>
<circle cx="154.5" cy="102.5" r="7.5" fill="#292659"/>
<path d="M141 130L131.5 145L122 130L124 123L131.5 117L139 123L141 130Z" fill="#FBD4B1"/>
<circle cx="160" cy="91" r="10" fill="#292659"/>
<circle cx="155" cy="94" r="9" fill="#FBD4B1"/>
<path fill-rule="evenodd" clip-rule="evenodd" d="M155 67H108V99C108 114.464 118.521 127 131.5 127C144.479 127 155 114.464 155 99V67Z" fill="#FBD4B1"/>
<ellipse cx="140.5" cy="93.5" rx="2.5" ry="3.5" fill="#292659"/>
<ellipse cx="122.5" cy="93.5" rx="2.5" ry="3.5" fill="#292659"/>
<path fill-rule="evenodd" clip-rule="evenodd" d="M127 112C127.385 114.262 129.701 116 132.5 116C135.3 116 137.615 114.262 138 112H127Z" fill="#DAB593"/>
<path fill-rule="evenodd" clip-rule="evenodd" d="M158.1 79.9973C159.328 79.6176 160 78.0408 160 74.6017C160 59.3577 146.792 47 130.5 47C114.208 47 101 59.3577 101 74.6017C101 82.9089 104.922 80.3501 111.129 76.301C116.311 72.92 123.086 68.5 130.5 68.5C137.914 68.5 144.689 72.92 149.871 76.301C151.867 77.603 153.626 78.7509 155.095 79.433C156.087 79.6071 157.088 79.7951 158.1 79.9973Z" fill="#292659"/>
<circle cx="122" cy="51" r="7" fill="#292659"/>
<circle cx="155" cy="57" r="5" fill="#292659"/>
<circle cx="146.5" cy="72.5" r="6.5" fill="#292659"/>
<circle cx="135" cy="68" r="7" fill="#292659"/>
<circle cx="157" cy="78" r="10" fill="#292659"/>
<circle cx="159" cy="67" r="9" fill="#292659"/>
<circle cx="133.5" cy="48.5" r="7.5" fill="#292659"/>
<circle cx="106" cy="77" r="13" fill="#292659"/>
<circle cx="111.5" cy="59.5" r="10.5" fill="#292659"/>
<circle cx="115" cy="69" r="8" fill="#292659"/>
<circle cx="120.5" cy="71.5" r="9.5" fill="#292659"/>
<circle cx="145" cy="53" r="8" fill="#292659"/>
<circle cx="163" cy="102" r="5" fill="#ECC525"/>
<circle cx="101" cy="102" r="5" fill="#ECC525"/>
<path d="M149 137.5L141 130L136 160L147.5 146L144 142L149 137.5Z" fill="#DDDDDD"/>
<path d="M114 137.5L122 130L127 160L115.5 146L119 142L114 137.5Z" fill="#DDDDDD"/>
</g>
</svg>
