<svg width="260" height="200" viewBox="0 0 260 200" fill="none" xmlns="http://www.w3.org/2000/svg">
<path d="M130 200C185.228 200 230 155.228 230 100C230 44.7715 185.228 0 130 0C74.7715 0 30 44.7715 30 100C30 155.228 74.7715 200 130 200Z" fill="#5E48AF"/>
<mask id="mask0" mask-type="alpha" maskUnits="userSpaceOnUse" x="30" y="0" width="200" height="200">
<path d="M130 200C185.228 200 230 155.228 230 100C230 44.7715 185.228 0 130 0C74.7715 0 30 44.7715 30 100C30 155.228 74.7715 200 130 200Z" fill="white"/>
</mask>
<g mask="url(#mask0)">
</g>
<path d="M116 102.376L129.933 107.932L131.365 93" stroke="white" stroke-width="4" stroke-linecap="round" stroke-linejoin="round"/>
<path fill-rule="evenodd" clip-rule="evenodd" d="M93 79C93 77.8954 93.8954 77 95 77C96.988 77 98.9694 77.1853 100.938 77.5752C102.021 77.7899 102.726 78.8423 102.511 79.9258C102.297 81.0093 101.244 81.7136 100.161 81.499C98.4587 81.1618 96.7381 81 95 81C93.8954 81 93 80.1046 93 79ZM109.128 82.6857C109.73 81.7594 110.969 81.4963 111.895 82.098C114.916 84.0602 117.84 86.615 120.658 89.8115C121.389 90.64 121.309 91.9039 120.481 92.6343C119.652 93.3648 118.388 93.2852 117.658 92.4567C115.048 89.4968 112.394 87.1921 109.716 85.4524C108.79 84.8507 108.527 83.612 109.128 82.6857ZM136.318 115.367C137.047 114.538 138.31 114.456 139.14 115.185C141.542 117.294 144.186 119.117 146.982 120.548C147.965 121.051 148.354 122.256 147.851 123.24C147.347 124.223 146.142 124.612 145.159 124.109C142.051 122.518 139.135 120.504 136.5 118.19C135.671 117.461 135.589 116.197 136.318 115.367ZM153.547 125.21C153.738 124.122 154.776 123.396 155.864 123.588C157.399 123.858 158.948 124 160.5 124C161.605 124 162.5 124.895 162.5 126C162.5 127.105 161.605 128 160.5 128C158.704 128 156.923 127.836 155.169 127.527C154.081 127.335 153.355 126.297 153.547 125.21Z" fill="white"/>
<circle cx="77.5" cy="79.5" r="11.5" fill="#40969F"/>
<circle cx="77.5" cy="77.5" r="11.5" fill="#65BFCF"/>
<circle cx="173" cy="126" r="6" fill="#40969F"/>
<circle cx="173" cy="124" r="6" fill="#65BFCF"/>
<rect x="171" y="85" width="4" height="39" rx="2" fill="#40969F"/>
<path d="M171 101.232V86.9541C171 85.5391 172.429 84.5716 173.743 85.0971L189.413 91.3653C191.008 92.0031 191.11 94.2216 189.581 95.0032L173.91 103.013C172.579 103.693 171 102.726 171 101.232Z" fill="#65BFCF"/>
<rect x="172" y="86" width="2" height="2" rx="1" fill="#40969F"/>
</svg>
