<svg xmlns="http://www.w3.org/2000/svg" xmlns:xlink="http://www.w3.org/1999/xlink" width="260" height="200" viewBox="0 0 260 200">
    <defs>
        <circle id="a" cx="89" cy="85" r="85"/>
    </defs>
    <g fill="none" fill-rule="evenodd">
        <g transform="translate(41 15)">
            <path fill="#65BFCF" fill-rule="nonzero" d="M28.4 12.7V10h-1.8v2.7H24v1.7h2.6v2.7h1.8v-2.7h2.7v-1.7zM4.4 25.7V23H2.6v2.7H0v1.8h2.6v2.6h1.8v-2.6H7v-1.8zM162.4 155.6V153h-1.8v2.6H158v1.8h2.6v2.6h1.8v-2.6h2.6v-1.8z"/>
            <mask id="b" fill="#fff">
                <use xlink:href="#a"/>
            </mask>
            <use fill="#65BFCF" fill-rule="nonzero" opacity=".4" xlink:href="#a"/>
            <path fill="#65BFCF" fill-rule="nonzero" d="M134.875 110.451V75.333c0-.722-.632-1.354-1.353-1.354-.722 0-1.353.632-1.353 1.354v35.118c-2.436.632-4.33 2.799-4.33 5.507a5.661 5.661 0 0 0 5.683 5.688 5.661 5.661 0 0 0 5.682-5.688c0-2.708-1.894-4.875-4.33-5.507zM162.384 83.73l-22.639-9.21c-.45-.18-1.082-.18-1.443.181-.451.271-.722.813-.722 1.355v18.416c0 .542.271.993.722 1.354.45.271.992.362 1.443.18l22.64-9.388c.63-.27.991-.812.991-1.444 0-.632-.45-1.264-.992-1.445z" mask="url(#b)"/>
            <ellipse cx="38.635" cy="69.646" fill="#65BFCF" fill-rule="nonzero" mask="url(#b)" rx="11.635" ry="11.646"/>
            <path fill="#5E48AF" d="M115.031 116.951c2.075.362 4.24.632 6.585.723.721 0 1.353-.542 1.353-1.264s-.542-1.354-1.263-1.354a44.918 44.918 0 0 1-6.314-.723c-.721-.09-1.353.361-1.533 1.084 0 .722.45 1.444 1.172 1.534zM102.494 112.167c1.804 1.173 3.788 2.166 6.043 3.07.632.27 1.443-.091 1.714-.723.27-.632-.09-1.445-.722-1.715-2.074-.813-3.878-1.716-5.592-2.799-.631-.361-1.443-.18-1.804.361-.45.632-.27 1.445.361 1.806zM92.933 102.778a38.494 38.494 0 0 0 4.33 5.146c.54.541 1.353.541 1.804 0 .54-.542.54-1.355 0-1.806-1.534-1.535-2.796-3.16-4.06-4.785-.45-.541-1.262-.722-1.803-.27-.541.27-.722 1.083-.27 1.715zM78.863 81.111c1.172 1.174 2.345 2.528 3.337 4.063l.541.812c.361.632 1.173.722 1.804.361.631-.36.722-1.173.36-1.805-.18-.271-.36-.542-.63-.903-1.083-1.625-2.346-3.07-3.608-4.424-.542-.541-1.353-.541-1.804 0a1.497 1.497 0 0 0 0 1.896zM68.49 74.16a41.135 41.135 0 0 1 5.502 2.979c.632.361 1.443.27 1.804-.361.36-.632.27-1.445-.36-1.806-1.985-1.354-3.97-2.347-5.954-3.25-.631-.27-1.443 0-1.713.632-.18.722.09 1.535.721 1.806zM56.404 71c.27 0 2.706.18 6.133 1.083.722.18 1.443-.27 1.624-.902.18-.723-.27-1.445-.902-1.625-3.879-.993-6.584-1.174-6.675-1.174-.721 0-1.353.542-1.353 1.264A1.188 1.188 0 0 0 56.404 71z" mask="url(#b)"/>
            <path fill="#5E48AF" d="M89.235 97.542c.451.27.902.27 1.353.18h.09c.09 0 .18-.09.271-.09 0 0 .09 0 .09-.09.09 0 .09-.09.18-.09s.09-.09.181-.09l.09-.091.18-.18c.271-.362.452-.813.452-1.265L91.85 83.82c0-1.083-.902-1.895-1.984-1.895-1.083 0-1.894.902-1.894 1.986l.18 8.757-7.667-4.153c-.902-.542-2.074-.18-2.615.722-.542.903-.18 2.076.721 2.618l10.643 5.688z" mask="url(#b)"/>
        </g>
    </g>
</svg>
