<svg width="260" height="200" viewBox="0 0 260 200" fill="none" xmlns="http://www.w3.org/2000/svg">
<path d="M130 200C185.228 200 230 155.228 230 100C230 44.7715 185.228 0 130 0C74.7715 0 30 44.7715 30 100C30 155.228 74.7715 200 130 200Z" fill="#5E48AF"/>
<path fill-rule="evenodd" clip-rule="evenodd" d="M107.5 147C107.668 147 107.835 146.994 108 146.984V147H113.511H114V146.984C117.921 146.733 121.023 143.478 121.023 139.5C121.023 135.522 117.921 132.267 114 132.016V132H113.511H108V132.016C107.835 132.006 107.668 132 107.5 132C103.358 132 100 135.358 100 139.5C100 143.642 103.358 147 107.5 147Z" fill="#292659"/>
<path fill-rule="evenodd" clip-rule="evenodd" d="M167.5 147C167.668 147 167.835 146.994 168 146.984V147H173.511H174V146.984C177.921 146.733 181.023 143.478 181.023 139.5C181.023 135.522 177.921 132.267 174 132.016V132H173.511H168V132.016C167.835 132.006 167.668 132 167.5 132C163.358 132 160 135.358 160 139.5C160 143.642 163.358 147 167.5 147Z" fill="#292659"/>
<rect x="195" y="148" width="126" height="2" rx="1" transform="rotate(-180 195 148)" fill="#292659"/>
<rect x="83" y="95.2574" width="4" height="42" fill="white"/>
<rect x="143" y="95.2574" width="4" height="42" fill="white"/>
<rect x="105" y="95.2574" width="4" height="42" fill="#292659"/>
<rect x="165" y="94.2574" width="4" height="43" fill="#292659"/>
<path d="M83.5114 147C87.6599 147 91.0229 143.642 91.0229 139.5C91.0229 135.358 87.6599 132 83.5114 132C79.363 132 76 135.358 76 139.5C76 143.642 79.363 147 83.5114 147Z" fill="#292659"/>
<rect x="84" y="147" width="6" height="15" transform="rotate(-180 84 147)" fill="#292659"/>
<path d="M77.5 147C81.6421 147 85 143.642 85 139.5C85 135.358 81.6421 132 77.5 132C73.3579 132 70 135.358 70 139.5C70 143.642 73.3579 147 77.5 147Z" fill="#5E48AF"/>
<path d="M77.5 143C79.433 143 81 141.433 81 139.5C81 137.567 79.433 136 77.5 136C75.567 136 74 137.567 74 139.5C74 141.433 75.567 143 77.5 143Z" fill="#292659"/>
<path d="M143.511 147C147.66 147 151.023 143.642 151.023 139.5C151.023 135.358 147.66 132 143.511 132C139.363 132 136 135.358 136 139.5C136 143.642 139.363 147 143.511 147Z" fill="#292659"/>
<rect x="144" y="147" width="6" height="15" transform="rotate(-180 144 147)" fill="#292659"/>
<path d="M137.5 147C141.642 147 145 143.642 145 139.5C145 135.358 141.642 132 137.5 132C133.358 132 130 135.358 130 139.5C130 143.642 133.358 147 137.5 147Z" fill="#5E48AF"/>
<path d="M137.5 143C139.433 143 141 141.433 141 139.5C141 137.567 139.433 136 137.5 136C135.567 136 134 137.567 134 139.5C134 141.433 135.567 143 137.5 143Z" fill="#292659"/>
<path d="M191 86.2574C192.105 86.2574 193 87.1528 193 88.2574V94.2574L133 94.2574C131.895 94.2574 131 93.3619 131 92.2574V88.2574C131 87.1528 131.895 86.2574 133 86.2574L191 86.2574Z" fill="#40969F"/>
<path fill-rule="evenodd" clip-rule="evenodd" d="M131.652 88.2102L101.827 91.5227L78.6539 71.1199L75.4105 66.2334L101.806 66.2639C103.395 66.2657 104.935 66.8077 106.175 67.8007L131.652 88.2102Z" fill="#40969F"/>
<path d="M165 86.2574C166.105 86.2574 167 87.1528 167 88.2574V94.2574L98 94.2574V88.2574C98 87.1528 98.8954 86.2574 100 86.2574L165 86.2574Z" fill="#65BFCF"/>
<path fill-rule="evenodd" clip-rule="evenodd" d="M101.508 86.7129C102.365 87.4082 102.497 88.667 101.802 89.525L98.0258 94.1889L71.7976 72.9229C70.94 72.2276 70.8081 70.9688 71.5029 70.1108L74.0202 67.0022C74.7156 66.1434 75.9757 66.0113 76.8341 66.7073L101.508 86.7129Z" fill="#65BFCF"/>
<rect x="195" y="93" width="4" height="62" rx="2" transform="rotate(90 195 93)" fill="#EDEDED"/>
<rect x="169" y="93" width="4" height="100" rx="2" transform="rotate(90 169 93)" fill="white"/>
</svg>
