<svg width="260" height="200" viewBox="0 0 260 200" fill="none" xmlns="http://www.w3.org/2000/svg">
<path d="M130 200C185.228 200 230 155.228 230 100C230 44.7715 185.228 0 130 0C74.7715 0 30 44.7715 30 100C30 155.228 74.7715 200 130 200Z" fill="#5E48AF"/>
<mask id="mask0" mask-type="alpha" maskUnits="userSpaceOnUse" x="30" y="0" width="200" height="200">
<path d="M130 200C185.228 200 230 155.228 230 100C230 44.7715 185.228 0 130 0C74.7715 0 30 44.7715 30 100C30 155.228 74.7715 200 130 200Z" fill="white"/>
</mask>
<g mask="url(#mask0)">
<rect x="59" y="115" width="127.313" height="17" rx="4.6656" fill="#292659"/>
<rect x="176.711" y="92.2679" width="6.98671" height="12.4019" rx="2.3328" fill="white"/>
<path d="M151.761 137.225C156.048 137.225 159.524 133.755 159.524 129.474C159.524 125.193 156.048 121.722 151.761 121.722C147.474 121.722 143.998 125.193 143.998 129.474C143.998 133.755 147.474 137.225 151.761 137.225Z" fill="#292659"/>
<path d="M184.366 137.225C188.653 137.225 192.129 133.755 192.129 129.474C192.129 125.193 188.653 121.722 184.366 121.722C180.078 121.722 176.603 125.193 176.603 129.474C176.603 133.755 180.078 137.225 184.366 137.225Z" fill="#292659"/>
<rect x="185.041" y="137.225" width="6.08232" height="15.5024" transform="rotate(-180 185.041 137.225)" fill="#292659"/>
<path d="M178.986 137.225C183.273 137.225 186.749 133.755 186.749 129.474C186.749 125.193 183.273 121.722 178.986 121.722C174.698 121.722 171.223 125.193 171.223 129.474C171.223 133.755 174.698 137.225 178.986 137.225Z" fill="#292659"/>
<rect x="152.437" y="137.225" width="6.08232" height="15.5024" transform="rotate(-180 152.437 137.225)" fill="#292659"/>
<path d="M77.2357 137.225C81.5231 137.225 84.9987 133.755 84.9987 129.474C84.9987 125.193 81.5231 121.722 77.2357 121.722C72.9483 121.722 69.4727 125.193 69.4727 129.474C69.4727 133.755 72.9483 137.225 77.2357 137.225Z" fill="#292659"/>
<path d="M109.841 137.225C114.129 137.225 117.604 133.755 117.604 129.474C117.604 125.193 114.129 121.722 109.841 121.722C105.554 121.722 102.078 125.193 102.078 129.474C102.078 133.755 105.554 137.225 109.841 137.225Z" fill="#292659"/>
<rect x="110.517" y="137.225" width="6.08232" height="15.5024" transform="rotate(-180 110.517 137.225)" fill="#292659"/>
<path d="M104.461 137.225C108.749 137.225 112.224 133.755 112.224 129.474C112.224 125.193 108.749 121.722 104.461 121.722C100.174 121.722 96.6982 125.193 96.6982 129.474C96.6982 133.755 100.174 137.225 104.461 137.225Z" fill="#292659"/>
<rect x="77.9111" y="137.225" width="6.08232" height="15.5024" transform="rotate(-180 77.9111 137.225)" fill="#292659"/>
<path d="M113.749 66.1077H150.693C151.761 66.1083 152.782 66.5485 153.515 67.3246L183.558 99.151C183.966 99.5851 184.469 99.9182 185.029 100.124C188.744 101.496 203.602 107.433 203.602 114.553V125.06C203.602 127.2 201.864 128.935 199.72 128.935H159.163" fill="white"/>
<path d="M119.358 67.3246L149.401 99.151C149.809 99.5851 150.313 99.9182 150.872 100.124C154.587 101.496 169.445 107.433 169.445 114.553V125.055C169.445 127.196 167.707 128.931 165.564 128.931H155.874C155.874 123.579 153.919 118.816 146.156 118.816C138.005 118.816 136.452 123.579 136.452 128.931L81.7231 128.933C81.7231 123.581 80.1705 118.428 72.0194 118.428C63.4801 118.428 62.3156 123.579 62.3156 128.931H56.8815C54.7378 128.931 53 127.196 53 125.055V69.9833C53 67.8428 54.7378 66.1077 56.8815 66.1077H116.536C117.605 66.1083 118.625 66.5485 119.358 67.3246Z" fill="#EDEDED"/>
<rect x="136.845" y="67.1556" width="11.6445" height="4.536" transform="rotate(-180 136.845 67.1556)" fill="white"/>
<rect x="125.466" y="67.1556" width="4.536" height="4.536" transform="rotate(-180 125.466 67.1556)" fill="#EDEDED"/>
<path d="M152.564 72.1074C152.564 73.3958 151.52 74.4402 150.232 74.4402L55.3328 74.4402C54.0444 74.4402 53 73.3958 53 72.1074V68.4404C53 67.1521 54.0444 66.1076 55.3328 66.1076L150.232 66.1076C151.52 66.1076 152.564 67.1521 152.564 68.4404V72.1074Z" fill="white"/>
<path d="M130.696 74.5255H156.353C157.419 74.5251 158.438 74.9624 159.171 75.7346L182.146 99.9649C182.336 100.167 182.404 100.455 182.324 100.72C182.244 100.986 182.028 101.188 181.758 101.252C180.496 101.569 178.536 101.763 175.652 101.763C173.913 101.763 172.283 101.744 170.761 101.705L161.873 91.8804H151.393L148.827 95.5855L130.126 75.8199C129.921 75.5933 129.868 75.2677 129.992 74.9883C130.115 74.7089 130.391 74.5277 130.696 74.5255Z" fill="#65BFCF"/>
<path d="M161.88 91.8804L170.768 101.705C162.683 101.507 157.536 100.825 154.035 100.081C153.265 99.9199 152.563 99.5262 152.024 98.9534L148.81 95.5653L151.368 91.8804H161.88Z" fill="#40969F"/>
<rect x="161.492" y="91.1053" width="12.0327" height="4.65072" rx="2.10341" transform="rotate(180 161.492 91.1053)" fill="#40969F"/>
<path d="M115.496 74.5022H121.05C122.224 74.5171 123.324 75.0809 124.02 76.0253L141.273 95.0739C142.148 96.2408 142.287 97.8022 141.63 99.1045L132.38 91.8804H121.9L115.302 100.794L116.404 100.969H115.496C113.353 100.969 111.614 99.0541 111.614 96.7055V78.7809C111.614 76.4167 113.353 74.5022 115.496 74.5022Z" fill="#65BFCF"/>
<path d="M121.9 91.8804H132.38L141.63 99.1045C141.124 100.224 140.015 100.951 138.785 100.969H116.404L115.302 100.794L121.9 91.8804Z" fill="#40969F"/>
<rect x="132.381" y="91.1053" width="12.0327" height="4.65072" rx="2.10341" transform="rotate(180 132.381 91.1053)" fill="#40969F"/>
<path opacity="0.1" d="M151.482 98.3836L141.134 87.4506L159.163 75.6029L168.188 85.2454L151.482 98.3836Z" fill="white"/>
<rect x="196.119" y="121.722" width="17.8549" height="2.32536" rx="1.16268" transform="rotate(-180 196.119 121.722)" fill="#292659"/>
<path d="M175.061 128.935C172.918 128.935 192.527 128.935 192.527 128.935C194.67 128.935 195.735 126.99 195.735 125.897C195.735 125.304 195.253 124.823 194.66 124.823H179.339C178.747 124.825 178.268 125.305 178.268 125.897C178.268 127 177.203 128.935 175.061 128.935Z" fill="#292659"/>
<rect x="135.567" y="92.2679" width="6.98671" height="12.4019" rx="2.3328" fill="white"/>
<path d="M81.6843 89.8806H81.6183H81.5523C81.4972 89.8713 81.4427 89.8584 81.3893 89.8418C81.1193 89.7594 80.8905 89.578 80.7489 89.3341L75.7029 80.7187C75.5518 80.4598 75.5112 80.1512 75.5904 79.8622C75.663 79.5712 75.8526 79.3231 76.1144 79.1762C76.2873 79.0712 76.4865 79.0174 76.6888 79.0211C77.0915 79.0263 77.4628 79.2389 77.6708 79.5831L81.7231 86.5321L85.7754 79.5831C85.9778 79.2331 86.3527 79.0186 86.7574 79.0211C86.9588 79.0245 87.1562 79.0777 87.3319 79.1762C87.5902 79.3271 87.7784 79.5736 87.8559 79.8622C87.935 80.1512 87.8945 80.4598 87.7433 80.7187L82.7362 89.3264C82.5987 89.5604 82.3808 89.7367 82.1229 89.8224L82.088 89.8418L81.9444 89.8728H81.8667H81.6843V89.8806Z" fill="#5E48AF"/>
<path d="M86.7537 108.933C86.3511 108.928 85.9797 108.715 85.7717 108.371L81.7077 101.426L77.671 108.371C77.4663 108.719 77.0928 108.932 76.689 108.933C76.4881 108.929 76.2911 108.877 76.1145 108.782C75.8582 108.629 75.6706 108.383 75.5905 108.096C75.5112 107.806 75.5517 107.496 75.7031 107.235L80.749 98.62C80.8876 98.3869 81.1051 98.2109 81.3623 98.124H81.3972L81.5525 98.0968H81.6301H81.8591H81.8941L82.0881 98.1356C82.3568 98.2184 82.5851 98.398 82.7286 98.6394L87.7512 107.255C87.9056 107.514 87.9477 107.825 87.8677 108.115C87.7898 108.404 87.6017 108.65 87.3437 108.801C87.173 108.904 86.9764 108.957 86.777 108.952L86.7537 108.933Z" fill="#5E48AF"/>
<path d="M86.2409 92.485C85.9719 92.4806 85.7126 92.3834 85.5073 92.2098L85.4801 92.1788C85.4392 92.1462 85.4026 92.1084 85.3714 92.0664L85.3443 92.0354C85.3155 92.0001 85.2895 91.9625 85.2666 91.923C85.2433 91.8911 85.225 91.8558 85.2123 91.8184V91.7796C85.1851 91.6944 85.1657 91.644 85.1541 91.5897C85.0889 91.3135 85.1305 91.0228 85.2705 90.7758L90.1806 82.1061C90.3865 81.7562 90.7602 81.5389 91.1665 81.5325C91.3644 81.5308 91.559 81.5831 91.7293 81.6837C92.2762 81.9937 92.4689 82.6869 92.1602 83.2339L88.1933 90.21H96.2397C96.5416 90.209 96.8315 90.3283 97.045 90.5415C97.2585 90.7546 97.378 91.0441 97.3769 91.3456C97.3795 91.646 97.2589 91.9345 97.0431 92.1439C96.8315 92.3595 96.542 92.481 96.2397 92.4811L86.2409 92.485Z" fill="#5E48AF"/>
<path d="M72.3023 106.414C72.1044 106.416 71.9098 106.363 71.7395 106.263C71.4788 106.112 71.2868 105.866 71.2039 105.577C71.1264 105.287 71.164 104.979 71.3087 104.716L75.2717 97.7403H67.2292C66.9273 97.7413 66.6374 97.622 66.4239 97.4088C66.2104 97.1956 66.0909 96.9062 66.0919 96.6047C66.0874 96.3027 66.2082 96.0124 66.4257 95.8025C66.6387 95.5894 66.9277 95.4696 67.2292 95.4692H77.2124C77.484 95.47 77.746 95.5691 77.9499 95.7482L77.9771 95.7753C78.0167 95.8082 78.0519 95.8459 78.0819 95.8877L78.1285 95.9459C78.1496 95.9771 78.169 96.0095 78.1867 96.0428C78.2109 96.0747 78.2305 96.11 78.2449 96.1474V96.1862C78.2712 96.2471 78.2907 96.3108 78.3031 96.3761C78.3651 96.6508 78.3251 96.9386 78.1906 97.1861L73.2688 105.86C73.0679 106.202 72.7001 106.413 72.3023 106.414Z" fill="#5E48AF"/>
<path d="M91.2874 106.301C90.884 106.295 90.5124 106.081 90.3053 105.736L85.2594 97.1241C85.1271 96.8887 85.0792 96.6152 85.1235 96.3489V96.3102C85.1344 96.261 85.15 96.213 85.1701 96.1668L85.2012 96.1009C85.2152 96.0677 85.2335 96.0364 85.2555 96.0079C85.2726 95.9681 85.2962 95.9314 85.3254 95.8994L85.3525 95.8722L85.4845 95.7289C85.6904 95.5371 85.9599 95.428 86.2414 95.4227L96.2246 95.318C96.8544 95.3178 97.3702 95.8174 97.3891 96.4458C97.3922 96.7473 97.2747 97.0376 97.0626 97.2522C96.8506 97.4668 96.5615 97.5881 96.2596 97.5891L88.2132 97.6744L92.2577 104.619C92.4087 104.88 92.4492 105.19 92.3703 105.48C92.2952 105.77 92.1063 106.017 91.8463 106.166C91.6677 106.254 91.4712 106.301 91.2718 106.301H91.2874Z" fill="#5E48AF"/>
<path d="M67.1989 92.64C66.5797 92.6258 66.08 92.1303 66.0616 91.5122C66.0585 91.2107 66.176 90.9205 66.388 90.7058C66.6001 90.4912 66.8891 90.3699 67.1911 90.3689L75.2375 90.2798L71.1929 83.3463C70.8787 82.8047 71.0627 82.1113 71.6044 81.7961C71.7773 81.6911 71.9765 81.6373 72.1788 81.6411C72.5815 81.6462 72.9528 81.8588 73.1609 82.203L78.2068 90.8185C78.3409 91.0532 78.389 91.3273 78.3427 91.5936V91.6323C78.3324 91.6804 78.3168 91.7273 78.2961 91.7719L78.2689 91.8416C78.2522 91.8742 78.2327 91.9053 78.2107 91.9346C78.1796 91.985 78.1719 92.0122 78.1525 92.0393L78.1253 92.0703C78.0671 92.1362 78.0283 92.1749 77.9894 92.2137C77.7856 92.4062 77.517 92.5154 77.2364 92.5199L67.1989 92.64Z" fill="#5E48AF"/>
<rect x="159.633" y="63.0072" width="43.8416" height="6.00718" rx="2.6244" transform="rotate(180 159.633 63.0072)" fill="#65BFCF"/>
<rect x="123.225" y="63.0072" width="16.9156" height="6.00718" rx="2.6244" transform="rotate(180 123.225 63.0072)" fill="#40969F"/>
<path d="M62.541 128.933C62.541 123.796 66.7118 119.632 71.8566 119.632C77.0015 119.632 81.1723 123.796 81.1723 128.933H85.896C85.896 121.228 79.6399 114.981 71.9226 114.981C64.2053 114.981 57.9492 121.228 57.9492 128.933H62.541Z" fill="white"/>
<rect x="203.6" y="138" width="150.336" height="1.944" rx="0.972" transform="rotate(-180 203.6 138)" fill="#292659"/>
<path d="M71.8568 137.225C76.1441 137.225 79.6198 133.755 79.6198 129.474C79.6198 125.193 76.1441 121.722 71.8568 121.722C67.5694 121.722 64.0938 125.193 64.0938 129.474C64.0938 133.755 67.5694 137.225 71.8568 137.225Z" fill="#5E48AF"/>
<path d="M71.8288 133.349C73.9725 133.349 75.7103 131.614 75.7103 129.474C75.7103 127.333 73.9725 125.598 71.8288 125.598C69.6851 125.598 67.9473 127.333 67.9473 129.474C67.9473 131.614 69.6851 133.349 71.8288 133.349Z" fill="#292659"/>
<path d="M136.911 128.933C136.911 123.796 141.082 119.632 146.227 119.632C151.372 119.632 155.542 123.796 155.542 128.933H160.266C160.266 121.228 154.01 114.981 146.293 114.981C138.575 114.981 132.319 121.228 132.319 128.933H136.911Z" fill="white"/>
<path d="M146.381 137.225C150.669 137.225 154.144 133.755 154.144 129.474C154.144 125.193 150.669 121.722 146.381 121.722C142.094 121.722 138.618 125.193 138.618 129.474C138.618 133.755 142.094 137.225 146.381 137.225Z" fill="#5E48AF"/>
<path d="M146.354 133.349C148.498 133.349 150.236 131.614 150.236 129.474C150.236 127.333 148.498 125.598 146.354 125.598C144.21 125.598 142.473 127.333 142.473 129.474C142.473 131.614 144.21 133.349 146.354 133.349Z" fill="#292659"/>
<path fill-rule="evenodd" clip-rule="evenodd" d="M154.144 100.5C154.144 100.5 178.06 97.5 184.366 100.81C184.366 100.81 193.435 85.5409 203.6 82.2809L202.844 80.7904C196.263 80.7904 169.445 80.7904 169.445 80.7904C160.835 84.6238 156.406 91.0799 152.437 99.56L154.144 100.5Z" fill="white"/>
<path fill-rule="evenodd" clip-rule="evenodd" d="M158.475 102.094C158.475 102.094 168.904 107.396 171.292 113.196H201.622C201.622 113.196 199.888 107.234 184.366 101.271C184.366 101.271 183.397 102.87 174.224 102.87C165.051 102.87 158.475 102.094 158.475 102.094Z" fill="#292659"/>
<path fill-rule="evenodd" clip-rule="evenodd" d="M171 108.234C171 107.681 171.448 107.234 172 107.234H184.672C185.091 107.234 185.508 107.286 185.914 107.39L191.238 108.755C191.68 108.869 191.989 109.267 191.989 109.724V113.196H173C171.895 113.196 171 112.301 171 111.196V108.234Z" fill="#5E48AF"/>
<path fill-rule="evenodd" clip-rule="evenodd" d="M180.559 109.275C180.523 109.83 179.769 109.942 179.614 109.409C178.084 104.145 175.433 91.9391 180.451 83.0561C187.017 71.4316 180.451 58.3376 173.946 52.0316C167.442 45.7256 146.293 21.3015 161.898 1.86187C177.502 -17.5778 207.375 23.1589 207.375 23.1589C207.375 23.1589 189.622 38.2968 194.728 54.1541C199.833 70.0115 188.903 83.542 184.677 91.7583C181.695 97.5561 180.817 105.249 180.559 109.275Z" fill="#292659"/>
<path fill-rule="evenodd" clip-rule="evenodd" d="M183.401 48.6438C183.401 48.6438 179.289 39.9296 179.753 28.7883C179.753 28.7883 175.541 39.0708 183.401 48.6438Z" fill="#5E48AF"/>
</g>
<rect x="161.573" y="110.871" width="16.3023" height="4.65072" rx="2.32536" fill="#ECC525"/>
<rect x="195.343" y="110.871" width="12.0327" height="4.65072" rx="2.32536" fill="#ECC525"/>
</svg>
