<svg xmlns="http://www.w3.org/2000/svg" width="260" height="200" viewBox="0 0 260 200">
    <g fill="none" fill-rule="evenodd">
        <g transform="translate(26 15)">
            <circle cx="123" cy="85" r="85" fill="#65BFCF" fill-rule="nonzero" opacity=".4"/>
            <path fill="#FFF" fill-rule="nonzero" d="M152.904 40.548l-78.017 4.089c-9.765.512-17.315 8.964-16.799 18.806l2.78 53.026 8.27-.433-.011-.201c-.458-8.738 6.242-16.239 14.91-16.693 8.67-.454 16.117 6.305 16.575 15.043l.01.2 47.628-2.495-.01-.201c-.459-8.738 6.242-16.239 14.91-16.693 8.67-.454 16.117 6.305 16.575 15.043l.01.2 5.58-.292c4.584-.24 8.17-4.255 7.928-8.875l-1.321-25.207c-1.279-20.578-18.692-36.382-39.018-35.317z"/>
            <path fill="#5E48AF" d="M67.063 62.722l1.222 23.317 30.957-1.622-1.622-30.958-23.04 1.208c-4.365.228-7.736 3.887-7.517 8.055zM105.609 53.04L144.555 51l1.622 30.957-38.946 2.041zM153.166 50.548l-1.62.085 1.622 30.958 28.96-1.518-.218-4.168c-.775-14.784-13.656-26.148-28.744-25.357zM185.395 88.01c-2.113.11-3.756 1.837-3.655 3.762l.04.77c.107 2.021 1.916 3.47 4.028 3.36l6.146-.322-.42-7.99-6.145.323.006.096zM66.238 102.072c2.133-.112 3.792-1.84 3.691-3.765l-.04-.77c-.106-2.021-1.932-3.47-4.065-3.358l-6.108.32.418 7.99 6.109-.32-.005-.097z"/>
            <path fill="#FFF" fill-rule="nonzero" d="M88.69 66.78l-3.215.168-.169-3.215c-.073-1.406-1.242-2.554-2.547-2.485l-.503.026c-1.306.068-2.347 1.332-2.274 2.738l.169 3.215-3.215.168c-1.406.074-2.554 1.242-2.485 2.548l.026.502c.069 1.306 1.332 2.348 2.738 2.274l3.215-.168.168 3.214c.074 1.407 1.242 2.554 2.548 2.486l.502-.027c1.306-.068 2.348-1.331 2.274-2.738l-.168-3.214 3.214-.169c1.407-.073 2.554-1.242 2.486-2.548l-.027-.502c-.068-1.306-1.23-2.353-2.738-2.274z"/>
            <path fill="#65BFCF" fill-rule="nonzero" d="M139.039 41.275c-.119-2.267 1.573-4.088 3.752-4.202l4.06-.213c2.18-.114 4.058 1.628 4.171 3.787"/>
            <rect width="32" height="5" x="69" y="119" fill="#5E48AF" rx="2.5"/>
            <path stroke="#65BFCF" stroke-width="3" d="M15 114c9.538 3.47 18.04 3.47 25.502 0 11.194-5.206 20.62-11.512 32.517-2.5"/>
            <path fill="#65BFCF" fill-rule="nonzero" d="M13 80h3v22h-3z"/>
            <rect width="29" height="5" y="78" fill="#5E48AF" rx="2.5"/>
            <rect width="7" height="36" x="11" y="88" fill="#5E48AF" rx="3.5"/>
            <rect width="24" height="3" x="3" y="121" fill="#5E48AF" rx="1.5"/>
            <path fill="#5E48AF" d="M96.363 120.618A13.298 13.298 0 0 0 98 114.2c0-7.29-5.82-13.2-13-13.2s-13 5.91-13 13.2c0 2.773.842 5.346 2.28 7.47.541.798 21.488.031 22.083-1.052z"/>
            <circle cx="85" cy="114" r="9" fill="#65BFCF" fill-rule="nonzero"/>
            <circle cx="164" cy="111" r="13" fill="#5E48AF"/>
            <circle cx="164" cy="111" r="9" fill="#65BFCF" fill-rule="nonzero"/>
        </g>
    </g>
</svg>
