<svg width="260" height="200" viewBox="0 0 260 200" fill="none" xmlns="http://www.w3.org/2000/svg">
<path d="M130 200C185.228 200 230 155.228 230 100C230 44.7715 185.228 0 130 0C74.7715 0 30 44.7715 30 100C30 155.228 74.7715 200 130 200Z" fill="#5E48AF"/>
<mask id="mask0" mask-type="alpha" maskUnits="userSpaceOnUse" x="30" y="0" width="200" height="200">
<path d="M130 200C185.228 200 230 155.228 230 100C230 44.7715 185.228 0 130 0C74.7715 0 30 44.7715 30 100C30 155.228 74.7715 200 130 200Z" fill="white"/>
</mask>
<g mask="url(#mask0)">
<path fill-rule="evenodd" clip-rule="evenodd" d="M84.3164 163.778V48.9007C84.3164 46.2053 86.5237 44 89.2215 44H161.198C163.896 44 166.104 46.2053 166.104 48.9007V158.878C166.104 161.573 163.896 163.778 161.198 163.778H84.3164Z" fill="#DDDDDD"/>
<path fill-rule="evenodd" clip-rule="evenodd" d="M103.182 163.778V48.9007C103.182 46.2053 105.38 44 108.066 44H169.043C171.729 44 173.928 46.2053 173.928 48.9007V163.778H103.182Z" fill="#FEFEFE"/>
<path fill-rule="evenodd" clip-rule="evenodd" d="M167.382 163.778H110.131V141.501C110.131 139.584 111.707 138.016 113.633 138.016H163.881C165.807 138.016 167.382 139.584 167.382 141.501V163.778Z" fill="#66BFCF"/>
<path fill-rule="evenodd" clip-rule="evenodd" d="M121.586 125.441H110.663C109.685 125.441 108.885 124.641 108.885 123.663V107.915C108.885 106.937 109.685 106.137 110.663 106.137H121.586C122.563 106.137 123.363 106.937 123.363 107.915V123.663C123.363 124.641 122.563 125.441 121.586 125.441Z" fill="#66BFCF"/>
<path fill-rule="evenodd" clip-rule="evenodd" d="M124.379 125.822H108.088C107.561 125.822 107.13 125.391 107.13 124.864C107.13 124.337 107.561 123.906 108.088 123.906H124.379C124.906 123.906 125.337 124.337 125.337 124.864C125.337 125.391 124.906 125.822 124.379 125.822Z" fill="#DDDDDD"/>
<path fill-rule="evenodd" clip-rule="evenodd" d="M144.18 125.441H133.257C132.279 125.441 131.479 124.641 131.479 123.663V107.915C131.479 106.937 132.279 106.137 133.257 106.137H144.18C145.157 106.137 145.957 106.937 145.957 107.915V123.663C145.957 124.641 145.157 125.441 144.18 125.441Z" fill="#66BFCF"/>
<path fill-rule="evenodd" clip-rule="evenodd" d="M146.973 125.822H130.683C130.156 125.822 129.725 125.391 129.725 124.864C129.725 124.337 130.156 123.906 130.683 123.906H146.973C147.5 123.906 147.932 124.337 147.932 124.864C147.932 125.391 147.5 125.822 146.973 125.822Z" fill="#DDDDDD"/>
<path fill-rule="evenodd" clip-rule="evenodd" d="M166.774 125.441H155.851C154.874 125.441 154.074 124.641 154.074 123.663V107.915C154.074 106.937 154.874 106.137 155.851 106.137H166.774C167.752 106.137 168.552 106.937 168.552 107.915V123.663C168.552 124.641 167.752 125.441 166.774 125.441Z" fill="#66BFCF"/>
<path fill-rule="evenodd" clip-rule="evenodd" d="M169.567 125.822H153.277C152.75 125.822 152.318 125.391 152.318 124.864C152.318 124.337 152.75 123.906 153.277 123.906H169.567C170.094 123.906 170.526 124.337 170.526 124.864C170.526 125.391 170.094 125.822 169.567 125.822Z" fill="#DDDDDD"/>
<path fill-rule="evenodd" clip-rule="evenodd" d="M96.0707 125.422H91.0784C90.1007 125.422 89.3008 124.622 89.3008 123.645V107.896C89.3008 106.918 90.1007 106.119 91.0784 106.119H96.0707C97.0485 106.119 97.8484 106.918 97.8484 107.896V123.645C97.8484 124.622 97.0485 125.422 96.0707 125.422Z" fill="#41969F"/>
<path fill-rule="evenodd" clip-rule="evenodd" d="M98.0555 125.804H89.2238C88.6966 125.804 88.2656 125.373 88.2656 124.845C88.2656 124.318 88.6966 123.887 89.2238 123.887H98.0555C98.5827 123.887 99.0141 124.318 99.0141 124.845C99.0141 125.373 98.5827 125.804 98.0555 125.804Z" fill="#FEFEFE"/>
<path fill-rule="evenodd" clip-rule="evenodd" d="M96.0707 99.2508H91.0784C90.1007 99.2508 89.3008 98.4509 89.3008 97.4732V81.7242C89.3008 80.7465 90.1007 79.9466 91.0784 79.9466H96.0707C97.0485 79.9466 97.8484 80.7465 97.8484 81.7242V97.4732C97.8484 98.4509 97.0485 99.2508 96.0707 99.2508Z" fill="#41969F"/>
<path fill-rule="evenodd" clip-rule="evenodd" d="M96.0707 73.0789H91.0784C90.1007 73.0789 89.3008 72.2791 89.3008 71.3013V55.5524C89.3008 54.5746 90.1007 53.7747 91.0784 53.7747H96.0707C97.0485 53.7747 97.8484 54.5746 97.8484 55.5524V71.3013C97.8484 72.2791 97.0485 73.0789 96.0707 73.0789Z" fill="#41969F"/>
<path fill-rule="evenodd" clip-rule="evenodd" d="M98.0555 99.632H89.2238C88.6966 99.632 88.2656 99.2006 88.2656 98.6735C88.2656 98.1464 88.6966 97.7153 89.2238 97.7153H98.0555C98.5827 97.7153 99.0141 98.1464 99.0141 98.6735C99.0141 99.2006 98.5827 99.632 98.0555 99.632Z" fill="#FEFEFE"/>
<path fill-rule="evenodd" clip-rule="evenodd" d="M98.0555 73.4601H89.2238C88.6966 73.4601 88.2656 73.0287 88.2656 72.5016C88.2656 71.9745 88.6966 71.5435 89.2238 71.5435H98.0555C98.5827 71.5435 99.0141 71.9745 99.0141 72.5016C99.0141 73.0287 98.5827 73.4601 98.0555 73.4601Z" fill="#FEFEFE"/>
<path fill-rule="evenodd" clip-rule="evenodd" d="M96.0707 152.642H91.0784C90.1007 152.642 89.3008 151.842 89.3008 150.864V135.116C89.3008 134.138 90.1007 133.338 91.0784 133.338H96.0707C97.0485 133.338 97.8484 134.138 97.8484 135.116V150.864C97.8484 151.842 97.0485 152.642 96.0707 152.642Z" fill="#41969F"/>
<path fill-rule="evenodd" clip-rule="evenodd" d="M98.0555 153.023H89.2238C88.6966 153.023 88.2656 152.592 88.2656 152.065C88.2656 151.538 88.6966 151.107 89.2238 151.107H98.0555C98.5827 151.107 99.0141 151.538 99.0141 152.065C99.0141 152.592 98.5827 153.023 98.0555 153.023Z" fill="#FEFEFE"/>
<path fill-rule="evenodd" clip-rule="evenodd" d="M157.568 147.217C157.568 148.459 156.561 149.466 155.318 149.466C154.076 149.466 153.069 148.459 153.069 147.217C153.069 145.975 154.076 144.967 155.318 144.967C156.561 144.967 157.568 145.975 157.568 147.217Z" fill="#41969F"/>
<path fill-rule="evenodd" clip-rule="evenodd" d="M166.275 155.683H134.139C133.527 155.683 133.032 155.224 133.032 154.657V153.847C133.032 153.28 133.527 152.821 134.139 152.821H166.275C166.886 152.821 167.382 153.28 167.382 153.847V154.657C167.382 155.224 166.886 155.683 166.275 155.683Z" fill="#41969F"/>
<path fill-rule="evenodd" clip-rule="evenodd" d="M134.667 163.778H167.382V154.373H134.667V163.778Z" fill="#41969F"/>
<path fill-rule="evenodd" clip-rule="evenodd" d="M159.203 154.396C159.203 157.445 157.464 159.917 155.318 159.917C153.173 159.917 151.434 157.445 151.434 154.396C151.434 151.347 153.173 148.875 155.318 148.875C157.464 148.875 159.203 151.347 159.203 154.396Z" fill="#41969F"/>
<path fill-rule="evenodd" clip-rule="evenodd" d="M148.622 150.136H144.432C144.009 150.136 143.664 150.483 143.664 150.908V154.271C143.664 154.696 144.009 155.043 144.432 155.043H148.622C149.044 155.043 149.389 154.696 149.389 154.271V150.908C149.389 150.483 149.044 150.136 148.622 150.136Z" fill="#41969F"/>
<path opacity="0.424572" fill-rule="evenodd" clip-rule="evenodd" d="M143.742 138.016L130.947 163.778H115.116L129.382 138.016H143.742Z" fill="#FEFEFE" fill-opacity="0.3"/>
<path opacity="0.424572" fill-rule="evenodd" clip-rule="evenodd" d="M154.867 138.016L142.034 163.778H134.42L147.913 138.015L154.867 138.016Z" fill="#FEFEFE" fill-opacity="0.3"/>
<rect x="154" y="62" width="3" height="22" rx="1.5" fill="#7056CE"/>
<rect x="162" y="62" width="3" height="13" rx="1.5" transform="rotate(90 162 62)" fill="#7056CE"/>
<rect x="114" y="62" width="3" height="22" rx="1.5" fill="#7056CE"/>
<rect x="124" y="75" width="3" height="9" rx="1.5" fill="#7056CE"/>
<rect x="120" y="75" width="7" height="3" rx="1.5" fill="#7056CE"/>
<rect x="125" y="62" width="3" height="11" rx="1.5" transform="rotate(90 125 62)" fill="#7056CE"/>
<rect x="127" y="81" width="3" height="13" rx="1.5" transform="rotate(90 127 81)" fill="#7056CE"/>
<rect x="142" y="62" width="3" height="22" rx="1.5" fill="#7056CE"/>
<rect x="132" y="62" width="3" height="22" rx="1.5" fill="#7056CE"/>
<rect x="144" y="70" width="3" height="11" rx="1.5" transform="rotate(90 144 70)" fill="#7056CE"/>
<rect x="179" y="165" width="99" height="2" rx="1" transform="rotate(-180 179 165)" fill="#292659"/>
</g>
</svg>
