<svg width="260" height="200" viewBox="0 0 260 200" fill="none" xmlns="http://www.w3.org/2000/svg">
<path d="M130 200C185.228 200 230 155.228 230 100C230 44.7715 185.228 0 130 0C74.7715 0 30 44.7715 30 100C30 155.228 74.7715 200 130 200Z" fill="#5E48AF"/>
<mask id="mask0" mask-type="alpha" maskUnits="userSpaceOnUse" x="30" y="0" width="200" height="200">
<path d="M130 200C185.228 200 230 155.228 230 100C230 44.7715 185.228 0 130 0C74.7715 0 30 44.7715 30 100C30 155.228 74.7715 200 130 200Z" fill="white"/>
</mask>
<g mask="url(#mask0)">
<path d="M176.763 162.706C185.992 165.179 191.512 174.586 189.192 183.911L189.109 184.232L188.072 187.288C187.806 188.073 186.954 188.493 186.17 188.227C185.431 187.976 185.016 187.207 185.191 186.463L185.231 186.324L186.239 183.362C188.312 175.627 183.722 167.676 175.986 165.603C168.353 163.558 160.509 168.002 158.312 175.553L158.227 175.857L157.192 179.72C155.574 185.761 149.435 189.383 143.391 187.924L143.108 187.852C137.053 186.23 133.428 180.2 134.878 174.175L134.951 173.888L139.117 158.313C139.331 157.513 140.153 157.038 140.954 157.252C141.707 157.453 142.172 158.194 142.046 158.947L142.015 159.088L137.849 174.663C136.642 179.173 139.324 183.732 143.884 184.954C148.336 186.147 152.91 183.575 154.225 179.189L154.294 178.944L155.415 174.762L155.511 174.449C158.235 165.601 167.422 160.383 176.444 162.624L176.763 162.706Z" fill="#292659"/>
<path d="M143.087 114.933C132.951 112.217 122.533 118.232 119.817 128.368C117.101 138.504 123.116 148.922 133.252 151.638C143.388 154.354 153.806 148.339 156.522 138.203C159.238 128.067 153.223 117.649 143.087 114.933Z" fill="#292659"/>
<rect x="153.352" y="95.9427" width="11" height="19" transform="rotate(15 153.352 95.9427)" fill="#292659"/>
<path d="M142.503 146.505L105.057 168.402L87.8583 165.831L85.9993 170.705L106.948 171.719L144.394 149.822" fill="#EDEDED"/>
<path d="M139.633 149L143.791 150.187L143.633 160.5L137.633 159L139.633 149Z" fill="#EDEDED"/>
<path d="M148.365 118.418C139.296 115.988 129.974 121.37 127.544 130.439C125.114 139.508 130.496 148.829 139.565 151.259C148.634 153.689 157.956 148.307 160.386 139.239C162.816 130.17 157.434 120.848 148.365 118.418Z" fill="#EDEDED"/>
<rect x="147.538" y="109.914" width="7" height="10" transform="rotate(15 147.538 109.914)" fill="#EDEDED"/>
<rect x="96.3623" y="80.6724" width="11" height="19" transform="rotate(15 96.3623 80.6724)" fill="#292659"/>
<path fill-rule="evenodd" clip-rule="evenodd" d="M152.367 111.208L162.027 113.796L159.763 122.245C165.922 126.106 169.127 133.662 167.147 141.05C164.731 150.068 155.5 155.441 146.479 153.111L143.634 160.5L139.634 159.5L140.729 154.298L107.977 173.205L86.7953 174.118L85.8323 170.529L106.052 169.872L140.314 150.093C135.066 146.025 132.48 139.066 134.306 132.25C136.285 124.862 142.839 119.921 150.104 119.657L152.367 111.208Z" fill="white"/>
<path d="M153.832 125.059C147.431 123.344 140.851 127.143 139.136 133.544C137.42 139.946 141.219 146.526 147.621 148.241C154.022 149.957 160.602 146.158 162.318 139.756C164.033 133.355 160.234 126.774 153.832 125.059Z" fill="#EDEDED"/>
<path d="M152.664 128.956C148.396 127.812 144.01 130.345 142.866 134.613C141.723 138.88 144.255 143.267 148.523 144.411C152.791 145.554 157.178 143.021 158.321 138.754C159.465 134.486 156.932 130.099 152.664 128.956Z" fill="white"/>
<path fill-rule="evenodd" clip-rule="evenodd" d="M148.569 37.7111L139.212 35.2633L138.259 36.8956C138.222 36.8986 138.185 36.9018 138.148 36.9049C119.756 34.6682 108.016 42.3239 103.475 58.7662L105.213 59.2319L100.554 76.6192L110.213 79.2074L115.105 60.9517C118.906 48.4215 131.109 40.5813 143.847 41.9639C157.118 46.4931 164.823 60.5291 161.283 74.2558L162.203 74.5023L157.544 91.8895L167.203 94.4777L171.862 77.0904L171.877 77.0944C171.963 76.7715 172.044 76.4483 172.12 76.1251C176.064 59.3644 165.974 42.3847 149.2 37.89C148.999 37.8362 148.798 37.7844 148.597 37.7347L148.569 37.7111Z" fill="white"/>
<path fill-rule="evenodd" clip-rule="evenodd" d="M139.575 35.311C122.819 30.8213 105.607 40.4853 100.642 56.9725C100.547 57.2905 100.455 57.6109 100.369 57.9339L100.369 57.9339L100.384 57.9379L95.9835 74.3592L95.7247 75.3251L94.1718 81.1207L98.0355 82.156L99.0014 82.4148L108.661 85.003L110.214 79.2074L100.554 76.6192L100.813 75.6533L105.431 58.4176C109.62 44.5064 124.143 36.3524 138.281 40.1406C152.419 43.9288 160.919 58.2519 157.591 72.3937L152.973 89.6295L152.714 90.5955L151.161 96.391L155.025 97.4263L155.991 97.6851L165.65 100.273L167.203 94.4777L157.544 91.8895L157.803 90.9236L162.203 74.5023L162.218 74.5062C162.304 74.1833 162.385 73.8602 162.462 73.5371C166.406 56.7764 156.331 39.8008 139.575 35.311Z" fill="#65BFCF"/>
<path fill-rule="evenodd" clip-rule="evenodd" d="M96.3439 96.1966L90.5484 94.6436L88.4095 102.626C80.3559 101.935 72.72 107.088 70.5549 115.168C68.1249 124.237 73.5068 133.559 82.5757 135.989C91.6447 138.419 100.966 133.037 103.396 123.968C105.561 115.888 101.525 107.607 94.2051 104.179L96.3439 96.1966Z" fill="#EDEDED"/>
<rect x="95.3779" y="95.9377" width="10" height="10" transform="rotate(15 95.3779 95.9377)" fill="white"/>
<path d="M98.1369 104.959C89.068 102.529 79.7463 107.911 77.3163 116.98C74.8862 126.049 80.2682 135.371 89.3371 137.801C98.406 140.231 107.728 134.849 110.158 125.78C112.588 116.711 107.206 107.389 98.1369 104.959Z" fill="white"/>
<path d="M100.587 103.545C90.4507 100.829 80.0323 106.844 77.3164 116.98C74.6005 127.116 80.6156 137.534 90.7514 140.25C100.887 142.966 111.306 136.951 114.022 126.815C116.737 116.679 110.722 106.261 100.587 103.545Z" fill="#292659"/>
<path d="M98.6109 113.101C93.8097 111.814 88.8747 114.663 87.5882 119.465C86.3017 124.266 89.151 129.201 93.9522 130.487C98.7534 131.774 103.688 128.924 104.975 124.123C106.261 119.322 103.412 114.387 98.6109 113.101Z" fill="#5E48AF"/>
<mask id="mask1" mask-type="alpha" maskUnits="userSpaceOnUse" x="87" y="112" width="19" height="19">
<path d="M98.6109 113.101C93.8097 111.814 88.8747 114.663 87.5882 119.465C86.3017 124.266 89.151 129.201 93.9522 130.487C98.7534 131.774 103.688 128.924 104.975 124.123C106.261 119.322 103.412 114.387 98.6109 113.101Z" fill="white"/>
</mask>
<g mask="url(#mask1)">
<path fill-rule="evenodd" clip-rule="evenodd" d="M102.44 109.834L83.9475 120.511L83.4475 119.645L101.94 108.968L102.44 109.834Z" fill="#292659"/>
<path fill-rule="evenodd" clip-rule="evenodd" d="M105.338 110.61L83.1711 123.408L82.6711 122.542L104.838 109.744L105.338 110.61Z" fill="#292659"/>
<path fill-rule="evenodd" clip-rule="evenodd" d="M107.011 112.094L82.3946 126.306L81.8946 125.44L106.511 111.228L107.011 112.094Z" fill="#292659"/>
<path fill-rule="evenodd" clip-rule="evenodd" d="M108.072 113.931L81.6182 129.204L81.1182 128.338L107.572 113.065L108.072 113.931Z" fill="#292659"/>
<path fill-rule="evenodd" clip-rule="evenodd" d="M107.295 116.829L80.8418 132.102L80.3418 131.236L106.795 115.963L107.295 116.829Z" fill="#292659"/>
<path fill-rule="evenodd" clip-rule="evenodd" d="M106.519 119.727L80.0655 135L79.5655 134.134L106.019 118.861L106.519 119.727Z" fill="#292659"/>
<path fill-rule="evenodd" clip-rule="evenodd" d="M105.742 122.624L86.7588 133.585L86.2588 132.719L105.242 121.758L105.742 122.624Z" fill="#292659"/>
<path fill-rule="evenodd" clip-rule="evenodd" d="M106.803 124.462L89.6568 134.361L89.1568 133.495L106.303 123.596L106.803 124.462Z" fill="#292659"/>
</g>
</g>
</svg>
