<svg width="260" height="200" viewBox="0 0 260 200" fill="none" xmlns="http://www.w3.org/2000/svg">
  <mask id="illustration-invoice-validated-mask0" style="mask-type:alpha" maskUnits="userSpaceOnUse" x="30" y="0" width="200" height="200">
  <path d="M130 200C185.228 200 230 155.228 230 100C230 44.7715 185.228 0 130 0C74.7715 0 30 44.7715 30 100C30 155.228 74.7715 200 130 200Z" fill="white"/>
  </mask>
  <g mask="url(#illustration-invoice-validated-mask0)">
    <mask id="illustration-invoice-validated-mask1" style="mask-type:alpha" maskUnits="userSpaceOnUse" x="30" y="0" width="200" height="200">
      <path d="M130 200C185.228 200 230 155.228 230 100C230 44.7715 185.228 0 130 0C74.7715 0 30 44.7715 30 100C30 155.228 74.7715 200 130 200Z" fill="white"/>
    </mask>
    <g mask="url(#illustration-invoice-validated-mask1)">
      <path d="M130 200C185.228 200 230 155.228 230 100C230 44.7715 185.228 0 130 0C74.7715 0 30 44.7715 30 100C30 155.228 74.7715 200 130 200Z" fill="#5E48AF"/>
      <path d="M121 64.0165C121 58.4846 125.485 54 131.017 54H176.983C182.515 54 187 58.4846 187 64.0165V77C187 78.1046 186.105 79 185 79H131.017C125.485 79 121 74.5154 121 68.9835V64.0165Z" fill="#292659"/>
      <path fill-rule="evenodd" clip-rule="evenodd" d="M111.017 54C105.485 54 101 58.4846 101 64.0165V144.983C101 150.515 105.485 155 111.017 155H153.645C161.021 155 167 149.021 167 141.645L167 64.0165L167 64C167 58.5185 171.41 54.0672 176.876 54.0008V54H167H151H111.017Z" fill="white"/>
      <path fill-rule="evenodd" clip-rule="evenodd" d="M79 131C77.8954 131 77 131.895 77 133V141.645C77 149.021 82.9794 155 90.3554 155H146L156.297 155V154.999C152.247 154.943 148.598 153.227 146 150.5V133C146 131.895 145.105 131 144 131H79Z" fill="#EDEDED"/>
      <rect x="107.562" y="36.0122" width="9.22108" height="4" rx="2" transform="rotate(90.1745 107.562 36.0122)" fill="#65BFCF"/>
      <rect x="81" y="59.9937" width="9.38832" height="4" rx="2" transform="rotate(-0.0346615 81 59.9937)" fill="#65BFCF"/>
      <rect x="85.5977" y="39.8076" width="11.723" height="4" rx="2" transform="rotate(42.761 85.5977 39.8076)" fill="#65BFCF"/>
      <path fill-rule="evenodd" clip-rule="evenodd" d="M171 64V72.0007V140.5V141H170.992C170.728 148.777 164.341 155 156.5 155C148.659 155 142.272 148.777 142.008 141H142V140.5V133C142 131.895 142.895 131 144 131C145.105 131 146 131.895 146 133V133.595V140.5V141H146.012C146.273 146.567 150.869 151 156.5 151C162.131 151 166.727 146.567 166.988 141H167V140.5V130.5V81.6265V81.6265V64C167 58.4772 171.477 54 177 54C182.523 54 187 58.4772 187 64V77C187 78.1046 186.105 79 185 79C183.895 79 183 78.1046 183 77V72.0007V64C183 60.6863 180.314 58 177 58C173.686 58 171 60.6863 171 64Z" fill="#EDEDED"/>
      <rect x="112" y="107" width="45" height="3" rx="1.5" fill="#EDEDED"/>
      <rect x="112" y="86" width="22" height="3" rx="1.5" fill="#EDEDED"/>
      <rect x="112" y="114" width="45" height="3" rx="1.5" fill="#EDEDED"/>
      <rect x="112" y="93" width="22" height="3" rx="1.5" fill="#EDEDED"/>
      <rect x="112" y="100" width="45" height="3" rx="1.5" fill="#EDEDED"/>
      <rect x="112" y="79" width="22" height="3" rx="1.5" fill="#EDEDED"/>
      <path d="M149.92 95.24C147.36 95.24 145.34 94.65 143.86 93.47C142.4 92.29 141.45 90.47 141.01 88.01H139.9C139.58 88.01 139.35 87.93 139.21 87.77C139.07 87.61 139 87.35 139 86.99V86.78C139 86.42 139.07 86.16 139.21 86C139.35 85.84 139.58 85.76 139.9 85.76H140.77C140.75 85.48 140.74 85.04 140.74 84.44C140.74 84.02 140.75 83.7 140.77 83.48H139.9C139.58 83.48 139.35 83.4 139.21 83.24C139.07 83.08 139 82.82 139 82.46V82.25C139 81.89 139.07 81.63 139.21 81.47C139.35 81.31 139.58 81.23 139.9 81.23H140.98C141.86 76.25 144.89 73.76 150.07 73.76C150.89 73.76 151.74 73.85 152.62 74.03C153.52 74.21 154.26 74.46 154.84 74.78C155.44 75.1 155.74 75.46 155.74 75.86C155.74 76.14 155.63 76.51 155.41 76.97C155.19 77.41 154.92 77.81 154.6 78.17C154.3 78.51 154.03 78.68 153.79 78.68C153.73 78.68 153.52 78.59 153.16 78.41C152.82 78.23 152.38 78.07 151.84 77.93C151.32 77.79 150.7 77.72 149.98 77.72C147.76 77.72 146.35 78.89 145.75 81.23H152.95C153.27 81.23 153.5 81.31 153.64 81.47C153.78 81.63 153.85 81.89 153.85 82.25V82.46C153.85 82.82 153.78 83.08 153.64 83.24C153.5 83.4 153.27 83.48 152.95 83.48H145.45C145.43 83.7 145.42 84.03 145.42 84.47C145.42 85.07 145.43 85.5 145.45 85.76H152.95C153.27 85.76 153.5 85.84 153.64 86C153.78 86.16 153.85 86.42 153.85 86.78V86.99C153.85 87.35 153.78 87.61 153.64 87.77C153.5 87.93 153.27 88.01 152.95 88.01H145.84C146.48 90.21 147.84 91.31 149.92 91.31C150.68 91.31 151.33 91.22 151.87 91.04C152.43 90.86 153.03 90.63 153.67 90.35C153.95 90.19 154.14 90.11 154.24 90.11C154.54 90.11 154.82 90.28 155.08 90.62C155.36 90.96 155.58 91.35 155.74 91.79C155.92 92.21 156.01 92.52 156.01 92.72C156.01 93.28 155.67 93.75 154.99 94.13C154.33 94.51 153.52 94.79 152.56 94.97C151.62 95.15 150.74 95.24 149.92 95.24Z" fill="#7056CE"/>
    </g>
  </g>
</svg>
