<svg width="260" height="201" viewBox="0 0 260 201" fill="none" xmlns="http://www.w3.org/2000/svg">
<mask id="illustration-maintenance-mask0" mask-type="alpha" maskUnits="userSpaceOnUse" x="30" y="1" width="200" height="200">
<path d="M130 201C185.228 201 230 156.228 230 101C230 45.7715 185.228 1 130 1C74.7715 1 30 45.7715 30 101C30 156.228 74.7715 201 130 201Z" fill="white"/>
</mask>
<g mask="url(#illustration-maintenance-mask0)">
<path d="M130 201C185.228 201 230 156.228 230 101C230 45.7715 185.228 1 130 1C74.7715 1 30 45.7715 30 101C30 156.228 74.7715 201 130 201Z" fill="#5E48AF"/>
<path d="M121.854 105.579L119.619 105.184L119.605 105.262L119.597 105.341L121.854 105.579ZM118.462 116.122C118.331 117.369 119.235 118.485 120.482 118.617C121.729 118.748 122.846 117.844 122.977 116.597L118.462 116.122ZM121.322 95.5381L119.619 105.184L124.09 105.973L125.792 96.327L121.322 95.5381ZM119.597 105.341L118.462 116.122L122.977 116.597L124.112 105.816L119.597 105.341Z" fill="#FBD4B1"/>
<path d="M77 142C77 141.448 77.4477 141 78 141H111C111.552 141 112 141.448 112 142V147H77V142Z" fill="#292659"/>
<rect x="121.854" y="116.359" width="7.94382" height="30.6404" fill="#40969F"/>
<path d="M121.854 116.36L137.741 114.657V147H129.797V120.543L121.854 116.36Z" fill="#65BFCF"/>
<path d="M137.741 95.9326L141.898 103.207C142.129 103.611 142.583 103.833 143.044 103.767L150.224 102.742" stroke="#FBD4B1" stroke-width="4.53933"/>
<path fill-rule="evenodd" clip-rule="evenodd" d="M122.989 102.742L121.854 116.36H137.741L137.22 102.87L143.983 99.9045L140.031 94.1968C139.296 93.135 138.144 92.4365 136.862 92.2763L129.798 91.3932L123.491 92.1816C121.791 92.3941 120.356 93.5456 119.779 95.1591L117.882 100.472L122.989 102.742Z" fill="white"/>
<path d="M139 147H120C119.448 147 119 146.552 119 146C119 145.448 119.448 145 120 145H139V147Z" fill="#292659"/>
<rect x="158.438" y="114.573" width="179.058" height="23.9094" rx="6.56187" fill="#292659"/>
<path d="M184.085 145.831C190.115 145.831 195.003 140.95 195.003 134.93C195.003 128.909 190.115 124.028 184.085 124.028C178.055 124.028 173.167 128.909 173.167 134.93C173.167 140.95 178.055 145.831 184.085 145.831Z" fill="#292659"/>
<path d="M229.944 145.831C235.974 145.831 240.862 140.95 240.862 134.93C240.862 128.909 235.974 124.028 229.944 124.028C223.914 124.028 219.025 128.909 219.025 134.93C219.025 140.95 223.914 145.831 229.944 145.831Z" fill="#292659"/>
<rect x="230.893" y="145.831" width="8.5544" height="21.8031" transform="rotate(-180 230.893 145.831)" fill="#292659"/>
<path d="M222.377 145.831C228.407 145.831 233.295 140.95 233.295 134.93C233.295 128.909 228.407 124.028 222.377 124.028C216.347 124.028 211.459 128.909 211.459 134.93C211.459 140.95 216.347 145.831 222.377 145.831Z" fill="#292659"/>
<rect x="185.035" y="145.831" width="8.5544" height="21.8031" transform="rotate(-180 185.035 145.831)" fill="#292659"/>
<path d="M243.329 47.5208L285.582 92.2827C286.156 92.8932 286.864 93.3617 287.651 93.6508C292.875 95.5804 313.773 103.931 313.773 113.944V128.715C313.773 131.726 311.329 134.166 308.314 134.166H294.685C294.685 126.639 291.936 119.94 281.018 119.94C269.554 119.94 267.37 126.639 267.37 134.166L190.397 134.169C190.397 126.642 188.214 119.395 176.75 119.395C164.74 119.395 163.102 126.639 163.102 134.166H155.459C152.444 134.166 150 131.726 150 128.715V51.2601C150 48.2497 152.444 45.8093 155.459 45.8093H239.36C240.862 45.8102 242.298 46.4293 243.329 47.5208Z" fill="#EDEDED"/>
<path d="M290.031 54.2475C290.031 56.0595 288.562 57.5284 286.75 57.5284L153.281 57.5284C151.469 57.5284 150 56.0595 150 54.2475V49.0902C150 47.2782 151.469 45.8093 153.281 45.8093L286.75 45.8093C288.562 45.8093 290.031 47.2782 290.031 49.0902V54.2475Z" fill="white"/>
<path d="M190.343 79.2444H190.25H190.158C190.08 79.2314 190.003 79.2132 189.928 79.1899C189.549 79.074 189.227 78.8189 189.028 78.4759L181.931 66.3588C181.718 65.9947 181.661 65.5606 181.772 65.1541C181.875 64.745 182.141 64.3959 182.509 64.1894C182.753 64.0417 183.033 63.9661 183.317 63.9713C183.884 63.9786 184.406 64.2775 184.699 64.7617L190.398 74.5349L196.097 64.7617C196.382 64.2695 196.909 63.9677 197.478 63.9713C197.762 63.976 198.039 64.0509 198.286 64.1894C198.649 64.4016 198.914 64.7483 199.023 65.1541C199.134 65.5606 199.077 65.9947 198.865 66.3588L191.823 78.465C191.629 78.7942 191.323 79.0421 190.96 79.1627L190.911 79.1899L190.709 79.2335H190.6H190.343V79.2444Z" fill="#5E48AF"/>
<path d="M197.473 106.041C196.907 106.033 196.384 105.734 196.092 105.25L190.376 95.4823L184.699 105.25C184.411 105.739 183.886 106.04 183.318 106.041C183.035 106.035 182.758 105.962 182.51 105.828C182.149 105.613 181.885 105.267 181.773 104.863C181.661 104.455 181.718 104.019 181.931 103.653L189.028 91.536C189.223 91.208 189.529 90.9606 189.89 90.8383H189.939L190.158 90.8001H190.267H190.589H190.638L190.911 90.8546C191.289 90.9711 191.61 91.2236 191.812 91.5632L198.876 103.68C199.093 104.045 199.152 104.482 199.04 104.89C198.93 105.296 198.666 105.642 198.303 105.855C198.063 106 197.786 106.074 197.506 106.068L197.473 106.041Z" fill="#5E48AF"/>
<path d="M196.751 82.9073C196.372 82.9012 196.008 82.7644 195.719 82.5203L195.681 82.4767C195.623 82.4308 195.572 82.3777 195.528 82.3186L195.489 82.275C195.449 82.2253 195.412 82.1724 195.38 82.1169C195.347 82.072 195.322 82.0224 195.304 81.9697V81.9152C195.266 81.7953 195.238 81.7245 195.222 81.6481C195.13 81.2596 195.189 80.8509 195.386 80.5035L202.291 68.3101C202.581 67.818 203.107 67.5122 203.678 67.5034C203.956 67.5009 204.23 67.5744 204.47 67.7159C205.239 68.1519 205.51 69.1269 205.076 69.8962L199.496 79.7077H210.813C211.238 79.7062 211.645 79.874 211.946 80.1738C212.246 80.4737 212.414 80.8807 212.413 81.3047C212.416 81.7273 212.247 82.133 211.943 82.4276C211.646 82.7308 211.238 82.9017 210.813 82.9018L196.751 82.9073Z" fill="#5E48AF"/>
<path d="M177.149 102.497C176.87 102.5 176.597 102.426 176.357 102.285C175.991 102.073 175.72 101.727 175.604 101.32C175.495 100.913 175.548 100.479 175.751 100.11L181.325 90.2985H170.014C169.589 90.3 169.181 90.1322 168.881 89.8324C168.581 89.5325 168.413 89.1255 168.414 88.7015C168.408 88.2767 168.578 87.8683 168.884 87.5731C169.183 87.2735 169.59 87.1049 170.014 87.1044H184.055C184.436 87.1055 184.805 87.245 185.092 87.4968L185.13 87.535C185.186 87.5811 185.235 87.6342 185.277 87.6931L185.343 87.7748C185.373 87.8188 185.4 87.8642 185.425 87.9111C185.459 87.9561 185.486 88.0056 185.507 88.0583V88.1128C185.544 88.1985 185.571 88.2881 185.589 88.3799C185.676 88.7662 185.619 89.171 185.43 89.5191L178.508 101.718C178.225 102.2 177.708 102.497 177.149 102.497Z" fill="#5E48AF"/>
<path d="M203.849 102.339C203.282 102.331 202.759 102.03 202.468 101.544L195.371 89.4319C195.185 89.1008 195.117 88.7163 195.18 88.3418V88.2872C195.195 88.2181 195.217 88.1505 195.245 88.0856L195.289 87.9929C195.309 87.9462 195.334 87.9022 195.366 87.8621C195.389 87.8061 195.423 87.7545 195.464 87.7095L195.502 87.6713L195.688 87.4696C195.977 87.1999 196.356 87.0465 196.752 87.039L210.793 86.8918C211.679 86.8914 212.404 87.5941 212.431 88.478C212.435 88.902 212.27 89.3103 211.971 89.6121C211.673 89.914 211.267 90.0846 210.842 90.086L199.525 90.2059L205.214 99.9737C205.426 100.34 205.483 100.776 205.372 101.184C205.266 101.591 205.001 101.939 204.635 102.149C204.384 102.273 204.107 102.338 203.827 102.339H203.849Z" fill="#5E48AF"/>
<path d="M169.969 83.1253C169.098 83.1054 168.395 82.4084 168.369 81.5391C168.365 81.1151 168.53 80.7069 168.828 80.405C169.127 80.1031 169.533 79.9326 169.958 79.9311L181.275 79.8058L175.586 70.0543C175.144 69.2925 175.403 68.3173 176.165 67.874C176.408 67.7263 176.688 67.6507 176.973 67.656C177.539 67.6633 178.061 67.9622 178.354 68.4463L185.451 80.5634C185.639 80.8936 185.707 81.2791 185.642 81.6536V81.7081C185.627 81.7757 185.605 81.8416 185.576 81.9043L185.538 82.0024C185.515 82.0483 185.487 82.092 185.456 82.1332C185.413 82.2041 185.402 82.2423 185.374 82.2804L185.336 82.324C185.254 82.4167 185.2 82.4712 185.145 82.5257C184.858 82.7964 184.48 82.9501 184.086 82.9563L169.969 83.1253Z" fill="#5E48AF"/>
<rect x="248.768" y="41.4487" width="23.7907" height="8.44872" rx="3.69105" transform="rotate(180 248.768 41.4487)" fill="#40969F"/>
<path d="M163.418 134.169C163.418 126.944 169.284 121.087 176.52 121.087C183.756 121.087 189.622 126.944 189.622 134.169H196.265C196.265 123.332 187.467 114.547 176.613 114.547C165.759 114.547 156.96 123.332 156.96 134.169H163.418Z" fill="white"/>
<rect x="361.81" y="146.921" width="211.438" height="2.73411" rx="1.36706" transform="rotate(-180 361.81 146.921)" fill="#292659"/>
<path d="M176.522 145.831C182.552 145.831 187.44 140.95 187.44 134.93C187.44 128.909 182.552 124.028 176.522 124.028C170.492 124.028 165.604 128.909 165.604 134.93C165.604 140.95 170.492 145.831 176.522 145.831Z" fill="#5E48AF"/>
<path d="M176.483 140.38C179.498 140.38 181.942 137.94 181.942 134.93C181.942 131.919 179.498 129.479 176.483 129.479C173.468 129.479 171.023 131.919 171.023 134.93C171.023 137.94 173.468 140.38 176.483 140.38Z" fill="#292659"/>
<circle cx="162.895" cy="101.915" r="4.21931" fill="#5E48AF"/>
<path fill-rule="evenodd" clip-rule="evenodd" d="M164.301 105.895C165.94 105.315 167.114 103.752 167.114 101.915C167.114 100.078 165.94 98.5154 164.301 97.9362C162.662 98.5154 161.488 100.078 161.488 101.915C161.488 103.752 162.662 105.315 164.301 105.895Z" fill="#292659"/>
<circle cx="162.325" cy="93.4767" r="4.21931" fill="#DDDDDD"/>
<circle cx="160.918" cy="93.4767" r="4.21931" fill="white"/>
<path d="M126.405 92.0058L129.231 96.4672L132.057 92.0058L131.306 89.1235L129.231 88.1392L126.767 89.1235L126.405 92.0058Z" fill="#FBD4B1"/>
<path fill-rule="evenodd" clip-rule="evenodd" d="M119.82 74.5231L134.433 72.2197L135.844 81.1708L135.843 81.1709C136.525 85.4965 133.806 89.5187 129.771 90.1548C125.736 90.7908 121.912 87.7998 121.23 83.4742C121.225 83.442 121.22 83.4098 121.216 83.3777L119.82 74.5231Z" fill="#FBD4B1"/>
<ellipse rx="0.567416" ry="1.13483" transform="matrix(-1 0 0 1 122.795 81.1798)" fill="#292659"/>
<ellipse rx="0.567416" ry="1.13483" transform="matrix(-1 0 0 1 126.199 81.1798)" fill="#292659"/>
<path fill-rule="evenodd" clip-rule="evenodd" d="M119.471 79.8232C118.688 77.4742 118.857 74.9287 120.161 72.7865C122.681 68.6475 128.484 67.5812 133.122 70.405C137.76 73.2287 139.477 78.8732 136.957 83.0122C136.045 84.5106 134.702 85.6062 133.141 86.2604L133.01 84.5843L131 80L126.768 76.6405L126 78.5C123.73 78.5 122.229 77.2079 121.661 76.6405L120 79L119.471 79.8232Z" fill="#292659"/>
<path fill-rule="evenodd" clip-rule="evenodd" d="M134.096 76.8237C134.904 78.5566 136.477 80.1713 138.554 81.1866C139.466 81.6328 140.393 81.9228 141.292 82.0657C141.294 82.1907 141.292 82.3165 141.287 82.4432C141.146 85.6433 138.67 88.1334 135.758 88.005C132.845 87.8767 130.599 85.1785 130.74 81.9784C130.844 79.6198 132.216 77.6468 134.096 76.8237Z" fill="#292659"/>
<circle r="2.26966" transform="matrix(-1 0 0 1 131.269 82.2697)" fill="#FBD4B1"/>
<rect x="80" y="81" width="29" height="66" rx="2.26966" fill="#292659"/>
<rect x="84.9434" y="85" width="19.2921" height="11.3483" rx="1.13483" fill="#5E48AF"/>
<rect x="96" y="102" width="8" height="2" fill="#5E48AF"/>
<rect x="91" y="102" width="3" height="2" fill="#5DD167"/>
<rect x="86" y="102" width="3" height="2" fill="#F53F5B"/>
<rect x="88" y="90" width="1" height="3" rx="0.5" fill="#65BFCF"/>
<rect x="97" y="90" width="1" height="3" rx="0.5" fill="#65BFCF"/>
<rect x="91" y="88" width="1" height="5" rx="0.5" fill="#65BFCF"/>
<rect x="100" y="87" width="1" height="6" rx="0.5" fill="#65BFCF"/>
<rect x="94" y="92" width="1" height="1" rx="0.5" fill="#65BFCF"/>
<path d="M100 135.747H110.775C116.146 135.747 120.5 131.393 120.5 126.023V122.854C120.5 119.233 123.435 116.298 127.056 116.298H127.643C130.94 116.298 133.612 118.97 133.612 122.267V122.913C133.612 125.853 135.996 128.236 138.935 128.236V128.236C141.875 128.236 144.258 125.853 144.258 122.913V112.051C144.258 107.35 148.069 103.539 152.77 103.539V103.539" stroke="#292659" stroke-width="3.40449"/>
<path fill-rule="evenodd" clip-rule="evenodd" d="M155.607 99.0001L155.607 99L155.607 99.0001L155.607 99L155.606 99.0001L149.943 100.654C148.762 100.999 148.071 102.22 148.384 103.409L148.952 105.575C149.282 106.831 150.597 107.555 151.835 107.161L155.622 105.958C156.852 105.567 157.509 104.232 157.068 103.019L156.835 102.378L162.439 103.513C163.215 103.671 163.974 103.171 164.136 102.396C164.297 101.626 163.811 100.87 163.045 100.695L155.607 99.0001Z" fill="#292659"/>
<ellipse cx="149.665" cy="101.01" rx="1.70225" ry="1.13483" transform="rotate(45.5289 149.665 101.01)" fill="#FBD4B1"/>
<ellipse cx="152.954" cy="103.617" rx="1.70225" ry="2.66596" transform="rotate(74.6371 152.954 103.617)" fill="#FBD4B1"/>
</g>
</svg>
