<svg width="260" height="200" viewBox="0 0 260 200" fill="none" xmlns="http://www.w3.org/2000/svg">
<path d="M130 200C185.228 200 230 155.228 230 100C230 44.7715 185.228 0 130 0C74.7715 0 30 44.7715 30 100C30 155.228 74.7715 200 130 200Z" fill="#5E48AF"/>
<mask id="mask0" mask-type="alpha" maskUnits="userSpaceOnUse" x="30" y="0" width="200" height="200">
<path d="M130 200C185.228 200 230 155.228 230 100C230 44.7715 185.228 0 130 0C74.7715 0 30 44.7715 30 100C30 155.228 74.7715 200 130 200Z" fill="white"/>
</mask>
<g mask="url(#mask0)">
<rect width="50.3494" height="14.8582" rx="7.42908" transform="matrix(-0.136651 -0.990619 -0.990619 0.136651 172.599 203.877)" fill="#FBD4B1"/>
<rect x="71" y="187.711" width="39" height="14.8582" rx="7.42908" transform="rotate(-59.8123 71 187.711)" fill="#FBD4B1"/>
<path d="M78.917 167.085C77.8892 166.504 77.5856 165.164 78.2626 164.197L98.0066 135.991L113.432 146.739L100 179L78.917 167.085Z" fill="#65BFCF"/>
<path d="M172.869 171.811C173.793 171.351 174.216 170.264 173.845 169.3L160.998 135.988L144.99 146.736L158.422 178.997L172.869 171.811Z" fill="#65BFCF"/>
<path d="M158 222L101 222L98 136L121 129L140 129L161 136L158 222Z" fill="#40969F"/>
<path d="M140 129L130.5 144L121 129L123 122L130.5 116L138 122L140 129Z" fill="#FBD4B1"/>
<rect x="121" y="109" width="19" height="9" fill="#DAB593"/>
<path fill-rule="evenodd" clip-rule="evenodd" d="M169.31 115.452C163.609 112.19 158.419 106.122 155.316 98.2933C153.953 94.8519 153.116 91.3823 152.769 88.0406C152.349 88.0137 151.926 88 151.5 88C140.73 88 132 96.7304 132 107.5C132 118.27 140.73 127 151.5 127C159.437 127 166.267 122.258 169.31 115.452Z" fill="#292659"/>
<circle cx="103" cy="91" r="10" fill="#FBD4B1"/>
<circle cx="156" cy="91" r="10" fill="#FBD4B1"/>
<path fill-rule="evenodd" clip-rule="evenodd" d="M158 66H102V98C102 113.464 114.536 126 130 126C145.464 126 158 113.464 158 98V66Z" fill="#FBD4B1"/>
<ellipse cx="140.5" cy="92.5" rx="2.5" ry="3.5" fill="#292659"/>
<ellipse cx="119.5" cy="92.5" rx="2.5" ry="3.5" fill="#292659"/>
<path fill-rule="evenodd" clip-rule="evenodd" d="M123 109C123.52 112.392 126.646 115 130.424 115C134.202 115 137.328 112.392 137.848 109H123Z" fill="#DAB593"/>
<path fill-rule="evenodd" clip-rule="evenodd" d="M157.692 89.6206C161.663 84.7932 164 78.8833 164 72.5C164 56.2076 148.778 43 130 43C111.222 43 96 56.2076 96 72.5C96 78.6637 98.1787 84.3859 101.904 89.1185L102 89L117 70.5C119.5 73.3333 125.8 79.2 131 80V70.5L157 89L157.692 89.6206Z" fill="#292659"/>
<rect x="97.5288" y="155.847" width="41" height="51" transform="rotate(14.2213 97.5288 155.847)" fill="white"/>
<rect x="134.364" y="165.182" width="3" height="51" transform="rotate(14.2213 134.364 165.182)" fill="#DDDDDD"/>
<rect x="107.481" y="153.211" width="20" height="9" transform="rotate(14.2213 107.481 153.211)" fill="#054752"/>
<rect x="125.899" y="157.879" width="4" height="5" transform="rotate(14.2213 125.899 157.879)" fill="#054752"/>
<rect x="74.5195" y="177" width="44.035" height="14.8582" rx="7.42908" transform="rotate(5.8691 74.5195 177)" fill="#FBD4B1"/>
<ellipse cx="108.096" cy="180.83" rx="3" ry="5" transform="rotate(29.9538 108.096 180.83)" fill="#FBD4B1"/>
</g>
</svg>
