<svg width="200" height="200" viewBox="0 0 200 200" fill="none" xmlns="http://www.w3.org/2000/svg">
<mask id="mask1" mask-type="alpha" maskUnits="userSpaceOnUse" x="0" y="0" width="200" height="200">
<path d="M100 200C155.228 200 200 155.228 200 100C200 44.7715 155.228 0 100 0C44.7715 0 0 44.7715 0 100C0 155.228 44.7715 200 100 200Z" fill="white"/>
</mask>
<g mask="url(#mask1)">
<path d="M100 200C155.228 200 200 155.228 200 100C200 44.7715 155.228 0 100 0C44.7715 0 0 44.7715 0 100C0 155.228 44.7715 200 100 200Z" fill="#5E48AF"/>
<path d="M91 64.0165C91 58.4846 95.4846 54 101.017 54H146.983C152.515 54 157 58.4846 157 64.0165V77C157 78.1046 156.105 79 155 79H101.017C95.4846 79 91 74.5154 91 68.9835V64.0165Z" fill="#292659"/>
<path fill-rule="evenodd" clip-rule="evenodd" d="M81.0165 54C75.4846 54 71 58.4846 71 64.0165V144.983C71 150.515 75.4846 155 81.0165 155H123.645C131.021 155 137 149.021 137 141.645L137 64.0165L137 64C137 58.5185 141.41 54.0672 146.876 54.0008V54H137H121H81.0165Z" fill="white"/>
<path fill-rule="evenodd" clip-rule="evenodd" d="M49 131C47.8954 131 47 131.895 47 133V141.645C47 149.021 52.9794 155 60.3554 155H116L126.297 155V154.999C122.247 154.943 118.598 153.227 116 150.5V133C116 131.895 115.105 131 114 131H49Z" fill="#EDEDED"/>
<rect x="77.5635" y="36.0122" width="9.22108" height="4" rx="2" transform="rotate(90.1745 77.5635 36.0122)" fill="#65BFCF"/>
<rect x="51" y="59.9937" width="9.38832" height="4" rx="2" transform="rotate(-0.0346615 51 59.9937)" fill="#65BFCF"/>
<rect x="55.5967" y="39.8077" width="11.723" height="4" rx="2" transform="rotate(42.761 55.5967 39.8077)" fill="#65BFCF"/>
<path fill-rule="evenodd" clip-rule="evenodd" d="M141 64V72.0007V140.5V141H140.992C140.728 148.777 134.341 155 126.5 155C118.659 155 112.272 148.777 112.008 141H112V140.5V133C112 131.895 112.895 131 114 131C115.105 131 116 131.895 116 133V133.595V140.5V141H116.012C116.273 146.567 120.869 151 126.5 151C132.131 151 136.727 146.567 136.988 141H137V140.5V130.5V81.6265V81.6265V64C137 58.4772 141.477 54 147 54C152.523 54 157 58.4772 157 64V77C157 78.1046 156.105 79 155 79C153.895 79 153 78.1046 153 77V72.0007V64C153 60.6863 150.314 58 147 58C143.686 58 141 60.6863 141 64Z" fill="#EDEDED"/>
<rect x="82" y="114" width="45" height="3" rx="1.5" fill="#EDEDED"/>
<rect x="82" y="121" width="20" height="3" rx="1.5" fill="#EDEDED"/>
</g>
<rect x="88" y="76" width="7" height="32" fill="#40969F"/>
<rect x="97" y="88" width="7" height="20" fill="#65BFCF"/>
<rect x="106" y="83" width="7" height="25" fill="#40969F"/>
<rect x="115" y="67" width="7" height="41" fill="#65BFCF"/>
</svg>
