<svg width="106" height="82" viewBox="0 0 106 82" fill="none" xmlns="http://www.w3.org/2000/svg">
<g clip-path="url(#clip0)">
<path d="M53.0002 82C75.5164 82 93.7694 63.6437 93.7694 41C93.7694 18.3563 75.5164 0 53.0002 0C30.484 0 12.231 18.3563 12.231 41C12.231 63.6437 30.484 82 53.0002 82Z" fill="#5E48AF"/>
<mask id="mask0" mask-type="alpha" maskUnits="userSpaceOnUse" x="12" y="0" width="82" height="82">
<path d="M53.0002 82C75.5164 82 93.7694 63.6437 93.7694 41C93.7694 18.3563 75.5164 0 53.0002 0C30.484 0 12.231 18.3563 12.231 41C12.231 63.6437 30.484 82 53.0002 82Z" fill="white"/>
</mask>
<g mask="url(#mask0)">
</g>
</g>
<rect width="10.9917" height="11.0508" rx="5.49586" transform="matrix(0.987165 0.159705 -0.157957 0.987446 41.3213 48.1367)" fill="#ECC525"/>
<rect opacity="0.4" width="2.38951" height="2.40235" rx="1.19475" transform="matrix(0.987165 0.159705 -0.157957 0.987446 42.6934 54.6855)" fill="white"/>
<rect width="6.69062" height="6.72657" rx="3.34531" transform="matrix(0.987165 0.159705 -0.157957 0.987446 54.5117 15.9453)" fill="#65BFCF"/>
<path fill-rule="evenodd" clip-rule="evenodd" d="M69.837 38.1358L68.4916 46.5462C68.2187 48.2527 68.8339 49.9821 70.1238 51.1342L71.4005 52.2745C72.2174 53.0042 72.6071 54.0996 72.4342 55.1804C72.2102 56.5806 70.8939 57.5321 69.4941 57.3056L33.5194 51.4856C32.1197 51.2591 31.1665 49.9404 31.3904 48.5403C31.5633 47.4595 32.2749 46.5423 33.2783 46.1071L34.8461 45.427C36.4302 44.7398 37.5538 43.2917 37.8267 41.5852L39.1721 33.1748L39.286 32.4631L39.302 32.4657C40.9812 24.3401 48.7404 18.9045 56.9711 20.2361C65.2018 21.5676 70.8744 29.1763 69.9348 37.4215L69.9508 37.4241L69.837 38.1358Z" fill="white"/>
<path fill-rule="evenodd" clip-rule="evenodd" d="M52.8541 20.1319C58.8964 22.8654 62.6985 29.2829 61.9221 36.1369L61.9382 36.1395L61.8249 36.8505L60.4864 45.2503C60.2144 46.9571 60.8313 48.6874 62.1226 49.8396L63.4017 50.9809C64.2191 51.7102 64.6096 52.8053 64.4374 53.8856C64.2231 55.2307 62.9995 56.1606 61.6626 56.0276L69.5233 57.3042C70.921 57.5313 72.2348 56.5816 72.4577 55.1832C72.6298 54.1029 72.2393 53.0077 71.422 52.2784L70.1429 51.1371C68.8515 49.9849 68.2346 48.2546 68.5066 46.5478L69.8451 38.148L69.9584 37.437L69.9424 37.4344C70.8756 29.196 65.1938 21.5882 56.9579 20.2506C55.5674 20.0248 54.1904 19.9918 52.8541 20.1319Z" fill="#EDEDED"/>
<rect width="22.9393" height="3.84375" transform="matrix(0.987165 0.159704 -0.157957 0.987446 38.3755 38.1562)" fill="#5E48AF"/>
<rect width="8.12433" height="3.84376" transform="matrix(0.987165 0.159705 -0.157957 0.987446 61.02 41.8203)" fill="#292659"/>
<rect width="3.76028" height="1.63962" rx="0.819808" transform="matrix(0.978162 -0.207846 0.20561 0.978634 33.3193 57.1191)" fill="#ECC525"/>
<rect width="6.12858" height="1.63649" rx="0.818246" transform="matrix(-0.785281 -0.619139 0.614825 -0.788664 57.4346 64.7031)" fill="#ECC525"/>
<rect width="3.84912" height="1.63081" rx="0.815406" transform="matrix(-0.0672972 -0.997733 0.997681 -0.068058 46.7656 66.8477)" fill="#ECC525"/>
<rect width="6.13658" height="1.63436" rx="0.81718" transform="matrix(0.62096 -0.783843 0.780415 0.625262 36.314 66.0664)" fill="#ECC525"/>
<defs>
<clipPath id="clip0">
<rect width="81.5385" height="82" fill="white" transform="translate(12.231)"/>
</clipPath>
</defs>
</svg>
