<svg width="260" height="200" viewBox="0 0 260 200" fill="none" xmlns="http://www.w3.org/2000/svg">
  <mask id="mask0" mask-type="alpha" maskUnits="userSpaceOnUse" x="30" y="0" width="200" height="200">
    <path d="M130 200C185.228 200 230 155.228 230 100C230 44.7715 185.228 0 130 0C74.7715 0 30 44.7715 30 100C30 155.228 74.7715 200 130 200Z" fill="white"/>
  </mask>
  <g mask="url(#mask0)">
    <g>
      <path d="M130 200C185.228 200 230 155.228 230 100C230 44.7715 185.228 0 130 0C74.7715 0 30 44.7715 30 100C30 155.228 74.7715 200 130 200Z" fill="#5E48AF"/>
      <path d="M109.515 48.1091C109.27 48.1479 108.951 47.8531 108.559 47.2247C108.183 46.5728 107.96 46.0222 107.889 45.5732C107.87 45.4507 107.874 45.3454 107.902 45.2573L115.88 29.2421L107.368 30.5902C107.041 30.642 106.787 30.5567 106.605 30.3344C106.424 30.112 106.291 29.7355 106.207 29.2048L106.056 28.2556C105.972 27.7249 105.982 27.3258 106.086 27.0582C106.19 26.7906 106.406 26.631 106.732 26.5792L120.725 24.363C120.95 24.3275 121.251 24.6459 121.63 25.3183C122.008 25.9907 122.233 26.5514 122.304 27.0005C122.33 27.1638 122.301 27.3148 122.219 27.4534L114.36 43.23L123.699 41.7509C124.025 41.6992 124.279 41.7845 124.461 42.0068C124.643 42.2291 124.776 42.6056 124.86 43.1364L125.01 44.0855C125.094 44.6162 125.084 45.0154 124.98 45.283C124.876 45.5505 124.661 45.7102 124.334 45.7619L109.515 48.1091Z" fill="white"/>
      <path d="M132.037 40.0003C131.869 40.0003 131.687 39.7693 131.491 39.3073C131.309 38.8313 131.218 38.4393 131.218 38.1313C131.218 38.0473 131.232 37.9773 131.26 37.9213L138.295 28.0513H132.457C132.233 28.0513 132.072 27.9673 131.974 27.7993C131.876 27.6313 131.827 27.3653 131.827 27.0013V26.3503C131.827 25.9863 131.876 25.7203 131.974 25.5523C132.072 25.3843 132.233 25.3003 132.457 25.3003H142.054C142.208 25.3003 142.376 25.5453 142.558 26.0353C142.74 26.5253 142.831 26.9243 142.831 27.2323C142.831 27.3443 142.796 27.4423 142.726 27.5263L135.796 37.2493H142.201C142.425 37.2493 142.586 37.3333 142.684 37.5013C142.782 37.6693 142.831 37.9353 142.831 38.2993V38.9503C142.831 39.3143 142.782 39.5803 142.684 39.7483C142.586 39.9163 142.425 40.0003 142.201 40.0003H132.037Z" fill="white"/>
      <path d="M146.979 46.5795C146.884 46.5678 146.797 46.4241 146.718 46.1484C146.647 45.8658 146.623 45.6371 146.645 45.4624C146.65 45.4148 146.663 45.3761 146.683 45.3463L151.36 40.2382L148.049 39.8316C147.922 39.816 147.837 39.7572 147.793 39.6551C147.749 39.553 147.74 39.3987 147.765 39.1922L147.81 38.823C147.836 38.6166 147.882 38.4691 147.949 38.3807C148.017 38.2922 148.114 38.2558 148.241 38.2714L153.684 38.9397C153.771 38.9504 153.85 39.1011 153.919 39.3917C153.988 39.6823 154.012 39.9149 153.99 40.0896C153.982 40.1531 153.956 40.2062 153.91 40.249L149.303 45.281L152.935 45.727C153.062 45.7426 153.148 45.8015 153.192 45.9036C153.236 46.0057 153.245 46.16 153.219 46.3664L153.174 46.7357C153.149 46.9421 153.102 47.0896 153.035 47.178C152.968 47.2665 152.871 47.3029 152.744 47.2873L146.979 46.5795Z" fill="white"/>
      <path d="M119 74.0165C119 68.4846 123.485 64 129.017 64H174.983C180.515 64 185 68.4846 185 74.0165V87C185 88.1046 184.105 89 183 89H129.017C123.485 89 119 84.5154 119 78.9835V74.0165Z" fill="#292659"/>
      <path fill-rule="evenodd" clip-rule="evenodd" d="M109.017 64C103.485 64 99 68.4846 99 74.0165V154.983C99 160.515 103.485 165 109.017 165H151.645C159.021 165 165 159.021 165 151.645L165 74.0165L165 74C165 68.5185 169.41 64.0672 174.876 64.0008V64H165H149H109.017Z" fill="white"/>
      <path fill-rule="evenodd" clip-rule="evenodd" d="M77 141C75.8954 141 75 141.895 75 143V151.645C75 159.021 80.9794 165 88.3554 165H144L154.297 165V164.999C150.247 164.943 146.598 163.227 144 160.5V143C144 141.895 143.105 141 142 141H77Z" fill="#EDEDED"/>
      <path fill-rule="evenodd" clip-rule="evenodd" d="M169 74V82.0007V150.5V151H168.992C168.728 158.777 162.341 165 154.5 165C146.659 165 140.272 158.777 140.008 151H140V150.5V143C140 141.895 140.895 141 142 141C143.105 141 144 141.895 144 143V143.595V150.5V151H144.012C144.273 156.567 148.869 161 154.5 161C160.131 161 164.727 156.567 164.988 151H165V150.5V140.5V91.6265V91.6265V74C165 68.4772 169.477 64 175 64C180.523 64 185 68.4772 185 74V87C185 88.1046 184.105 89 183 89C181.895 89 181 88.1046 181 87V82.0007V74C181 70.6863 178.314 68 175 68C171.686 68 169 70.6863 169 74Z" fill="#EDEDED"/>
      <rect x="110" y="117" width="45" height="3" rx="1.5" fill="#EDEDED"/>
      <rect x="110" y="96" width="22" height="3" rx="1.5" fill="#EDEDED"/>
      <rect x="110" y="124" width="45" height="3" rx="1.5" fill="#EDEDED"/>
      <rect x="110" y="103" width="22" height="3" rx="1.5" fill="#EDEDED"/>
      <rect x="110" y="110" width="45" height="3" rx="1.5" fill="#EDEDED"/>
      <rect x="110" y="89" width="22" height="3" rx="1.5" fill="#EDEDED"/>
      <path d="M147.92 105.24C145.36 105.24 143.34 104.65 141.86 103.47C140.4 102.29 139.45 100.47 139.01 98.01H137.9C137.58 98.01 137.35 97.93 137.21 97.77C137.07 97.61 137 97.35 137 96.99V96.78C137 96.42 137.07 96.16 137.21 96C137.35 95.84 137.58 95.76 137.9 95.76H138.77C138.75 95.48 138.74 95.04 138.74 94.44C138.74 94.02 138.75 93.7 138.77 93.48H137.9C137.58 93.48 137.35 93.4 137.21 93.24C137.07 93.08 137 92.82 137 92.46V92.25C137 91.89 137.07 91.63 137.21 91.47C137.35 91.31 137.58 91.23 137.9 91.23H138.98C139.86 86.25 142.89 83.76 148.07 83.76C148.89 83.76 149.74 83.85 150.62 84.03C151.52 84.21 152.26 84.46 152.84 84.78C153.44 85.1 153.74 85.46 153.74 85.86C153.74 86.14 153.63 86.51 153.41 86.97C153.19 87.41 152.92 87.81 152.6 88.17C152.3 88.51 152.03 88.68 151.79 88.68C151.73 88.68 151.52 88.59 151.16 88.41C150.82 88.23 150.38 88.07 149.84 87.93C149.32 87.79 148.7 87.72 147.98 87.72C145.76 87.72 144.35 88.89 143.75 91.23H150.95C151.27 91.23 151.5 91.31 151.64 91.47C151.78 91.63 151.85 91.89 151.85 92.25V92.46C151.85 92.82 151.78 93.08 151.64 93.24C151.5 93.4 151.27 93.48 150.95 93.48H143.45C143.43 93.7 143.42 94.03 143.42 94.47C143.42 95.07 143.43 95.5 143.45 95.76H150.95C151.27 95.76 151.5 95.84 151.64 96C151.78 96.16 151.85 96.42 151.85 96.78V96.99C151.85 97.35 151.78 97.61 151.64 97.77C151.5 97.93 151.27 98.01 150.95 98.01H143.84C144.48 100.21 145.84 101.31 147.92 101.31C148.68 101.31 149.33 101.22 149.87 101.04C150.43 100.86 151.03 100.63 151.67 100.35C151.95 100.19 152.14 100.11 152.24 100.11C152.54 100.11 152.82 100.28 153.08 100.62C153.36 100.96 153.58 101.35 153.74 101.79C153.92 102.21 154.01 102.52 154.01 102.72C154.01 103.28 153.67 103.75 152.99 104.13C152.33 104.51 151.52 104.79 150.56 104.97C149.62 105.15 148.74 105.24 147.92 105.24Z" fill="#AFA3D7"/>
    </g>
  </g>
</svg>
