<svg width="104" height="80" viewBox="0 0 104 80" fill="none" xmlns="http://www.w3.org/2000/svg">
  <path d="M52 80C74.0914 80 92 62.0914 92 40C92 17.9086 74.0914 0 52 0C29.9086 0 12 17.9086 12 40C12 62.0914 29.9086 80 52 80Z" fill="#5E48AF"/>
  <mask id="mask0" mask-type="alpha" maskUnits="userSpaceOnUse" x="12" y="0" width="80" height="80">
  <path d="M52 80C74.0914 80 92 62.0914 92 40C92 17.9086 74.0914 0 52 0C29.9086 0 12 17.9086 12 40C12 62.0914 29.9086 80 52 80Z" fill="white"/>
  </mask>
  <g mask="url(#mask0)">
  </g>
  <rect x="46.4092" y="53.2168" width="10.7828" height="10.7828" rx="5.3914" fill="#ECC525"/>
  <rect opacity="0.4" x="48.7534" y="59.3105" width="2.34409" height="2.34409" rx="1.17204" fill="white"/>
  <rect x="48.7529" y="20.4004" width="6.56344" height="6.56344" rx="3.28172" fill="#65BFCF"/>
  <path fill-rule="evenodd" clip-rule="evenodd" d="M67.0368 39.387V47.6874C67.0368 49.3795 67.9013 50.9543 69.3288 51.8627L70.7452 52.764C71.6475 53.3382 72.1938 54.3335 72.1938 55.4029C72.1938 56.7849 71.0735 57.9052 69.6915 57.9052H33.9091C32.5271 57.9052 31.4067 56.7849 31.4067 55.4029C31.4067 54.3335 31.9531 53.3382 32.8553 52.764L34.2717 51.8627C35.6993 50.9543 36.5637 49.3795 36.5637 47.6874V39.387V38.6837H36.5797C36.9471 30.5952 43.6211 24.1504 51.8003 24.1504C59.9795 24.1504 66.6534 30.5952 67.0209 38.6837H67.0368V39.387Z" fill="white"/>
  <path fill-rule="evenodd" clip-rule="evenodd" d="M47.8152 24.6768C54.0803 26.3699 58.7453 31.9587 59.0508 38.6837H59.0668V39.387V47.6874C59.0668 49.3795 59.9312 50.9543 61.3588 51.8627L62.7752 52.764C63.6774 53.3382 64.2238 54.3335 64.2238 55.4029C64.2238 56.7849 63.1034 57.9052 61.7214 57.9052H33.9028C33.9049 57.9052 33.907 57.9052 33.9091 57.9052H69.6915C71.0735 57.9052 72.1938 56.7849 72.1938 55.4029C72.1938 54.3335 71.6475 53.3382 70.7452 52.764L69.3289 51.8627C67.9013 50.9543 67.0369 49.3795 67.0369 47.6874V39.387V38.6837H67.0209C66.6535 30.5952 59.9795 24.1504 51.8003 24.1504C50.4215 24.1504 49.0855 24.3335 47.8152 24.6768Z" fill="#EDEDED"/>
  <rect x="36.564" y="44.3105" width="22.5032" height="3.75053" fill="#5E48AF"/>
  <rect x="59.0669" y="44.3105" width="7.96989" height="3.75053" fill="#292659"/>
  <path d="M43.1456 17.2436C43.0476 17.2591 42.9202 17.1412 42.7632 16.8899C42.6131 16.6291 42.5238 16.4089 42.4953 16.2293C42.4876 16.1803 42.4893 16.1382 42.5004 16.1029L45.6916 9.69684L42.2868 10.2361C42.1562 10.2568 42.0545 10.2227 41.9819 10.1337C41.9092 10.0448 41.856 9.89421 41.8224 9.68192L41.7623 9.30226C41.7287 9.08997 41.7327 8.93031 41.7743 8.82328C41.8159 8.71625 41.9021 8.65239 42.0327 8.6317L47.6297 7.74521C47.7196 7.73099 47.8402 7.85835 47.9916 8.12731C48.143 8.39627 48.2329 8.62057 48.2614 8.8002C48.2717 8.86551 48.2603 8.9259 48.2273 8.98136L45.0838 15.292L48.8192 14.7004C48.9499 14.6797 49.0515 14.7138 49.1242 14.8027C49.1969 14.8916 49.25 15.0423 49.2836 15.2545L49.3438 15.6342C49.3774 15.8465 49.3734 16.0062 49.3317 16.1132C49.2901 16.2202 49.204 16.2841 49.0733 16.3048L43.1456 17.2436Z" fill="white"/>
  <path d="M52.1544 14.0001C52.0872 14.0001 52.0144 13.9077 51.936 13.7229C51.8632 13.5325 51.8268 13.3757 51.8268 13.2525C51.8268 13.2189 51.8324 13.1909 51.8436 13.1685L54.6576 9.22049H52.3224C52.2328 9.22049 52.1684 9.18689 52.1292 9.11969C52.09 9.05249 52.0704 8.94609 52.0704 8.80049V8.54009C52.0704 8.39449 52.09 8.28809 52.1292 8.22089C52.1684 8.15369 52.2328 8.12009 52.3224 8.12009H56.1612C56.2228 8.12009 56.29 8.21809 56.3628 8.41409C56.4356 8.61009 56.472 8.76969 56.472 8.89289C56.472 8.93769 56.458 8.97689 56.43 9.01049L53.658 12.8997H56.22C56.3096 12.8997 56.374 12.9333 56.4132 13.0005C56.4524 13.0677 56.472 13.1741 56.472 13.3197V13.5801C56.472 13.7257 56.4524 13.8321 56.4132 13.8993C56.374 13.9665 56.3096 14.0001 56.22 14.0001H52.1544Z" fill="white"/>
  <path d="M58.1313 16.6318C58.0932 16.6271 58.0584 16.5696 58.0268 16.4593C57.9987 16.3463 57.989 16.2548 57.9976 16.1849C57.9999 16.1659 58.0051 16.1504 58.013 16.1385L59.8839 14.0953L58.5595 13.9326C58.5087 13.9264 58.4745 13.9029 58.4569 13.862C58.4394 13.8212 58.4357 13.7595 58.4458 13.6769L58.4639 13.5292C58.4741 13.4466 58.4926 13.3876 58.5195 13.3522C58.5464 13.3169 58.5853 13.3023 58.6361 13.3085L60.8134 13.5759C60.8483 13.5801 60.8796 13.6404 60.9072 13.7566C60.9349 13.8729 60.9444 13.9659 60.9358 14.0358C60.9327 14.0612 60.922 14.0825 60.9038 14.0996L59.0608 16.1124L60.5139 16.2908C60.5647 16.297 60.5989 16.3206 60.6164 16.3614C60.634 16.4023 60.6377 16.464 60.6275 16.5466L60.6094 16.6942C60.5993 16.7768 60.5807 16.8358 60.5538 16.8712C60.5269 16.9066 60.488 16.9211 60.4372 16.9149L58.1313 16.6318Z" fill="white"/>
</svg>
