<svg width="260" height="200" viewBox="0 0 260 200" fill="none" xmlns="http://www.w3.org/2000/svg">
<path d="M130 200C185.228 200 230 155.228 230 100C230 44.7715 185.228 0 130 0C74.7715 0 30 44.7715 30 100C30 155.228 74.7715 200 130 200Z" fill="#5E48AF"/>
<mask id="mask0" mask-type="alpha" maskUnits="userSpaceOnUse" x="30" y="0" width="200" height="200">
<path d="M130 200C185.228 200 230 155.228 230 100C230 44.7715 185.228 0 130 0C74.7715 0 30 44.7715 30 100C30 155.228 74.7715 200 130 200Z" fill="#5E48AF"/>
</mask>
<g mask="url(#mask0)">
<rect x="105" y="114" width="44" height="4" rx="2" fill="white"/>
<rect x="134" y="98" width="15" height="4" rx="2" fill="white"/>
<rect x="122" y="83" width="27" height="4" rx="2" fill="white"/>
<path fill-rule="evenodd" clip-rule="evenodd" d="M197.5 147C197.668 147 197.835 146.994 198 146.984V147H203.511H204V146.984C207.921 146.733 211.023 143.478 211.023 139.5C211.023 135.522 207.921 132.267 204 132.016V132H203.511H198V132.016C197.835 132.006 197.668 132 197.5 132C193.358 132 190 135.358 190 139.5C190 143.642 193.358 147 197.5 147Z" fill="#292659"/>
<rect x="285" y="148" width="126" height="2" rx="1" transform="rotate(-180 285 148)" fill="#292659"/>
<rect x="173" y="95.2573" width="4" height="42" fill="white"/>
<rect x="195" y="95.2573" width="4" height="42" fill="#292659"/>
<path d="M173.511 147C177.66 147 181.023 143.642 181.023 139.5C181.023 135.358 177.66 132 173.511 132C169.363 132 166 135.358 166 139.5C166 143.642 169.363 147 173.511 147Z" fill="#292659"/>
<rect x="174" y="147" width="6" height="15" transform="rotate(-180 174 147)" fill="#292659"/>
<path d="M167.5 147C171.642 147 175 143.642 175 139.5C175 135.358 171.642 132 167.5 132C163.358 132 160 135.358 160 139.5C160 143.642 163.358 147 167.5 147Z" fill="#5E48AF"/>
<path d="M167.5 143C169.433 143 171 141.433 171 139.5C171 137.567 169.433 136 167.5 136C165.567 136 164 137.567 164 139.5C164 141.433 165.567 143 167.5 143Z" fill="#292659"/>
<path d="M233.511 147C237.66 147 241.023 143.642 241.023 139.5C241.023 135.358 237.66 132 233.511 132C229.363 132 226 135.358 226 139.5C226 143.642 229.363 147 233.511 147Z" fill="#292659"/>
<rect x="234" y="147" width="6" height="15" transform="rotate(-180 234 147)" fill="#292659"/>
<path d="M227.5 147C231.642 147 235 143.642 235 139.5C235 135.358 231.642 132 227.5 132C223.358 132 220 135.358 220 139.5C220 143.642 223.358 147 227.5 147Z" fill="#5E48AF"/>
<path d="M227.5 143C229.433 143 231 141.433 231 139.5C231 137.567 229.433 136 227.5 136C225.567 136 224 137.567 224 139.5C224 141.433 225.567 143 227.5 143Z" fill="#292659"/>
<path d="M281 86.2573C282.105 86.2573 283 87.1528 283 88.2573V94.2573L223 94.2573C221.895 94.2573 221 93.3619 221 92.2573V88.2573C221 87.1528 221.895 86.2573 223 86.2573L281 86.2573Z" fill="#40969F"/>
<path fill-rule="evenodd" clip-rule="evenodd" d="M221.652 88.2102L191.827 91.5227L168.654 71.1199L165.41 66.2334L191.806 66.2639C193.395 66.2657 194.935 66.8076 196.175 67.8006L221.652 88.2102Z" fill="#40969F"/>
<path d="M255 86.2573C256.105 86.2573 257 87.1528 257 88.2573V94.2573L188 94.2573V88.2573C188 87.1528 188.895 86.2573 190 86.2573L255 86.2573Z" fill="#65BFCF"/>
<path fill-rule="evenodd" clip-rule="evenodd" d="M191.508 86.7129C192.365 87.4083 192.497 88.667 191.802 89.5251L188.026 94.1889L161.798 72.9229C160.94 72.2276 160.808 70.9688 161.503 70.1108L164.02 67.0022C164.716 66.1434 165.976 66.0114 166.834 66.7073L191.508 86.7129Z" fill="#65BFCF"/>
<rect x="285" y="93" width="4" height="62" rx="2" transform="rotate(90 285 93)" fill="#EDEDED"/>
<rect x="259" y="93" width="4" height="100" rx="2" transform="rotate(90 259 93)" fill="white"/>
</g>
</svg>
