<svg width="260" height="200" viewBox="0 0 260 200" fill="none" xmlns="http://www.w3.org/2000/svg">
<path d="M130 200C185.228 200 230 155.228 230 100C230 44.7715 185.228 0 130 0C74.7715 0 30 44.7715 30 100C30 155.228 74.7715 200 130 200Z" fill="#5E48AF"/>
<mask id="mask0" mask-type="alpha" maskUnits="userSpaceOnUse" x="30" y="0" width="200" height="200">
<path d="M130 200C185.228 200 230 155.228 230 100C230 44.7715 185.228 0 130 0C74.7715 0 30 44.7715 30 100C30 155.228 74.7715 200 130 200Z" fill="white"/>
</mask>
<g mask="url(#mask0)">
</g>
<path d="M69.7647 115H89.5L84 138H64L69.7647 115Z" fill="#65BFCF"/>
<path d="M185.735 115H166L171.5 138H191.5L185.735 115Z" fill="#40969F"/>
<path d="M87.7647 115L91.7647 115L86 138H82L87.7647 115Z" fill="#40969F"/>
<path d="M188.735 115L184.735 115L190.5 138H194.5L188.735 115Z" fill="#65BFCF"/>
<path fill-rule="evenodd" clip-rule="evenodd" d="M99.8592 62C95.2467 62 91.2326 65.1547 90.1425 69.6365L84.9459 91H82.0102C74.4314 91 67.8922 96.3172 66.3465 103.737L64 115H180L177.653 103.737C176.108 96.3172 169.569 91 161.99 91H160.054L154.858 69.6365C153.767 65.1547 149.753 62 145.141 62H99.8592Z" fill="#EDEDED"/>
<path fill-rule="evenodd" clip-rule="evenodd" d="M114.069 62C109.36 62 105.29 65.2846 104.295 69.8867L99.7297 91H97.0102C89.4314 91 82.8922 96.3172 81.3465 103.737L79 115H195L192.653 103.737C191.108 96.3172 184.569 91 176.99 91H175.27L170.705 69.8867C169.71 65.2846 165.64 62 160.931 62H114.069Z" fill="white"/>
<rect x="64" y="115" width="131" height="5" fill="#292659"/>
<rect x="115" y="73.2935" width="3" height="22" fill="#292659"/>
<rect x="159" y="73.2935" width="3" height="22" fill="#292659"/>
<path d="M141.001 73.2993L144.001 73.2981L155 95.2933L152 95.2935L141.001 73.2993Z" fill="#292659"/>
<path d="M155 73.2998L152 73.2986L142 95.2931L145 95.2933L155 73.2998Z" fill="#292659"/>
<path d="M133.5 73.3005L130.5 73.2993L125.001 95.294L128 95.2935L133.5 73.3005Z" fill="#292659"/>
<path d="M130.5 73.2998L133.5 73.2986L140 95.2937L137 95.2939L130.5 73.2998Z" fill="#292659"/>
<rect x="123" y="73.2935" width="3" height="13" transform="rotate(90 123 73.2935)" fill="#292659"/>
<rect x="137" y="88.2935" width="3" height="9" transform="rotate(90 137 88.2935)" fill="#292659"/>
<path d="M96 120H104V129H100L96 120Z" fill="#292659"/>
<path d="M112 120H104V129H108L112 120Z" fill="#292659"/>
<path d="M122 120H130V129H126L122 120Z" fill="#292659"/>
<path d="M138 120H130V129H134L138 120Z" fill="#292659"/>
<path d="M147 120H155V129H151L147 120Z" fill="#292659"/>
<path d="M163 120H155V129H159L163 120Z" fill="#292659"/>
</svg>
