<svg width="260" height="200" viewBox="0 0 260 200" fill="none" xmlns="http://www.w3.org/2000/svg">
<path d="M130 200C185.228 200 230 155.228 230 100C230 44.7715 185.228 0 130 0C74.7715 0 30 44.7715 30 100C30 155.228 74.7715 200 130 200Z" fill="#5E48AF"/>
<mask id="mask0_5048_21731" style="mask-type:alpha" maskUnits="userSpaceOnUse" x="30" y="0" width="200" height="200">
<path d="M130 200C185.228 200 230 155.228 230 100C230 44.7715 185.228 0 130 0C74.7715 0 30 44.7715 30 100C30 155.228 74.7715 200 130 200Z" fill="white"/>
</mask>
<g mask="url(#mask0_5048_21731)">
<path d="M163.95 168.834C171.688 170.907 176.315 178.793 174.37 186.611L174.3 186.88L173.431 189.442C173.208 190.1 172.494 190.452 171.836 190.229C171.217 190.019 170.869 189.374 171.016 188.751L171.049 188.634L171.895 186.151C173.632 179.666 169.784 173.001 163.299 171.263C156.899 169.548 150.324 173.273 148.482 179.604L148.411 179.859L147.543 183.098C146.186 188.162 141.04 191.199 135.973 189.975L135.735 189.915C130.659 188.555 127.62 183.5 128.836 178.449L128.897 178.208L132.389 165.151C132.569 164.48 133.258 164.082 133.929 164.261C134.561 164.43 134.951 165.051 134.845 165.683L134.819 165.801L131.326 178.858C130.315 182.639 132.563 186.461 136.386 187.486C140.118 188.486 143.953 186.329 145.055 182.653L145.114 182.447L146.053 178.941L146.134 178.679C148.417 171.261 156.119 166.887 163.683 168.765L163.95 168.834Z" fill="#292659"/>
<path d="M135.718 128.783C127.22 126.507 118.486 131.549 116.209 140.047C113.932 148.544 118.975 157.278 127.472 159.555C135.97 161.832 144.704 156.789 146.981 148.292C149.258 139.795 144.215 131.06 135.718 128.783Z" fill="#292659"/>
<rect x="144.323" y="112.863" width="9.22185" height="15.9287" transform="rotate(15 144.323 112.863)" fill="#292659"/>
<path d="M135.228 155.251L103.836 173.609L89.4167 171.454L87.8582 175.54L105.421 176.39L136.813 158.033" fill="#EDEDED"/>
<path d="M132.822 157.343L136.308 158.339L136.175 166.984L131.146 165.727L132.822 157.343Z" fill="#EDEDED"/>
<path d="M140.142 131.705C132.539 129.668 124.724 134.18 122.687 141.783C120.65 149.386 125.162 157.2 132.765 159.238C140.368 161.275 148.183 156.763 150.22 149.16C152.257 141.557 147.745 133.742 140.142 131.705Z" fill="#EDEDED"/>
<rect x="139.449" y="124.576" width="5.86845" height="8.3835" transform="rotate(15 139.449 124.576)" fill="#EDEDED"/>
<rect x="96.5459" y="100.061" width="9.22185" height="15.9287" transform="rotate(15 96.5459 100.061)" fill="#292659"/>
<path fill-rule="evenodd" clip-rule="evenodd" d="M143.497 125.66L151.595 127.83L149.697 134.914C154.861 138.151 157.548 144.485 155.888 150.679C153.862 158.239 146.123 162.743 138.56 160.79L136.175 166.984L132.822 166.146L133.74 161.785L106.282 177.636L88.5244 178.401L87.7171 175.392L104.669 174.841L133.392 158.26C128.992 154.849 126.824 149.015 128.355 143.301C130.015 137.107 135.509 132.965 141.599 132.744L143.497 125.66Z" fill="white"/>
<path d="M144.725 137.273C139.359 135.835 133.842 139.02 132.404 144.386C130.966 149.753 134.151 155.269 139.518 156.708C144.885 158.146 150.401 154.961 151.839 149.594C153.277 144.227 150.092 138.711 144.725 137.273Z" fill="#EDEDED"/>
<path d="M143.746 140.539C140.169 139.581 136.491 141.704 135.532 145.282C134.574 148.86 136.697 152.537 140.275 153.496C143.853 154.455 147.53 152.331 148.489 148.753C149.447 145.176 147.324 141.498 143.746 140.539Z" fill="white"/>
<path fill-rule="evenodd" clip-rule="evenodd" d="M140.314 64.0442L132.469 61.992L131.671 63.3604C131.639 63.363 131.607 63.3657 131.575 63.3684C116.157 61.4934 106.315 67.9116 102.508 81.6958L103.965 82.0864L100.06 96.6628L108.158 98.8326L112.26 83.5223C115.449 73.0208 125.678 66.4505 136.355 67.6097C147.48 71.4069 153.939 83.1738 150.971 94.6814L151.743 94.8882L147.838 109.465L155.935 111.634L159.841 97.058L159.853 97.0612L159.853 97.0612C159.924 96.7973 159.99 96.5333 160.053 96.2693L160.058 96.2485L160.057 96.2484C163.363 82.197 154.905 67.9623 140.842 64.1941C140.674 64.1492 140.506 64.1059 140.338 64.0643L140.314 64.0442Z" fill="white"/>
<path fill-rule="evenodd" clip-rule="evenodd" d="M132.774 62.0324C118.727 58.2684 104.297 66.3703 100.135 80.1924L100.134 80.1922L100.128 80.2151C100.05 80.4742 99.9759 80.7352 99.9054 80.9983L99.9054 80.9984L99.9171 81.0015L96.0113 95.5781L96.0117 95.5782L94.7098 100.437L97.9489 101.305L97.9489 101.305L106.857 103.692L108.158 98.8329L100.061 96.6631L100.278 95.8533L100.277 95.8531L104.142 81.4306C107.643 69.7518 119.828 62.9028 131.689 66.0812C143.54 69.2564 150.666 81.2605 147.88 93.1142L144.006 107.57L144.006 107.57L142.487 113.239L145.726 114.107L145.726 114.107L154.634 116.493L155.935 111.635L147.838 109.465L147.838 109.465L147.838 109.465L151.744 94.8885L151.756 94.8918L151.756 94.8917C155.591 80.5806 147.092 65.869 132.774 62.0324Z" fill="#65BFCF"/>
<path fill-rule="evenodd" clip-rule="evenodd" d="M96.5298 113.076L91.6711 111.774L89.8779 118.466C83.1262 117.886 76.7245 122.207 74.9094 128.981C72.8722 136.584 77.3841 144.399 84.9871 146.436C92.59 148.473 100.405 143.961 102.442 136.358C104.257 129.584 100.873 122.642 94.7366 119.768L96.5298 113.076Z" fill="#EDEDED"/>
<rect x="95.7207" y="112.859" width="8.3835" height="8.3835" transform="rotate(15 95.7207 112.859)" fill="white"/>
<path d="M98.0329 120.422C90.43 118.385 82.6151 122.897 80.5779 130.5C78.5407 138.102 83.0526 145.917 90.6555 147.955C98.2585 149.992 106.073 145.48 108.111 137.877C110.148 130.274 105.636 122.459 98.0329 120.422Z" fill="white"/>
<path d="M100.088 119.236C91.5905 116.959 82.8562 122.002 80.5794 130.5C78.3025 138.997 83.3452 147.731 91.8426 150.008C100.34 152.285 109.074 147.242 111.351 138.745C113.628 130.247 108.585 121.513 100.088 119.236Z" fill="#292659"/>
<path d="M98.4311 127.247C94.406 126.169 90.2687 128.557 89.1902 132.582C88.1117 136.607 90.5003 140.745 94.5254 141.823C98.5505 142.902 102.688 140.513 103.766 136.488C104.845 132.463 102.456 128.326 98.4311 127.247Z" fill="#5E48AF"/>
<mask id="mask1_5048_21731" style="mask-type:alpha" maskUnits="userSpaceOnUse" x="88" y="126" width="17" height="17">
<path d="M98.4311 127.247C94.406 126.169 90.2687 128.557 89.1902 132.582C88.1117 136.607 90.5003 140.745 94.5254 141.823C98.5505 142.902 102.688 140.513 103.766 136.488C104.845 132.463 102.456 128.326 98.4311 127.247Z" fill="white"/>
</mask>
<g mask="url(#mask1_5048_21731)">
<path fill-rule="evenodd" clip-rule="evenodd" d="M101.642 124.509L86.139 133.459L85.7199 132.733L101.223 123.783L101.642 124.509Z" fill="#292659"/>
<path fill-rule="evenodd" clip-rule="evenodd" d="M104.072 125.16L85.4881 135.889L85.0689 135.163L103.653 124.434L104.072 125.16Z" fill="#292659"/>
<path fill-rule="evenodd" clip-rule="evenodd" d="M105.474 126.403L84.8364 138.318L84.4172 137.592L105.054 125.677L105.474 126.403Z" fill="#292659"/>
<path fill-rule="evenodd" clip-rule="evenodd" d="M106.363 127.943L84.1857 140.747L83.7665 140.021L105.944 127.217L106.363 127.943Z" fill="#292659"/>
<path fill-rule="evenodd" clip-rule="evenodd" d="M105.713 130.373L83.5353 143.177L83.1161 142.451L105.293 129.647L105.713 130.373Z" fill="#292659"/>
<path fill-rule="evenodd" clip-rule="evenodd" d="M105.061 132.802L82.8839 145.606L82.4648 144.88L104.642 132.076L105.061 132.802Z" fill="#292659"/>
<path fill-rule="evenodd" clip-rule="evenodd" d="M104.411 135.231L88.4964 144.42L88.0772 143.694L103.992 134.505L104.411 135.231Z" fill="#292659"/>
<path fill-rule="evenodd" clip-rule="evenodd" d="M105.299 136.772L90.9244 145.071L90.5052 144.345L104.88 136.046L105.299 136.772Z" fill="#292659"/>
</g>
<path d="M105.864 47.1088C105.619 47.1476 105.3 46.8528 104.908 46.2245C104.533 45.5725 104.309 45.022 104.238 44.5729C104.219 44.4504 104.223 44.3451 104.251 44.257L112.229 28.2418L103.717 29.59C103.39 29.6417 103.136 29.5564 102.955 29.3341C102.773 29.1118 102.64 28.7352 102.556 28.2045L102.406 27.2554C102.322 26.7246 102.332 26.3255 102.436 26.0579C102.54 25.7903 102.755 25.6307 103.082 25.579L117.074 23.3628C117.299 23.3272 117.6 23.6456 117.979 24.318C118.357 24.9904 118.582 25.5511 118.653 26.0002C118.679 26.1635 118.651 26.3145 118.568 26.4531L110.709 42.2297L120.048 40.7506C120.375 40.6989 120.629 40.7842 120.81 41.0065C120.992 41.2288 121.125 41.6054 121.209 42.1361L121.359 43.0852C121.443 43.616 121.433 44.0151 121.329 44.2827C121.225 44.5503 121.01 44.7099 120.683 44.7616L105.864 47.1088Z" fill="white"/>
<path d="M128.386 39C128.218 39 128.036 38.769 127.84 38.307C127.658 37.831 127.567 37.439 127.567 37.131C127.567 37.047 127.581 36.977 127.609 36.921L134.644 27.051H128.806C128.582 27.051 128.421 26.967 128.323 26.799C128.225 26.631 128.176 26.365 128.176 26.001V25.35C128.176 24.986 128.225 24.72 128.323 24.552C128.421 24.384 128.582 24.3 128.806 24.3H138.403C138.557 24.3 138.725 24.545 138.907 25.035C139.089 25.525 139.18 25.924 139.18 26.232C139.18 26.344 139.145 26.442 139.075 26.526L132.145 36.249H138.55C138.774 36.249 138.935 36.333 139.033 36.501C139.131 36.669 139.18 36.935 139.18 37.299V37.95C139.18 38.314 139.131 38.58 139.033 38.748C138.935 38.916 138.774 39 138.55 39H128.386Z" fill="white"/>
<path d="M143.328 45.5792C143.233 45.5675 143.146 45.4238 143.067 45.1482C142.997 44.8655 142.973 44.6368 142.994 44.4622C143 44.4145 143.013 44.3758 143.032 44.346L147.71 39.2379L144.399 38.8314C144.272 38.8158 144.186 38.7569 144.142 38.6548C144.098 38.5527 144.089 38.3984 144.114 38.192L144.16 37.8227C144.185 37.6163 144.231 37.4688 144.299 37.3804C144.366 37.2919 144.463 37.2555 144.59 37.2711L150.033 37.9394C150.121 37.9501 150.199 38.1008 150.268 38.3914C150.337 38.682 150.361 38.9146 150.34 39.0893C150.332 39.1528 150.305 39.206 150.26 39.2487L145.652 44.2807L149.285 44.7268C149.412 44.7424 149.497 44.8012 149.541 44.9033C149.585 45.0054 149.594 45.1597 149.569 45.3662L149.523 45.7354C149.498 45.9418 149.452 46.0893 149.385 46.1778C149.317 46.2662 149.22 46.3026 149.093 46.287L143.328 45.5792Z" fill="white"/>
</g>
</svg>
