<svg width="260" height="200" viewBox="0 0 260 200" fill="none" xmlns="http://www.w3.org/2000/svg">
<mask id="mask0_2326_138824" style="mask-type:alpha" maskUnits="userSpaceOnUse" x="41" y="0" width="179" height="200">
<path d="M140.267 2.67995L209.534 42.6782C215.722 46.2515 219.534 52.8552 219.534 60.0017V139.998C219.534 147.145 215.722 153.749 209.534 157.322L140.267 197.32C134.079 200.893 126.455 200.893 120.267 197.32L51 157.322C44.812 153.749 41 147.145 41 139.998V60.0017C41 52.8552 44.812 46.2515 51 42.6782L120.267 2.67995C126.455 -0.893317 134.079 -0.893317 140.267 2.67995Z" fill="white"/>
</mask>
<g mask="url(#mask0_2326_138824)">
<path d="M51 42.6777L120.267 2.67938C126.455 -0.8939 134.079 -0.893891 140.267 2.67938L209.534 42.6777C215.722 46.2509 219.534 52.8546 219.534 60.0011L219.534 139.998C219.534 147.144 215.723 153.748 209.534 157.321L140.267 197.319C134.079 200.893 126.455 200.893 120.267 197.319L51 157.321C44.812 153.748 41 147.144 41 139.998L41 60.0011C41 52.8546 44.812 46.2509 51 42.6777Z" fill="url(#paint0_linear_2326_138824)"/>
<path fill-rule="evenodd" clip-rule="evenodd" d="M95.4961 -5.40234L131.245 240.794L165.441 -5.40234H95.4961Z" fill="#7458DC"/>
<path fill-rule="evenodd" clip-rule="evenodd" d="M206.641 -6.41406L130.864 230.539L269.507 24.2531L206.641 -6.41406Z" fill="#7458DC"/>
<path fill-rule="evenodd" clip-rule="evenodd" d="M-21.9702 30.1602L132.066 225.495L38.6041 -4.81842L-21.9702 30.1602Z" fill="#7458DC"/>
<path fill-rule="evenodd" clip-rule="evenodd" d="M-95.041 111.09L129.02 219.119L-55.9282 53.0927L-95.041 111.09Z" fill="#7458DC"/>
<path fill-rule="evenodd" clip-rule="evenodd" d="M287.854 58.2578L122.268 243.899L332.814 111.848L287.854 58.2578Z" fill="#7458DC"/>
</g>
<mask id="mask1_2326_138824" style="mask-type:alpha" maskUnits="userSpaceOnUse" x="41" y="0" width="179" height="200">
<path d="M140.267 2.67995L209.534 42.6782C215.722 46.2515 219.534 52.8552 219.534 60.0017V139.998C219.534 147.145 215.722 153.749 209.534 157.322L140.267 197.32C134.079 200.893 126.455 200.893 120.267 197.32L51 157.322C44.812 153.749 41 147.145 41 139.998V60.0017C41 52.8552 44.812 46.2515 51 42.6782L120.267 2.67995C126.455 -0.893317 134.079 -0.893317 140.267 2.67995Z" fill="white"/>
</mask>
<g mask="url(#mask1_2326_138824)">
<path fill-rule="evenodd" clip-rule="evenodd" d="M137.959 6.67685C133.199 3.92823 127.335 3.92823 122.575 6.67685L53.3078 46.6751C48.5479 49.4238 45.6154 54.5037 45.6154 60.0013V139.998C45.6154 142.747 46.3483 145.391 47.6766 147.692C49.005 149.993 50.9278 151.95 53.3078 153.324L122.575 193.322C124.955 194.697 127.611 195.384 130.267 195.384C132.924 195.384 135.579 194.697 137.959 193.322L207.227 153.324C209.607 151.95 211.529 149.993 212.858 147.692C214.186 145.391 214.919 142.747 214.919 139.998V60.0013C214.919 54.5037 211.987 49.4238 207.227 46.6751L137.959 6.67685ZM120.267 2.67998C126.455 -0.893328 134.079 -0.893328 140.267 2.67998L209.535 42.6783C215.723 46.2516 219.534 52.8551 219.534 60.0013V139.998C219.534 143.571 218.581 147.009 216.855 149.999C215.129 152.99 212.629 155.534 209.535 157.321L140.267 197.319C137.173 199.106 133.72 199.999 130.267 199.999C126.815 199.999 123.361 199.106 120.267 197.319L50.9999 157.321C47.9059 155.534 45.4056 152.99 43.6794 149.999C41.9532 147.009 41 143.571 41 139.998V60.0013C41 52.8551 44.8118 46.2516 50.9999 42.6783L120.267 2.67998Z" fill="url(#paint1_linear_2326_138824)"/>
<g opacity="0.395485">
<g opacity="0.395485" filter="url(#filter0_f_2326_138824)">
<path d="M145.001 85.6019L145.02 85.6173C145.16 85.6464 145.301 85.6769 145.441 85.7088C157.037 88.3438 163.531 99.6363 160.339 111.236L160.24 111.587L160.235 111.603C160.205 111.705 160.175 111.806 160.144 111.907L160.031 112.266L160.02 112.263L154.75 128.497L153.401 128.191L150.327 137.66L151.676 137.967L149.755 143.884C153.973 146.393 155.959 151.543 154.279 156.716C152.218 163.067 145.414 167.049 139.082 165.61C138.583 165.496 138.101 165.353 137.639 165.181L135.31 170.563L132.604 169.948L133.632 165.275C132.385 165.349 131.122 165.254 129.875 164.97C128.217 164.594 126.736 163.918 125.468 163.012L106.736 173.973L91.6993 175.179L91.1852 172.865L91.1044 172.864L91.1575 172.742L91.1521 172.717L91.169 172.716L92.604 169.436L104.689 170.753L122.638 160.127C120.586 157.129 119.945 153.174 121.233 149.207C123.538 142.109 131.142 137.659 138.219 139.267C138.908 139.423 139.566 139.632 140.192 139.886L141.56 135.668L142.908 135.974L145.982 126.505L144.634 126.198L150.083 109.416C152.646 100.675 148.67 92.0821 140.903 88.6458C132.133 88.3192 123.517 94.0227 120.426 102.618L114.96 119.455L113.611 119.148L110.537 128.617L111.886 128.925L110.517 133.142C116.316 135.505 119.267 141.88 117.187 148.287C114.883 155.385 107.278 159.835 100.201 158.227C98.138 157.758 96.3476 156.826 94.9032 155.565C94.7921 155.543 94.6813 155.52 94.5706 155.494C88.2387 154.055 84.7769 147.741 86.8385 141.39C88.6754 135.732 94.2774 131.954 99.9557 132.215L101.77 126.626L103.118 126.931L106.192 117.462L104.844 117.156L110.114 100.921L110.104 100.919C110.175 100.699 110.25 100.479 110.328 100.262L110.333 100.246C114.469 88.6854 127.023 81.5229 138.721 84.1816C139.07 84.2609 139.415 84.3481 139.755 84.4429L145.001 85.6019Z" fill="#292659"/>
</g>
</g>
<path d="M165.782 161.491C172.512 163.016 175.964 170.451 173.552 178.252L173.467 178.521L172.47 181.093C172.214 181.753 171.546 182.146 170.978 181.97C170.443 181.805 170.188 181.195 170.373 180.574L170.413 180.457L171.382 177.964C173.493 171.485 170.632 165.196 164.991 163.919C159.425 162.658 153.233 166.747 151.042 173.082L150.957 173.337L149.902 176.573C148.254 181.633 143.397 184.953 138.978 184.086L138.771 184.043C134.357 183.042 132.079 178.282 133.6 173.244L133.676 173.004L137.921 159.958C138.139 159.288 138.789 158.851 139.372 158.983C139.921 159.108 140.216 159.691 140.067 160.318L140.034 160.436L135.789 173.482C134.56 177.259 136.237 180.862 139.562 181.615C142.808 182.351 146.418 179.981 147.72 176.3L147.789 176.094L148.931 172.592L149.025 172.329C151.704 164.898 158.959 160.097 165.55 161.441L165.782 161.491Z" fill="#292659"/>
<path d="M140.969 125.513C133.775 123.885 125.761 129.26 123.069 137.52C120.378 145.779 124.028 153.795 131.222 155.423C138.416 157.051 146.431 151.675 149.122 143.416C151.814 135.156 148.164 127.141 140.969 125.513Z" fill="#292659"/>
<path d="M155.947 113.41L148.687 111.738L143.991 126.376L151.252 128.048L155.947 113.41Z" fill="#292659"/>
<path d="M149.203 121.281L147.019 127.978C151.695 130.562 153.782 136.734 151.716 143.066C149.44 150.043 142.931 154.73 136.783 154.049L134.713 160.437L133.556 160.176L135.07 153.713C132.411 152.957 130.336 151.203 129.034 148.868L105.853 164.57L90.5821 164.887L92.288 160.869L104.702 162.005L127.967 146.247C127.262 143.695 127.314 140.749 128.286 137.769C130.443 131.157 136.4 126.602 142.249 126.722L144.379 120.191L149.203 121.281Z" fill="url(#paint2_linear_2326_138824)"/>
<path d="M112.11 101.66L104.849 99.9883L100.154 114.626L107.414 116.298L112.11 101.66Z" fill="#292659"/>
<path fill-rule="evenodd" clip-rule="evenodd" d="M155.412 121.289L152.866 128.405C156.849 131.098 158.313 137.055 156.087 143.277C153.354 150.915 146.096 156.059 139.875 154.767C139.385 154.666 138.916 154.527 138.469 154.354L135.567 160.864L133.572 160.45L136.217 153.056C134.673 151.814 133.569 150.039 132.988 147.943L106.468 166.739L91.2164 169.134L90.9211 166.261L105.457 164.151L132.53 144.962C132.447 142.962 132.773 140.797 133.56 138.599C135.786 132.377 141.015 127.809 146.241 127.029L148.786 119.913L155.412 121.289Z" fill="url(#paint3_linear_2326_138824)"/>
<path d="M149.205 133.384C144.867 132.481 139.805 136.079 137.899 141.42C135.994 146.762 137.966 151.824 142.304 152.728C146.642 153.631 151.704 150.033 153.609 144.692C155.515 139.35 153.543 134.288 149.205 133.384Z" fill="#A78D16"/>
<path d="M147.952 136.635C145.06 136.033 141.685 138.431 140.415 141.992C139.145 145.553 140.459 148.928 143.351 149.531C146.243 150.133 149.618 147.734 150.888 144.173C152.159 140.612 150.844 137.237 147.952 136.635Z" fill="#EFCF32"/>
<path fill-rule="evenodd" clip-rule="evenodd" d="M145.537 65.3689L145.556 65.3864C145.702 65.416 145.847 65.4472 145.993 65.4801C158.241 68.249 164.521 81.7514 160.161 95.7632L160.026 96.188L160.015 96.1847L155.307 110.611L148.318 109.031L153.025 94.6047L152.359 94.4545L152.407 94.3043C155.932 82.9776 151.216 72.0453 141.726 69.094C132.361 68.6641 122.732 75.7254 119.011 86.1494L114.07 101.289L107.081 99.709L111.788 85.2828L110.532 84.9988L110.435 85.2902C114.96 71.4238 124.291 64.4375 137.926 65.2874L137.857 65.2826C137.883 65.2781 137.91 65.2737 137.937 65.2693L138.762 63.8868L145.537 65.3689Z" fill="url(#paint4_linear_2326_138824)"/>
<path fill-rule="evenodd" clip-rule="evenodd" d="M143.343 112.709L149.809 92.9019C153.299 81.2296 148.03 70.0503 137.828 67.745C127.635 65.4417 116.304 72.8529 112.208 84.3735L107.296 99.4201L114.261 100.994L112.698 105.784L102.25 103.423L108.505 84.2626L108.494 84.2605C108.579 84 108.667 83.7412 108.758 83.4842L108.765 83.4651C113.619 69.8086 127.049 61.0234 139.131 63.7535C151.092 66.4563 157.332 79.4516 153.461 93.1231L153.34 93.5376L153.335 93.5569C153.299 93.6761 153.263 93.7954 153.225 93.9147L153.091 94.3378L153.08 94.3351L148.389 108.706L155.354 110.28L153.79 115.069L143.343 112.709Z" fill="url(#paint5_linear_2326_138824)"/>
<path d="M104.855 111.024L102.764 117.469C107.787 119.798 110.114 126.15 107.997 132.674C105.621 139.996 98.547 144.761 92.197 143.318C85.847 141.874 82.6256 134.768 85.0017 127.446C87.1187 120.922 92.9648 116.428 98.7055 116.547L100.797 110.102L104.855 111.024Z" fill="#A78D16"/>
<path d="M110.608 113.286L103.752 111.734L101.187 119.605L108.043 121.157L110.608 113.286Z" fill="#EFCF32"/>
<path d="M106.277 117.925C99.8399 116.468 92.6693 121.278 90.261 128.668C87.8527 136.058 91.1186 143.23 97.5557 144.686C103.993 146.143 111.163 141.333 113.572 133.943C115.98 126.553 112.714 119.381 106.277 117.925Z" fill="white"/>
<path d="M108.276 116.751C101.082 115.123 93.0679 120.499 90.3763 128.758C87.6847 137.018 91.3348 145.033 98.5292 146.661C105.724 148.289 113.738 142.914 116.429 134.654C119.121 126.395 115.471 118.379 108.276 116.751Z" fill="#292659"/>
<mask id="mask2_2326_138824" style="mask-type:alpha" maskUnits="userSpaceOnUse" x="97" y="124" width="14" height="16">
<path d="M101.148 138.954C104.325 139.59 108.121 136.824 109.627 132.776C111.133 128.728 109.778 124.931 106.601 124.295C103.424 123.66 99.6279 126.426 98.122 130.474C96.6161 134.522 97.9708 138.319 101.148 138.954Z" fill="white"/>
</mask>
<g mask="url(#mask2_2326_138824)">
<path d="M106.46 124.372C103.206 123.694 99.4094 126.392 97.9811 130.397C96.5527 134.403 98.033 138.2 101.287 138.878C104.542 139.556 108.338 136.858 109.766 132.853C111.195 128.847 109.715 125.05 106.46 124.372Z" fill="#5E48AF"/>
<path fill-rule="evenodd" clip-rule="evenodd" d="M108.549 121.476L94.3242 131.584L94.0643 130.918L108.289 120.809L108.549 121.476Z" fill="#292659"/>
<path fill-rule="evenodd" clip-rule="evenodd" d="M110.779 121.885L93.7272 134.002L93.4674 133.336L110.519 121.219L110.779 121.885Z" fill="#292659"/>
<path fill-rule="evenodd" clip-rule="evenodd" d="M112.066 122.904L93.13 136.36L92.8702 135.694L111.806 122.237L112.066 122.904Z" fill="#292659"/>
<path fill-rule="evenodd" clip-rule="evenodd" d="M112.881 124.221L92.532 138.682L92.2721 138.016L112.621 123.555L112.881 124.221Z" fill="#292659"/>
<path fill-rule="evenodd" clip-rule="evenodd" d="M112.284 126.452L91.9348 140.912L91.675 140.246L112.024 125.786L112.284 126.452Z" fill="#292659"/>
<path fill-rule="evenodd" clip-rule="evenodd" d="M111.686 128.682L91.3376 143.143L91.0778 142.477L111.427 128.016L111.686 128.682Z" fill="#292659"/>
<path fill-rule="evenodd" clip-rule="evenodd" d="M111.09 131.292L96.4868 141.669L96.227 141.003L110.83 130.626L111.09 131.292Z" fill="#292659"/>
<path fill-rule="evenodd" clip-rule="evenodd" d="M111.905 132.798L98.7152 142.171L98.4554 141.505L111.645 132.132L111.905 132.798Z" fill="#292659"/>
</g>
<path fill-rule="evenodd" clip-rule="evenodd" d="M65.268 116.926C65.4804 116.926 65.6526 117.098 65.6526 117.31V119.242L67.5757 119.242C67.7881 119.242 67.9603 119.414 67.9603 119.627C67.9603 119.839 67.7881 120.012 67.5757 120.012L65.6526 120.011V121.927C65.6526 122.139 65.4804 122.311 65.268 122.311C65.0556 122.311 64.8834 122.139 64.8834 121.927V120.011L62.9603 120.012C62.7479 120.012 62.5757 119.839 62.5757 119.627C62.5757 119.414 62.7479 119.242 62.9603 119.242L64.8834 119.242V117.31C64.8834 117.098 65.0556 116.926 65.268 116.926Z" fill="#9B85ED"/>
<path fill-rule="evenodd" clip-rule="evenodd" d="M86.8066 83.0742C87.019 83.0742 87.1912 83.2464 87.1912 83.4589V85.39L89.1143 85.3907C89.3267 85.3907 89.4989 85.5629 89.4989 85.7753C89.4989 85.9878 89.3267 86.16 89.1143 86.16L87.1912 86.1594V88.0751C87.1912 88.2875 87.019 88.4598 86.8066 88.4598C86.5941 88.4598 86.422 88.2875 86.422 88.0751V86.1594L84.4989 86.16C84.2865 86.16 84.1143 85.9878 84.1143 85.7753C84.1143 85.5629 84.2865 85.3907 84.4989 85.3907L86.422 85.39V83.4589C86.422 83.2464 86.5941 83.0742 86.8066 83.0742Z" fill="#9B85ED"/>
<path fill-rule="evenodd" clip-rule="evenodd" d="M64.4989 94.6133C64.7114 94.6133 64.8836 94.7855 64.8836 94.998V96.9291L66.8066 96.9297C67.0191 96.9297 67.1913 97.102 67.1913 97.3144C67.1913 97.5269 67.0191 97.6991 66.8066 97.6991L64.8836 97.6984V99.6141C64.8836 99.8266 64.7114 99.9988 64.4989 99.9988C64.2865 99.9988 64.1143 99.8266 64.1143 99.6141V97.6984L62.1913 97.6991C61.9788 97.6991 61.8066 97.5269 61.8066 97.3144C61.8066 97.102 61.9788 96.9297 62.1913 96.9297L64.1143 96.9291V94.998C64.1143 94.7855 64.2865 94.6133 64.4989 94.6133Z" fill="#9B85ED"/>
<path fill-rule="evenodd" clip-rule="evenodd" d="M181.422 112.309C181.634 112.309 181.806 112.481 181.806 112.693V114.624L183.729 114.625C183.942 114.625 184.114 114.797 184.114 115.01C184.114 115.222 183.942 115.394 183.729 115.394L181.806 115.394V117.309C181.806 117.522 181.634 117.694 181.422 117.694C181.209 117.694 181.037 117.522 181.037 117.309V115.394L179.114 115.394C178.902 115.394 178.729 115.222 178.729 115.01C178.729 114.797 178.902 114.625 179.114 114.625L181.037 114.624V112.693C181.037 112.481 181.209 112.309 181.422 112.309Z" fill="#9B85ED"/>
<path fill-rule="evenodd" clip-rule="evenodd" d="M178.345 78.457C178.558 78.457 178.73 78.6293 178.73 78.8417V80.7728L180.653 80.7735C180.865 80.7735 181.037 80.9457 181.037 81.1582C181.037 81.3706 180.865 81.5428 180.653 81.5428L178.73 81.5422V83.4579C178.73 83.6703 178.558 83.8426 178.345 83.8426C178.133 83.8426 177.961 83.6703 177.961 83.4579V81.5422L176.037 81.5428C175.825 81.5428 175.653 81.3706 175.653 81.1582C175.653 80.9457 175.825 80.7735 176.037 80.7735L177.961 80.7728V78.8417C177.961 78.6293 178.133 78.457 178.345 78.457Z" fill="#9B85ED"/>
<path fill-rule="evenodd" clip-rule="evenodd" d="M202.191 109.23C202.404 109.23 202.576 109.403 202.576 109.615V111.546L204.499 111.547C204.711 111.547 204.884 111.719 204.884 111.932C204.884 112.144 204.711 112.316 204.499 112.316L202.576 112.316V114.231C202.576 114.444 202.404 114.616 202.191 114.616C201.979 114.616 201.807 114.444 201.807 114.231V112.316L199.884 112.316C199.671 112.316 199.499 112.144 199.499 111.932C199.499 111.719 199.671 111.547 199.884 111.547L201.807 111.546V109.615C201.807 109.403 201.979 109.23 202.191 109.23Z" fill="#9B85ED"/>
<path fill-rule="evenodd" clip-rule="evenodd" d="M175.268 143.852C175.48 143.852 175.653 144.024 175.653 144.236V146.167L177.576 146.168C177.788 146.168 177.96 146.34 177.96 146.553C177.96 146.765 177.788 146.937 177.576 146.937L175.653 146.937V148.852C175.653 149.065 175.48 149.237 175.268 149.237C175.056 149.237 174.883 149.065 174.883 148.852V146.937L172.96 146.937C172.748 146.937 172.576 146.765 172.576 146.553C172.576 146.34 172.748 146.168 172.96 146.168L174.883 146.167V144.236C174.883 144.024 175.056 143.852 175.268 143.852Z" fill="#9B85ED"/>
<path fill-rule="evenodd" clip-rule="evenodd" d="M76.8066 150.777C77.019 150.777 77.1912 150.95 77.1912 151.162V153.093L79.1143 153.094C79.3267 153.094 79.4989 153.266 79.4989 153.478C79.4989 153.691 79.3267 153.863 79.1143 153.863L77.1912 153.862V155.778C77.1912 155.991 77.019 156.163 76.8066 156.163C76.5941 156.163 76.422 155.991 76.422 155.778V153.862L74.4989 153.863C74.2865 153.863 74.1143 153.691 74.1143 153.478C74.1143 153.266 74.2865 153.094 74.4989 153.094L76.422 153.093V151.162C76.422 150.95 76.5941 150.777 76.8066 150.777Z" fill="#9B85ED"/>
<g opacity="0.585007" filter="url(#filter1_f_2326_138824)">
<path fill-rule="evenodd" clip-rule="evenodd" d="M112.919 29.2879C113.068 29.3625 113.19 29.4838 113.264 29.6335L116.95 37.0315C117.062 37.2576 117.279 37.414 117.528 37.45L125.757 38.6345C126.061 38.6783 126.298 38.8946 126.383 39.1702L126.392 39.1691L126.393 39.2037C126.417 39.2995 126.424 39.4016 126.409 39.5057L126.391 39.5866L126.393 43.0413C126.417 43.1371 126.424 43.2393 126.409 43.3433C126.385 43.5124 126.305 43.6685 126.182 43.7872L120.513 49.2614L121.418 54.4892C121.439 54.6097 121.43 54.7285 121.398 54.8383L121.397 58.2114L121.418 58.3269C121.49 58.7455 121.21 59.1437 120.791 59.2162C120.625 59.245 120.454 59.2184 120.305 59.1405L112.931 55.2999C112.708 55.1839 112.443 55.1839 112.22 55.2999L104.846 59.1405C104.47 59.3368 104.005 59.1903 103.809 58.8135C103.731 58.6639 103.704 58.493 103.733 58.3269L103.741 58.2776L103.741 54.7902C103.719 54.6919 103.716 54.5897 103.733 54.4892L104.638 49.2606L98.9693 43.7872C98.7755 43.6001 98.7012 43.3358 98.7479 43.0896L98.7487 39.5443C98.7022 39.306 98.7688 39.0496 98.9502 38.8617C99.0688 38.7388 99.225 38.6589 99.394 38.6345L107.623 37.45C107.873 37.414 108.089 37.2576 108.202 37.0315L111.887 29.6335C112.077 29.2531 112.538 29.0985 112.919 29.2879Z" fill="#251560"/>
</g>
<path fill-rule="evenodd" clip-rule="evenodd" d="M112.915 26.4195C113.067 26.4943 113.19 26.6172 113.265 26.7689L116.443 33.2102L126.293 32.468L126.294 36.3315C126.323 36.4324 126.331 36.5407 126.315 36.6511C126.29 36.8186 126.212 36.9733 126.09 37.0914L120.18 42.8533C119.999 43.0301 119.916 43.2847 119.959 43.5343L120.706 47.8912L121.335 47.9455L121.334 51.5526L121.354 51.6703C121.426 52.0891 121.145 52.4868 120.726 52.5586C120.559 52.5872 120.388 52.5601 120.238 52.4813L112.933 48.6401C112.709 48.5222 112.441 48.5222 112.217 48.6401L104.912 52.4813C104.536 52.6791 104.071 52.5345 103.873 52.1584C103.794 52.0086 103.767 51.8371 103.796 51.6703L103.803 51.6203L103.804 48.028L104.627 46.8164L105.191 43.5343C105.234 43.2847 105.151 43.0301 104.97 42.8533L99.0594 37.0914C98.8613 36.8983 98.7896 36.6244 98.8455 36.3727L98.8465 32.5828L108.539 33.548L111.885 26.7689C112.073 26.3879 112.534 26.2314 112.915 26.4195Z" fill="url(#paint6_linear_2326_138824)"/>
<path fill-rule="evenodd" clip-rule="evenodd" d="M112.217 44.7924L104.912 48.6337C104.536 48.8314 104.071 48.6868 103.873 48.3107C103.794 48.1609 103.767 47.9894 103.796 47.8226L105.191 39.6867C105.234 39.4371 105.151 39.1824 104.97 39.0057L99.0594 33.2438C98.7552 32.9472 98.749 32.4601 99.0455 32.1558C99.1636 32.0346 99.3184 31.9558 99.4858 31.9315L107.653 30.7444C107.904 30.708 108.12 30.5506 108.233 30.3236L111.885 22.9212C112.073 22.5402 112.534 22.3838 112.915 22.5718C113.067 22.6467 113.19 22.7695 113.265 22.9212L116.917 30.3236C117.029 30.5506 117.246 30.708 117.497 30.7444L125.664 31.9315C126.085 31.9926 126.376 32.383 126.315 32.8035C126.29 32.9709 126.212 33.1257 126.09 33.2438L120.18 39.0057C119.999 39.1824 119.916 39.4371 119.959 39.6867L121.354 47.8226C121.426 48.2414 121.145 48.6392 120.726 48.711C120.559 48.7396 120.388 48.7124 120.238 48.6337L112.933 44.7924C112.709 44.6746 112.441 44.6746 112.217 44.7924Z" fill="url(#paint7_linear_2326_138824)"/>
<path opacity="0.318034" fill-rule="evenodd" clip-rule="evenodd" d="M104.113 31.6733L107.862 31.1395C108.111 31.104 108.327 30.9492 108.44 30.7248L112.224 23.2347C112.32 23.0451 112.551 22.969 112.74 23.0649C112.814 23.1023 112.874 23.1626 112.911 23.2368L116.636 30.7233C116.749 30.9486 116.964 31.1048 117.213 31.1416L125.414 32.3538C125.624 32.3848 125.769 32.5804 125.738 32.7906C125.726 32.874 125.686 32.9511 125.626 33.01L119.568 38.9075C119.385 39.0856 119.302 39.3427 119.347 39.594L119.96 43.0262L104.113 31.6733Z" fill="white"/>
<g opacity="0.585007" filter="url(#filter2_f_2326_138824)">
<path fill-rule="evenodd" clip-rule="evenodd" d="M148.303 29.2879C148.453 29.3625 148.574 29.4838 148.649 29.6335L152.334 37.0315C152.447 37.2576 152.663 37.414 152.913 37.45L161.142 38.6345C161.446 38.6783 161.683 38.8946 161.768 39.1702L161.777 39.1691L161.777 39.2037C161.802 39.2995 161.809 39.4016 161.794 39.5057L161.776 39.5866L161.777 43.0413C161.802 43.1371 161.809 43.2393 161.794 43.3433C161.769 43.5124 161.69 43.6685 161.567 43.7872L155.897 49.2614L156.803 54.4892C156.824 54.6097 156.815 54.7285 156.783 54.8383L156.782 58.2114L156.803 58.3269C156.875 58.7455 156.595 59.1437 156.176 59.2162C156.01 59.245 155.839 59.2184 155.689 59.1405L148.316 55.2999C148.093 55.1839 147.828 55.1839 147.605 55.2999L140.231 59.1405C139.854 59.3368 139.39 59.1903 139.194 58.8135C139.116 58.6639 139.089 58.493 139.118 58.3269L139.126 58.2776L139.126 54.7902C139.103 54.6919 139.101 54.5897 139.118 54.4892L140.023 49.2606L134.354 43.7872C134.16 43.6001 134.086 43.3358 134.133 43.0896L134.133 39.5443C134.087 39.306 134.154 39.0496 134.335 38.8617C134.454 38.7388 134.61 38.6589 134.779 38.6345L143.008 37.45C143.257 37.414 143.474 37.2576 143.586 37.0315L147.272 29.6335C147.461 29.2531 147.923 29.0985 148.303 29.2879Z" fill="#251560"/>
</g>
<path fill-rule="evenodd" clip-rule="evenodd" d="M148.301 26.4195C148.453 26.4943 148.576 26.6172 148.651 26.7689L151.829 33.2102L161.679 32.468L161.68 36.3315C161.708 36.4324 161.717 36.5407 161.701 36.6511C161.676 36.8186 161.597 36.9733 161.476 37.0914L155.566 42.8533C155.385 43.0301 155.302 43.2847 155.345 43.5343L156.091 47.8912L156.72 47.9455L156.72 51.5526L156.74 51.6703C156.812 52.0891 156.531 52.4868 156.112 52.5586C155.945 52.5872 155.774 52.5601 155.624 52.4813L148.319 48.6401C148.095 48.5222 147.827 48.5222 147.603 48.6401L140.297 52.4813C139.921 52.6791 139.456 52.5345 139.259 52.1584C139.18 52.0086 139.153 51.8371 139.181 51.6703L139.189 51.6203L139.189 48.028L140.013 46.8164L140.577 43.5343C140.619 43.2847 140.537 43.0301 140.355 42.8533L134.445 37.0914C134.247 36.8983 134.175 36.6244 134.231 36.3727L134.232 32.5828L143.925 33.548L147.271 26.7689C147.459 26.3879 147.92 26.2314 148.301 26.4195Z" fill="url(#paint8_linear_2326_138824)"/>
<path fill-rule="evenodd" clip-rule="evenodd" d="M147.603 44.7924L140.297 48.6337C139.921 48.8314 139.456 48.6868 139.259 48.3107C139.18 48.1609 139.153 47.9894 139.181 47.8226L140.577 39.6867C140.619 39.4371 140.537 39.1824 140.355 39.0057L134.445 33.2438C134.141 32.9472 134.135 32.4601 134.431 32.1558C134.549 32.0346 134.704 31.9558 134.872 31.9315L143.039 30.7444C143.29 30.708 143.506 30.5506 143.618 30.3236L147.271 22.9212C147.459 22.5402 147.92 22.3838 148.301 22.5718C148.453 22.6467 148.576 22.7695 148.651 22.9212L152.303 30.3236C152.415 30.5506 152.632 30.708 152.882 30.7444L161.05 31.9315C161.47 31.9926 161.762 32.383 161.701 32.8035C161.676 32.9709 161.597 33.1257 161.476 33.2438L155.566 39.0057C155.385 39.1824 155.302 39.4371 155.345 39.6867L156.74 47.8226C156.812 48.2414 156.531 48.6392 156.112 48.711C155.945 48.7396 155.774 48.7124 155.624 48.6337L148.319 44.7924C148.095 44.6746 147.827 44.6746 147.603 44.7924Z" fill="url(#paint9_linear_2326_138824)"/>
<path opacity="0.318034" fill-rule="evenodd" clip-rule="evenodd" d="M139.499 31.6733L143.248 31.1395C143.496 31.104 143.712 30.9492 143.826 30.7248L147.609 23.2347C147.705 23.0451 147.937 22.969 148.126 23.0649C148.2 23.1023 148.26 23.1626 148.297 23.2368L152.022 30.7233C152.134 30.9486 152.35 31.1048 152.598 31.1416L160.8 32.3538C161.01 32.3848 161.155 32.5804 161.124 32.7906C161.112 32.874 161.072 32.9511 161.012 33.01L154.954 38.9075C154.771 39.0856 154.688 39.3427 154.733 39.594L155.346 43.0262L139.499 31.6733Z" fill="white"/>
<g opacity="0.585007" filter="url(#filter3_f_2326_138824)">
<path fill-rule="evenodd" clip-rule="evenodd" d="M181.38 53.1395C181.53 53.2141 181.651 53.3354 181.726 53.485L185.411 60.8831C185.524 61.1092 185.74 61.2655 185.99 61.3015L194.219 62.4861C194.523 62.5299 194.76 62.7462 194.845 63.0217L194.853 63.0207L194.854 63.0553C194.879 63.151 194.885 63.2532 194.87 63.3572L194.852 63.4382L194.854 66.8929C194.879 66.9887 194.885 67.0908 194.87 67.1949C194.846 67.3639 194.766 67.5201 194.643 67.6387L188.974 73.1129L189.879 78.3408C189.9 78.4613 189.892 78.5801 189.859 78.6899L189.859 82.063L189.879 82.1784C189.952 82.5971 189.671 82.9953 189.253 83.0678C189.087 83.0965 188.916 83.0699 188.766 82.9921L181.392 79.1515C181.17 79.0355 180.904 79.0355 180.682 79.1515L173.308 82.9921C172.931 83.1883 172.467 83.0419 172.27 82.665C172.193 82.5155 172.166 82.3445 172.195 82.1784L172.202 82.1291L172.202 78.6417C172.18 78.5435 172.177 78.4413 172.195 78.3408L173.099 73.1122L167.431 67.6387C167.237 67.4516 167.163 67.1874 167.209 66.9411L167.21 63.3959C167.164 63.1576 167.23 62.9011 167.412 62.7132C167.53 62.5903 167.686 62.5104 167.855 62.4861L176.084 61.3015C176.334 61.2655 176.55 61.1092 176.663 60.8831L180.349 53.485C180.538 53.1047 181 52.95 181.38 53.1395Z" fill="#251560"/>
</g>
<path fill-rule="evenodd" clip-rule="evenodd" d="M181.377 50.271C181.529 50.3459 181.652 50.4687 181.727 50.6204L184.905 57.0618L194.755 56.3196L194.756 60.1831C194.785 60.2839 194.793 60.3923 194.777 60.5027C194.752 60.6701 194.674 60.8249 194.552 60.943L188.642 66.7049C188.461 66.8817 188.378 67.1363 188.421 67.3859L189.168 71.7428L189.797 71.7971L189.796 75.4042L189.816 75.5219C189.888 75.9406 189.607 76.3384 189.188 76.4102C189.021 76.4388 188.85 76.4116 188.7 76.3329L181.395 72.4916C181.171 72.3738 180.903 72.3738 180.679 72.4916L173.374 76.3329C172.998 76.5306 172.532 76.386 172.335 76.0099C172.256 75.8602 172.229 75.6886 172.258 75.5219L172.265 75.4719L172.266 71.8795L173.089 70.668L173.653 67.3859C173.696 67.1363 173.613 66.8817 173.431 66.7049L167.521 60.943C167.323 60.7498 167.252 60.4759 167.307 60.2243L167.308 56.4343L177.001 57.3996L180.347 50.6204C180.535 50.2394 180.996 50.083 181.377 50.271Z" fill="url(#paint10_linear_2326_138824)"/>
<path fill-rule="evenodd" clip-rule="evenodd" d="M180.679 68.644L173.374 72.4852C172.998 72.683 172.532 72.5384 172.335 72.1623C172.256 72.0125 172.229 71.841 172.258 71.6742L173.653 63.5382C173.696 63.2887 173.613 63.034 173.431 62.8572L167.521 57.0953C167.217 56.7987 167.211 56.3116 167.507 56.0074C167.626 55.8862 167.78 55.8074 167.948 55.783L176.115 54.596C176.366 54.5596 176.582 54.4022 176.694 54.1751L180.347 46.7728C180.535 46.3918 180.996 46.2353 181.377 46.4234C181.529 46.4983 181.652 46.6211 181.727 46.7728L185.379 54.1751C185.491 54.4022 185.708 54.5596 185.959 54.596L194.126 55.783C194.547 55.8441 194.838 56.2345 194.777 56.655C194.752 56.8225 194.674 56.9772 194.552 57.0953L188.642 62.8572C188.461 63.034 188.378 63.2887 188.421 63.5382L189.816 71.6742C189.888 72.093 189.607 72.4907 189.188 72.5625C189.021 72.5911 188.85 72.564 188.7 72.4852L181.395 68.644C181.171 68.5261 180.903 68.5261 180.679 68.644Z" fill="url(#paint11_linear_2326_138824)"/>
<path opacity="0.318034" fill-rule="evenodd" clip-rule="evenodd" d="M172.575 55.5249L176.324 54.991C176.573 54.9556 176.789 54.8007 176.902 54.5763L180.686 47.0863C180.781 46.8967 181.013 46.8206 181.202 46.9164C181.276 46.9538 181.336 47.0141 181.373 47.0884L185.098 54.5749C185.211 54.8002 185.426 54.9564 185.675 54.9932L193.876 56.2053C194.086 56.2364 194.231 56.4319 194.2 56.6421C194.188 56.7256 194.148 56.8027 194.088 56.8615L188.03 62.7591C187.847 62.9371 187.764 63.1943 187.809 63.4456L188.422 66.8778L172.575 55.5249Z" fill="white"/>
<g opacity="0.585007" filter="url(#filter4_f_2326_138824)">
<path fill-rule="evenodd" clip-rule="evenodd" d="M83.6877 53.1395C83.8373 53.2141 83.9586 53.3354 84.0331 53.485L87.7186 60.8831C87.8312 61.1092 88.0475 61.2655 88.2975 61.3015L96.5262 62.4861C96.8305 62.5299 97.0673 62.7462 97.1521 63.0217L97.1608 63.0207L97.1616 63.0553C97.1864 63.151 97.193 63.2532 97.178 63.3572L97.1601 63.4382L97.1616 66.8929C97.1864 66.9887 97.193 67.0908 97.178 67.1949C97.1537 67.3639 97.0738 67.5201 96.9509 67.6387L91.2816 73.1129L92.187 78.3408C92.2078 78.4613 92.1995 78.5801 92.167 78.6899L92.1662 82.063L92.187 82.1784C92.2595 82.5971 91.9789 82.9953 91.5603 83.0678C91.3942 83.0965 91.2232 83.0699 91.0737 82.9921L83.6999 79.1515C83.4773 79.0355 83.212 79.0355 82.9893 79.1515L75.6155 82.9921C75.2387 83.1883 74.7742 83.0419 74.578 82.665C74.5001 82.5155 74.4735 82.3445 74.5023 82.1784L74.5101 82.1291L74.5099 78.6417C74.4877 78.5435 74.4849 78.4413 74.5023 78.3408L75.407 73.1122L69.7383 67.6387C69.5446 67.4516 69.4702 67.1874 69.5169 66.9411L69.5178 63.3959C69.4712 63.1576 69.5379 62.9011 69.7193 62.7132C69.8379 62.5903 69.994 62.5104 70.1631 62.4861L78.3918 61.3015C78.6417 61.2655 78.8581 61.1092 78.9707 60.8831L82.6561 53.485C82.8456 53.1047 83.3074 52.95 83.6877 53.1395Z" fill="#251560"/>
</g>
<path fill-rule="evenodd" clip-rule="evenodd" d="M83.6849 50.271C83.8366 50.3459 83.9594 50.4687 84.0343 50.6204L87.2128 57.0618L97.0626 56.3196L97.0636 60.1831C97.0921 60.2839 97.1004 60.3923 97.0843 60.5027C97.06 60.6701 96.9812 60.8249 96.86 60.943L90.9499 66.7049C90.7686 66.8817 90.6859 67.1363 90.7287 67.3859L91.4751 71.7428L92.1042 71.7971L92.1036 75.4042L92.1239 75.5219C92.1957 75.9406 91.9145 76.3384 91.4957 76.4102C91.329 76.4388 91.1575 76.4116 91.0078 76.3329L83.7025 72.4916C83.4784 72.3738 83.2106 72.3738 82.9865 72.4916L75.6812 76.3329C75.3052 76.5306 74.8401 76.386 74.6424 76.0099C74.5637 75.8602 74.5365 75.6886 74.5651 75.5219L74.5728 75.4719L74.5733 71.8795L75.3967 70.668L75.9603 67.3859C76.0031 67.1363 75.9204 66.8817 75.7391 66.7049L69.829 60.943C69.6309 60.7498 69.5591 60.4759 69.6151 60.2243L69.616 56.4343L79.309 57.3996L82.6547 50.6204C82.8427 50.2394 83.304 50.083 83.6849 50.271Z" fill="url(#paint12_linear_2326_138824)"/>
<path fill-rule="evenodd" clip-rule="evenodd" d="M82.9865 68.644L75.6812 72.4852C75.3052 72.683 74.8401 72.5384 74.6424 72.1623C74.5637 72.0125 74.5365 71.841 74.5651 71.6742L75.9603 63.5382C76.0031 63.2887 75.9204 63.034 75.7391 62.8572L69.829 57.0953C69.5248 56.7987 69.5185 56.3116 69.8151 56.0074C69.9332 55.8862 70.0879 55.8074 70.2553 55.783L78.4229 54.596C78.6734 54.5596 78.89 54.4022 79.0021 54.1751L82.6547 46.7728C82.8427 46.3918 83.304 46.2353 83.6849 46.4234C83.8366 46.4983 83.9594 46.6211 84.0343 46.7728L87.687 54.1751C87.799 54.4022 88.0156 54.5596 88.2661 54.596L96.4337 55.783C96.8541 55.8441 97.1454 56.2345 97.0843 56.655C97.06 56.8225 96.9812 56.9772 96.86 57.0953L90.9499 62.8572C90.7686 63.034 90.6859 63.2887 90.7287 63.5382L92.1239 71.6742C92.1957 72.093 91.9145 72.4907 91.4957 72.5625C91.329 72.5911 91.1575 72.564 91.0078 72.4852L83.7025 68.644C83.4784 68.5261 83.2106 68.5261 82.9865 68.644Z" fill="url(#paint13_linear_2326_138824)"/>
<path opacity="0.318034" fill-rule="evenodd" clip-rule="evenodd" d="M74.8828 55.5249L78.6314 54.991C78.8803 54.9556 79.0961 54.8007 79.2095 54.5763L82.9933 47.0863C83.0891 46.8967 83.3204 46.8206 83.51 46.9164C83.584 46.9538 83.644 47.0141 83.6809 47.0884L87.406 54.5749C87.5181 54.8002 87.7333 54.9564 87.9822 54.9932L96.1834 56.2053C96.3936 56.2364 96.5388 56.4319 96.5077 56.6421C96.4954 56.7256 96.4559 56.8027 96.3955 56.8615L90.3376 62.7591C90.1547 62.9371 90.072 63.1943 90.1169 63.4456L90.7294 66.8778L74.8828 55.5249Z" fill="white"/>
</g>
<defs>
<filter id="filter0_f_2326_138824" x="78.2427" y="75.6289" width="90.9072" height="107.551" filterUnits="userSpaceOnUse" color-interpolation-filters="sRGB">
<feFlood flood-opacity="0" result="BackgroundImageFix"/>
<feBlend mode="normal" in="SourceGraphic" in2="BackgroundImageFix" result="shape"/>
<feGaussianBlur stdDeviation="4" result="effect1_foregroundBlur_2326_138824"/>
</filter>
<filter id="filter1_f_2326_138824" x="90.7344" y="21.207" width="43.6826" height="46.0195" filterUnits="userSpaceOnUse" color-interpolation-filters="sRGB">
<feFlood flood-opacity="0" result="BackgroundImageFix"/>
<feBlend mode="normal" in="SourceGraphic" in2="BackgroundImageFix" result="shape"/>
<feGaussianBlur stdDeviation="4" result="effect1_foregroundBlur_2326_138824"/>
</filter>
<filter id="filter2_f_2326_138824" x="126.119" y="21.207" width="43.6826" height="46.0195" filterUnits="userSpaceOnUse" color-interpolation-filters="sRGB">
<feFlood flood-opacity="0" result="BackgroundImageFix"/>
<feBlend mode="normal" in="SourceGraphic" in2="BackgroundImageFix" result="shape"/>
<feGaussianBlur stdDeviation="4" result="effect1_foregroundBlur_2326_138824"/>
</filter>
<filter id="filter3_f_2326_138824" x="159.196" y="45.0586" width="43.6826" height="46.0195" filterUnits="userSpaceOnUse" color-interpolation-filters="sRGB">
<feFlood flood-opacity="0" result="BackgroundImageFix"/>
<feBlend mode="normal" in="SourceGraphic" in2="BackgroundImageFix" result="shape"/>
<feGaussianBlur stdDeviation="4" result="effect1_foregroundBlur_2326_138824"/>
</filter>
<filter id="filter4_f_2326_138824" x="61.5034" y="45.0586" width="43.6826" height="46.0195" filterUnits="userSpaceOnUse" color-interpolation-filters="sRGB">
<feFlood flood-opacity="0" result="BackgroundImageFix"/>
<feBlend mode="normal" in="SourceGraphic" in2="BackgroundImageFix" result="shape"/>
<feGaussianBlur stdDeviation="4" result="effect1_foregroundBlur_2326_138824"/>
</filter>
<linearGradient id="paint0_linear_2326_138824" x1="83.7132" y1="28.5236" x2="162.727" y2="178.334" gradientUnits="userSpaceOnUse">
<stop stop-color="#7458DC"/>
<stop offset="1" stop-color="#5E48AF"/>
</linearGradient>
<linearGradient id="paint1_linear_2326_138824" x1="130.267" y1="2.30769" x2="130.267" y2="197.692" gradientUnits="userSpaceOnUse">
<stop stop-color="#F9EC69"/>
<stop offset="1" stop-color="#F1D438"/>
</linearGradient>
<linearGradient id="paint2_linear_2326_138824" x1="92.8856" y1="157.826" x2="144.821" y2="141.199" gradientUnits="userSpaceOnUse">
<stop stop-color="#B69B1F"/>
<stop offset="1" stop-color="#A38914"/>
</linearGradient>
<linearGradient id="paint3_linear_2326_138824" x1="146.166" y1="133.583" x2="95.4398" y2="155.266" gradientUnits="userSpaceOnUse">
<stop stop-color="#EFCF32"/>
<stop offset="1" stop-color="#F6E57B"/>
</linearGradient>
<linearGradient id="paint4_linear_2326_138824" x1="143.649" y1="64.9421" x2="134.394" y2="105.883" gradientUnits="userSpaceOnUse">
<stop stop-color="#F6E378"/>
<stop offset="1" stop-color="#F1D235"/>
</linearGradient>
<linearGradient id="paint5_linear_2326_138824" x1="138.178" y1="73.041" x2="133.329" y2="100.081" gradientUnits="userSpaceOnUse">
<stop stop-color="#B89D20"/>
<stop offset="1" stop-color="#A28813"/>
</linearGradient>
<linearGradient id="paint6_linear_2326_138824" x1="112.575" y1="26.3398" x2="112.575" y2="52.5699" gradientUnits="userSpaceOnUse">
<stop stop-color="#D8C537"/>
<stop offset="1" stop-color="#B09219"/>
</linearGradient>
<linearGradient id="paint7_linear_2326_138824" x1="112.575" y1="22.4922" x2="112.575" y2="48.7222" gradientUnits="userSpaceOnUse">
<stop stop-color="#F7E44C"/>
<stop offset="1" stop-color="#ECC525"/>
</linearGradient>
<linearGradient id="paint8_linear_2326_138824" x1="147.961" y1="26.3398" x2="147.961" y2="52.5699" gradientUnits="userSpaceOnUse">
<stop stop-color="#D8C537"/>
<stop offset="1" stop-color="#B09219"/>
</linearGradient>
<linearGradient id="paint9_linear_2326_138824" x1="147.961" y1="22.4922" x2="147.961" y2="48.7222" gradientUnits="userSpaceOnUse">
<stop stop-color="#F7E44C"/>
<stop offset="1" stop-color="#ECC525"/>
</linearGradient>
<linearGradient id="paint10_linear_2326_138824" x1="181.037" y1="50.1914" x2="181.037" y2="76.4214" gradientUnits="userSpaceOnUse">
<stop stop-color="#D8C537"/>
<stop offset="1" stop-color="#B09219"/>
</linearGradient>
<linearGradient id="paint11_linear_2326_138824" x1="181.037" y1="46.3438" x2="181.037" y2="72.5738" gradientUnits="userSpaceOnUse">
<stop stop-color="#F7E44C"/>
<stop offset="1" stop-color="#ECC525"/>
</linearGradient>
<linearGradient id="paint12_linear_2326_138824" x1="83.3446" y1="50.1914" x2="83.3446" y2="76.4214" gradientUnits="userSpaceOnUse">
<stop stop-color="#D8C537"/>
<stop offset="1" stop-color="#B09219"/>
</linearGradient>
<linearGradient id="paint13_linear_2326_138824" x1="83.3446" y1="46.3438" x2="83.3446" y2="72.5738" gradientUnits="userSpaceOnUse">
<stop stop-color="#F7E44C"/>
<stop offset="1" stop-color="#ECC525"/>
</linearGradient>
</defs>
</svg>
