<svg width="260" height="200" viewBox="0 0 260 200" fill="none" xmlns="http://www.w3.org/2000/svg">
<path d="M130 200C185.228 200 230 155.228 230 100C230 44.7715 185.228 0 130 0C74.7715 0 30 44.7715 30 100C30 155.228 74.7715 200 130 200Z" fill="#5E48AF"/>
<mask id="mask0" mask-type="alpha" maskUnits="userSpaceOnUse" x="30" y="0" width="200" height="200">
<path d="M130 200C185.228 200 230 155.228 230 100C230 44.7715 185.228 0 130 0C74.7715 0 30 44.7715 30 100C30 155.228 74.7715 200 130 200Z" fill="white"/>
</mask>
<g mask="url(#mask0)">
<rect x="180.713" y="115" width="127.313" height="17" rx="4.6656" fill="#292659"/>
<path d="M199.236 137.225C203.524 137.225 206.999 133.755 206.999 129.474C206.999 125.193 203.524 121.722 199.236 121.722C194.949 121.722 191.473 125.193 191.473 129.474C191.473 133.755 194.949 137.225 199.236 137.225Z" fill="#292659"/>
<path d="M231.841 137.225C236.128 137.225 239.604 133.755 239.604 129.474C239.604 125.193 236.128 121.722 231.841 121.722C227.553 121.722 224.078 125.193 224.078 129.474C224.078 133.755 227.553 137.225 231.841 137.225Z" fill="#292659"/>
<rect x="232.516" y="137.225" width="6.08232" height="15.5024" transform="rotate(-180 232.516 137.225)" fill="#292659"/>
<path d="M226.461 137.225C230.748 137.225 234.224 133.755 234.224 129.474C234.224 125.193 230.748 121.722 226.461 121.722C222.173 121.722 218.698 125.193 218.698 129.474C218.698 133.755 222.173 137.225 226.461 137.225Z" fill="#292659"/>
<rect x="199.912" y="137.225" width="6.08232" height="15.5024" transform="rotate(-180 199.912 137.225)" fill="#292659"/>
<path d="M241.358 67.3246L271.401 99.151C271.809 99.5851 272.313 99.9182 272.872 100.124C276.587 101.496 291.445 107.433 291.445 114.553V125.055C291.445 127.196 289.707 128.931 287.564 128.931H277.874C277.874 123.579 275.919 118.816 268.156 118.816C260.005 118.816 258.452 123.579 258.452 128.931L203.723 129.003C203.723 123.651 202.171 118.428 194.019 118.428C185.48 118.428 184.316 123.651 184.316 129.003H178.882C176.738 129.003 175 127.268 175 125.127V69.9833C175 67.8428 176.738 66.1077 178.882 66.1077H238.536C239.605 66.1083 240.625 66.5485 241.358 67.3246Z" fill="#EDEDED"/>
<path d="M274.564 71.9998C274.564 73.2881 273.52 74.3326 272.232 74.3326L177.333 74.3326C176.044 74.3326 175 73.2881 175 71.9998V68.3328C175 67.0444 176.044 66 177.333 66L272.232 66C273.52 66 274.564 67.0444 274.564 68.3328V71.9998Z" fill="white"/>
<path d="M203.684 89.8806H203.618H203.552C203.497 89.8713 203.443 89.8584 203.389 89.8418C203.119 89.7594 202.89 89.578 202.749 89.3341L197.703 80.7187C197.552 80.4598 197.511 80.1512 197.59 79.8622C197.663 79.5712 197.853 79.3231 198.114 79.1762C198.287 79.0712 198.486 79.0174 198.689 79.0211C199.091 79.0263 199.463 79.2389 199.671 79.5831L203.723 86.5321L207.775 79.5831C207.978 79.2331 208.353 79.0186 208.757 79.0211C208.959 79.0245 209.156 79.0777 209.332 79.1762C209.59 79.3271 209.778 79.5736 209.856 79.8622C209.935 80.1512 209.894 80.4598 209.743 80.7187L204.736 89.3264C204.599 89.5604 204.381 89.7367 204.123 89.8224L204.088 89.8418L203.944 89.8728H203.867H203.684V89.8806Z" fill="#5E48AF"/>
<path d="M208.754 108.933C208.351 108.928 207.98 108.715 207.772 108.371L203.708 101.426L199.671 108.371C199.466 108.719 199.093 108.932 198.689 108.933C198.488 108.929 198.291 108.877 198.114 108.782C197.858 108.629 197.671 108.383 197.59 108.096C197.511 107.806 197.552 107.496 197.703 107.235L202.749 98.62C202.888 98.3869 203.105 98.2109 203.362 98.124H203.397L203.552 98.0968H203.63H203.859H203.894L204.088 98.1356C204.357 98.2184 204.585 98.398 204.729 98.6394L209.751 107.255C209.906 107.514 209.948 107.825 209.868 108.115C209.79 108.404 209.602 108.65 209.344 108.801C209.173 108.904 208.976 108.957 208.777 108.952L208.754 108.933Z" fill="#5E48AF"/>
<path d="M208.241 92.485C207.972 92.4806 207.713 92.3834 207.508 92.2098L207.481 92.1788C207.44 92.1462 207.403 92.1084 207.372 92.0664L207.345 92.0354C207.316 92.0001 207.29 91.9625 207.267 91.923C207.244 91.8911 207.225 91.8558 207.213 91.8184V91.7796C207.186 91.6944 207.166 91.644 207.155 91.5897C207.089 91.3135 207.131 91.0228 207.271 90.7758L212.181 82.1061C212.387 81.7562 212.761 81.5389 213.167 81.5325C213.365 81.5308 213.56 81.5831 213.73 81.6837C214.277 81.9937 214.469 82.6869 214.161 83.2339L210.194 90.21H218.24C218.542 90.209 218.832 90.3283 219.045 90.5415C219.259 90.7546 219.378 91.0441 219.377 91.3456C219.38 91.646 219.259 91.9345 219.044 92.1439C218.832 92.3595 218.542 92.481 218.24 92.4811L208.241 92.485Z" fill="#5E48AF"/>
<path d="M194.303 106.414C194.105 106.416 193.91 106.363 193.74 106.263C193.479 106.112 193.287 105.866 193.204 105.577C193.127 105.287 193.164 104.979 193.309 104.716L197.272 97.7403H189.23C188.928 97.7413 188.638 97.622 188.424 97.4088C188.211 97.1956 188.091 96.9062 188.092 96.6047C188.088 96.3027 188.209 96.0124 188.426 95.8025C188.639 95.5894 188.928 95.4696 189.23 95.4692H199.213C199.484 95.47 199.747 95.5691 199.95 95.7482L199.978 95.7753C200.017 95.8082 200.052 95.8459 200.082 95.8877L200.129 95.9459C200.15 95.9771 200.169 96.0095 200.187 96.0428C200.211 96.0747 200.231 96.11 200.245 96.1474V96.1862C200.272 96.2471 200.291 96.3108 200.304 96.3761C200.366 96.6508 200.326 96.9386 200.191 97.1861L195.269 105.86C195.068 106.202 194.701 106.413 194.303 106.414Z" fill="#5E48AF"/>
<path d="M213.287 106.301C212.884 106.295 212.512 106.081 212.305 105.736L207.259 97.1241C207.127 96.8887 207.079 96.6152 207.124 96.349V96.3102C207.134 96.261 207.15 96.213 207.17 96.1668L207.201 96.1009C207.215 96.0677 207.233 96.0365 207.256 96.0079C207.273 95.9681 207.296 95.9314 207.325 95.8994L207.353 95.8723L207.485 95.7289C207.69 95.5371 207.96 95.428 208.241 95.4227L218.225 95.3181C218.854 95.3178 219.37 95.8174 219.389 96.4459C219.392 96.7473 219.275 97.0376 219.063 97.2522C218.851 97.4669 218.562 97.5881 218.26 97.5892L210.213 97.6744L214.258 104.619C214.409 104.88 214.449 105.19 214.37 105.48C214.295 105.77 214.106 106.017 213.846 106.166C213.668 106.254 213.471 106.301 213.272 106.301H213.287Z" fill="#5E48AF"/>
<path d="M189.198 92.64C188.579 92.6258 188.08 92.1303 188.061 91.5122C188.058 91.2107 188.175 90.9205 188.388 90.7058C188.6 90.4912 188.889 90.3699 189.191 90.3689L197.237 90.2798L193.192 83.3463C192.878 82.8047 193.062 82.1113 193.604 81.7961C193.777 81.6911 193.976 81.6373 194.178 81.6411C194.581 81.6462 194.952 81.8588 195.16 82.203L200.206 90.8185C200.34 91.0532 200.388 91.3273 200.342 91.5936V91.6323C200.332 91.6804 200.316 91.7273 200.296 91.7719L200.268 91.8416C200.252 91.8742 200.232 91.9053 200.21 91.9346C200.179 91.985 200.171 92.0122 200.152 92.0393L200.125 92.0703C200.067 92.1362 200.028 92.1749 199.989 92.2137C199.785 92.4062 199.516 92.5154 199.236 92.5199L189.198 92.64Z" fill="#5E48AF"/>
<rect x="245.224" y="63.0072" width="16.9156" height="6.00718" rx="2.6244" transform="rotate(180 245.224 63.0072)" fill="#40969F"/>
<path d="M184.541 129.003C184.541 123.866 188.711 119.632 193.856 119.632C199.001 119.632 203.172 123.866 203.172 129.003H207.896C207.896 121.297 201.639 114.981 193.922 114.981C186.205 114.981 179.949 121.297 179.949 129.003H184.541Z" fill="white"/>
<rect x="325.6" y="138" width="150" height="2" rx="1" transform="rotate(-180 325.6 138)" fill="#292659"/>
<path d="M193.856 137.225C198.144 137.225 201.619 133.755 201.619 129.474C201.619 125.193 198.144 121.722 193.856 121.722C189.569 121.722 186.093 125.193 186.093 129.474C186.093 133.755 189.569 137.225 193.856 137.225Z" fill="#5E48AF"/>
<path d="M193.829 133.349C195.973 133.349 197.711 131.614 197.711 129.474C197.711 127.333 195.973 125.598 193.829 125.598C191.686 125.598 189.948 127.333 189.948 129.474C189.948 131.614 191.686 133.349 193.829 133.349Z" fill="#292659"/>
<rect x="121" y="111" width="44" height="4" rx="2" fill="white"/>
<rect x="150" y="95" width="15" height="4" rx="2" fill="white"/>
<rect x="138" y="80" width="27" height="4" rx="2" fill="white"/>
</g>
</svg>
