<svg width="260" height="200" viewBox="0 0 260 200" fill="none" xmlns="http://www.w3.org/2000/svg">
  <path d="M130 200C185.228 200 230 155.228 230 100C230 44.7715 185.228 0 130 0C74.7715 0 30 44.7715 30 100C30 155.228 74.7715 200 130 200Z" fill="#5E48AF"/>
  <mask id="mask0" mask-type="alpha" maskUnits="userSpaceOnUse" x="30" y="0" width="200" height="200">
    <path d="M130 200C185.228 200 230 155.228 230 100C230 44.7715 185.228 0 130 0C74.7715 0 30 44.7715 30 100C30 155.228 74.7715 200 130 200Z" fill="#5E48AF"/>
  </mask>
  <g mask="url(#mask0)">
    <rect x="-34" y="131" width="127.313" height="17" rx="4.6656" fill="#292659"/>
    <rect x="83.7109" y="108.268" width="6.98671" height="12.4019" rx="2.3328" fill="white"/>
    <path d="M58.7611 153.225C63.0484 153.225 66.5241 149.754 66.5241 145.474C66.5241 141.193 63.0484 137.722 58.7611 137.722C54.4737 137.722 50.998 141.193 50.998 145.474C50.998 149.754 54.4737 153.225 58.7611 153.225Z" fill="#292659"/>
    <path d="M91.3665 153.225C95.6539 153.225 99.1295 149.754 99.1295 145.474C99.1295 141.193 95.6539 137.722 91.3665 137.722C87.0791 137.722 83.6035 141.193 83.6035 145.474C83.6035 149.754 87.0791 153.225 91.3665 153.225Z" fill="#292659"/>
    <rect x="92.041" y="153.225" width="6.08232" height="15.5024" transform="rotate(-180 92.041 153.225)" fill="#292659"/>
    <path d="M85.9857 153.225C90.2731 153.225 93.7487 149.754 93.7487 145.474C93.7487 141.193 90.2731 137.722 85.9857 137.722C81.6983 137.722 78.2227 141.193 78.2227 145.474C78.2227 149.754 81.6983 153.225 85.9857 153.225Z" fill="#292659"/>
    <rect x="59.4355" y="153.225" width="6.08232" height="15.5024" transform="rotate(-180 59.4355 153.225)" fill="#292659"/>
    <path d="M20.75 82.1077H57.6942C58.7624 82.1083 59.7832 82.5485 60.516 83.3246L90.5588 115.151C90.9667 115.585 91.4705 115.918 92.0299 116.124C95.7445 117.496 110.603 123.433 110.603 130.553V141.06C110.603 143.2 108.865 144.935 106.721 144.935H66.1636" fill="white"/>
    <path d="M26.3582 83.3246L56.401 115.151C56.8089 115.585 57.3126 115.918 57.8721 116.124C61.5867 117.496 76.4451 123.433 76.4451 130.553V141.055C76.4451 143.196 74.7073 144.931 72.5636 144.931H62.8737C62.8737 139.579 60.9191 134.816 53.1561 134.816C45.0049 134.816 43.4523 139.579 43.4523 144.931L-11.2769 144.933C-11.2769 139.581 -12.8295 134.428 -20.9806 134.428C-29.5199 134.428 -30.6844 139.579 -30.6844 144.931H-36.1185C-38.2622 144.931 -40 143.196 -40 141.055V85.9833C-40 83.8428 -38.2622 82.1077 -36.1185 82.1077H23.5363C24.6046 82.1083 25.6254 82.5485 26.3582 83.3246Z" fill="#EDEDED"/>
    <rect x="43.8438" y="83.1555" width="11.6445" height="4.536" transform="rotate(-180 43.8438 83.1555)" fill="white"/>
    <rect x="32.4668" y="83.1555" width="4.536" height="4.536" transform="rotate(-180 32.4668 83.1555)" fill="#EDEDED"/>
    <path d="M59.5645 88.1074C59.5645 89.3958 58.52 90.4402 57.2317 90.4402L-37.6672 90.4402C-38.9556 90.4402 -40 89.3958 -40 88.1074V84.4404C-40 83.1521 -38.9556 82.1076 -37.6672 82.1076L57.2317 82.1076C58.52 82.1076 59.5645 83.1521 59.5645 84.4404V88.1074Z" fill="white"/>
    <path d="M37.6964 90.5254H63.3531C64.4189 90.5251 65.4379 90.9623 66.1711 91.7346L89.1457 115.965C89.3364 116.167 89.4045 116.455 89.3244 116.72C89.2442 116.986 89.0281 117.188 88.7576 117.252C87.4961 117.569 85.5359 117.763 82.652 117.763C80.9131 117.763 79.2828 117.744 77.7613 117.705L68.8726 107.88H58.3926L55.8269 111.585L37.1258 91.8198C36.921 91.5932 36.8684 91.2677 36.9916 90.9882C37.1147 90.7088 37.3907 90.5276 37.6964 90.5254Z" fill="#65BFCF"/>
    <path d="M68.8806 107.88L77.7692 117.705C69.684 117.507 64.5372 116.825 61.036 116.081C60.2659 115.92 59.564 115.526 59.0254 114.953L55.8105 111.565L58.3686 107.88H68.8806Z" fill="#40969F"/>
    <rect x="68.4922" y="107.105" width="12.0327" height="4.65072" rx="2.10341" transform="rotate(180 68.4922 107.105)" fill="#40969F"/>
    <path d="M22.4967 90.5022H28.0512C29.2253 90.5171 30.3246 91.0809 31.0205 92.0253L48.2738 111.074C49.1495 112.241 49.2878 113.802 48.6309 115.104L39.3813 107.88H28.9012L22.3027 116.794L23.405 116.969H22.4967C20.3541 116.969 18.6152 115.054 18.6152 112.705V94.7809C18.6152 92.4167 20.3541 90.5022 22.4967 90.5022Z" fill="#65BFCF"/>
    <path d="M28.9013 107.88H39.3814L48.631 115.104C48.1251 116.224 47.0161 116.951 45.7858 116.969H23.4051L22.3027 116.794L28.9013 107.88Z" fill="#40969F"/>
    <rect x="39.3809" y="107.105" width="12.0327" height="4.65072" rx="2.10341" transform="rotate(180 39.3809 107.105)" fill="#40969F"/>
    <path opacity="0.1" d="M58.4809 114.384L48.1328 103.45L66.1624 91.6028L75.1869 101.245L58.4809 114.384Z" fill="white"/>
    <rect x="103.119" y="137.722" width="17.8549" height="2.32536" rx="1.16268" transform="rotate(-180 103.119 137.722)" fill="#292659"/>
    <path d="M82.0607 144.935C79.9181 144.935 99.5274 144.935 99.5274 144.935C101.67 144.935 102.735 142.99 102.735 141.897C102.735 141.304 102.253 140.823 101.66 140.823H86.3394C85.7471 140.825 85.2681 141.305 85.2681 141.897C85.2681 143 84.2032 144.935 82.0607 144.935Z" fill="#292659"/>
    <rect x="68.5742" y="126.871" width="16.3023" height="4.65072" rx="2.32536" fill="#ECC525"/>
    <rect x="42.5664" y="108.268" width="6.98671" height="12.4019" rx="2.3328" fill="white"/>
    <rect x="102.342" y="126.871" width="12.0327" height="4.65072" rx="2.32536" fill="#ECC525"/>
    <rect x="66.6328" y="79.0071" width="43.8416" height="6.00718" rx="2.6244" transform="rotate(180 66.6328 79.0071)" fill="#65BFCF"/>
    <rect x="30.2246" y="79.0071" width="16.9156" height="6.00718" rx="2.6244" transform="rotate(180 30.2246 79.0071)" fill="#40969F"/>
    <rect x="110.6" y="154" width="150.336" height="1.944" rx="0.972" transform="rotate(-180 110.6 154)" fill="#292659"/>
    <path d="M43.9121 144.933C43.9121 139.796 48.0829 135.632 53.2277 135.632C58.3726 135.632 62.5434 139.796 62.5434 144.933H67.2671C67.2671 137.228 61.011 130.981 53.2937 130.981C45.5764 130.981 39.3203 137.228 39.3203 144.933H43.9121Z" fill="white"/>
    <path d="M53.3821 153.225C57.6695 153.225 61.1452 149.754 61.1452 145.474C61.1452 141.193 57.6695 137.722 53.3821 137.722C49.0948 137.722 45.6191 141.193 45.6191 145.474C45.6191 149.754 49.0948 153.225 53.3821 153.225Z" fill="#5E48AF"/>
    <path d="M53.3542 149.349C55.4979 149.349 57.2357 147.614 57.2357 145.474C57.2357 143.333 55.4979 141.598 53.3542 141.598C51.2105 141.598 49.4727 143.333 49.4727 145.474C49.4727 147.614 51.2105 149.349 53.3542 149.349Z" fill="#292659"/>
    <rect x="149" y="48" width="32" height="111" rx="4" fill="#292659"/>
    <rect x="161" y="139.729" width="8.02632" height="60.7707" rx="4.01316" fill="#292659"/>
    <path d="M134.346 64.1639C134.346 62.836 135.422 61.7595 136.75 61.7595H153.732C158.224 61.7595 161.865 65.4004 161.865 69.8917C161.865 76.054 155.278 79.9773 149.859 77.0423L138.281 70.7707C135.856 69.4574 134.346 66.9214 134.346 64.1639Z" fill="#292659"/>
    <path d="M134.346 95.1224C134.346 93.7945 135.422 92.718 136.75 92.718H153.732C158.224 92.718 161.865 96.3589 161.865 100.85C161.865 107.013 155.278 110.936 149.859 108.001L138.281 101.729C135.856 100.416 134.346 97.8799 134.346 95.1224Z" fill="#292659"/>
    <path d="M134.346 126.081C134.346 124.753 135.422 123.677 136.75 123.677H153.732C158.224 123.677 161.865 127.318 161.865 131.809C161.865 137.971 155.278 141.895 149.859 138.96L138.281 132.688C135.856 131.375 134.346 128.839 134.346 126.081Z" fill="#292659"/>
    <path d="M145.812 121.384H156.132C166.264 121.384 174.478 129.597 174.478 139.729V143.169H145.812V121.384Z" fill="#5E48AF"/>
    <path d="M145.812 90.4248H156.132C166.264 90.4248 174.478 98.6385 174.478 108.771V112.211H145.812V90.4248Z" fill="#5E48AF"/>
    <path d="M145.812 59.4661H156.132C166.264 59.4661 174.478 67.6798 174.478 77.8119V81.2518H145.812V59.4661Z" fill="#5E48AF"/>
    <path d="M143.52 123.677H156.132C164.998 123.677 172.185 130.864 172.185 139.729V145.462H148.679L143.52 123.677Z" fill="#292659"/>
    <path d="M143.52 92.718H156.132C164.998 92.718 172.185 99.905 172.185 108.771V114.504H148.679L143.52 92.718Z" fill="#292659"/>
    <path d="M143.52 61.7595H156.132C164.998 61.7595 172.185 68.9465 172.185 77.8122V83.5452H148.679L143.52 61.7595Z" fill="#292659"/>
    <path d="M129.76 97.7331L124.027 92" stroke="#ECC525" stroke-width="2.29323" stroke-linecap="round"/>
    <path d="M129.76 116.079L124.027 121.812" stroke="#ECC525" stroke-width="2.29323" stroke-linecap="round"/>
    <path d="M126.32 106.906L116 106.906" stroke="#ECC525" stroke-width="2.29323" stroke-linecap="round"/>
    <rect x="141.227" y="128.263" width="19.4925" height="19.4925" rx="9.74624" fill="#5E48AF"/>
    <rect x="141.227" y="96" width="19.4925" height="19.4925" rx="9.74624" fill="#B19521"/>
    <rect x="143.52" y="130.556" width="14.906" height="14.906" rx="7.45301" fill="#292659"/>
    <path d="M151.545 65.1992H155.558C160.941 65.1992 165.304 69.5628 165.304 74.9455C165.304 80.3282 160.941 84.6917 155.558 84.6917H151.545V65.1992Z" fill="#292659"/>
    <path d="M151 96H155.013C160.396 96 164.759 100.364 164.759 105.746C164.759 111.129 160.396 115.492 155.013 115.492H151V96Z" fill="#B19521"/>
    <rect x="141.227" y="65.1992" width="19.4925" height="19.4925" rx="9.74624" fill="#5E48AF"/>
    <rect x="143.52" y="67.4924" width="14.906" height="14.906" rx="7.45301" fill="#292659"/>
  </g>
  <path d="M143.594 105.953C143.594 101.837 146.931 98.5 151.047 98.5C155.163 98.5 158.5 101.837 158.5 105.953C158.5 110.069 155.163 113.406 151.047 113.406C146.931 113.406 143.594 110.069 143.594 105.953Z" fill="#ECC525"/>
</svg>
